<svg xmlns="http://www.w3.org/2000/svg" height="2186.667" width="4154.667" xml:space="preserve"><path style="fill:#fff;fill-opacity:1;fill-rule:nonzero;stroke:none" d="M0 8578.95V0h16300v8578.95H0" transform="matrix(.25489 0 0 -.25489 0 2186.667)"/><path style="fill:#fcecdb;fill-opacity:1;fill-rule:nonzero;stroke:none" d="M1792.91 1304.99s-862.599 2132.84 399.33 3406.37c1627.67 1642.63 3731.06 269.59 4520.31 309.63 789.25 40.03 833.66 1616.13 3191.86 1804.38 1823.29 145.56 4817.79 157.03 4178.89-2418.02-485.6-1957.77 2216.7-943.67 1690.5-3106.48l-13980.89 4.12" transform="matrix(.23624 0 0 -.23624 0 2186.667)"/><path style="fill:#599dad;fill-opacity:1;fill-rule:nonzero;stroke:none" d="M7862.43 4617.5s-363.64 424.3-22.43 693.7c0 0 249.24 150.9 452.47 138.7 0 0-287.97-482.9-194.81-530.9 93.16-48.1 282.09 561.2 282.09 561.2s567.18 55 749.63-32.7c0 0-484.86-396.8-382.74-420.4 102.12-23.7 625.84 365.8 625.84 365.8s527.89-89.8 499.75-411.9c-28.17-322-210.05-421.4-289.99-412.9-79.95 8.6-547.6 187.1-557.79 121.6-10.18-65.5 271.31-279.6 468.44-289.6 0 0-372.17-410.4-619.51-292-247.35 118.5-268.48 306.2-422.66 376.7-154.18 70.4-285.8 70.2-222.15-1.6 63.67-71.8 342.71-141.6 430.88-297.6 88.18-156 167.29-261.2-88.62-222.7-255.9 38.5-671.88 225.8-690.15 440.2l-18.25 214.4" transform="matrix(.13333 0 0 -.13333 0 2186.667)"/><path style="fill:#599dad;fill-opacity:1;fill-rule:nonzero;stroke:none" d="M9612.84 4972.3s-1433.78 55.3-1750.41-354.8c0 0-70.03-209.7-285.51-400.6l-33.58-91.6s248.45 262 337.34 277.8c0 0-139.02 508 1732.16 569.2" transform="matrix(.13333 0 0 -.13333 0 2186.667)"/><path style="fill:#599dad;fill-opacity:1;fill-rule:nonzero;stroke:none" d="M7576.92 4216.9s-307.75-227.7-329.13-634.3l55.86-5s98.29 420.5 275.94 584.9c177.66 164.5-2.67 54.4-2.67 54.4" transform="matrix(.13333 0 0 -.13333 0 2186.667)"/><path style="fill:#6bb7bf;fill-opacity:1;fill-rule:nonzero;stroke:none" d="M6591.03 5151.1s578.44 323.9 308.5 763.5c0 0-215.97 270-447.34 339.4 0 0 123.41-655.6 0-671-123.41-15.4-84.85 740.4-84.85 740.4s-609.3 293.09-848.4 269.96c0 0 377.94-640.16 254.53-624.76-123.41 15.4-547.62 663.32-547.62 663.32s-624.73 115.7-724.99-254.52c-100.27-370.2 61.7-555.3 154.25-578.5 92.56-23.1 686.43-15.4 671.01-92.5-15.42-77.1-416.48-200.5-640.15-131.1 0 0 246.8-609.3 570.74-578.5 323.93 30.9 424.2 231.4 624.74 246.8 200.52 15.5 347.07-38.5 246.8-92.5-100.26-54-439.63-17.7-601.59-155.4-161.97-137.7-293.09-222.6 7.71-284.3 300.8-61.7 840.69-23.1 948.67 208.3l107.99 231.4" transform="matrix(.13333 0 0 -.13333 0 2186.667)"/><path style="fill:#6bb7bf;fill-opacity:1;fill-rule:nonzero;stroke:none" d="M4786.23 6261.7s1619.69-524.5 1804.8-1110.6c0 0-7.73-262.3 154.24-563.1v-115.7s-169.67 393.4-262.23 447.4c0 0 362.51 509-1696.81 1342" transform="matrix(.13333 0 0 -.13333 0 2186.667)"/><path style="fill:#6bb7bf;fill-opacity:1;fill-rule:nonzero;stroke:none" d="M6745.27 4588s249.78-379.3 107.39-841l-64.26 17.3s62.37 508.5-68.31 764.3c-130.69 255.8 25.18 59.4 25.18 59.4" transform="matrix(.13333 0 0 -.13333 0 2186.667)"/><path style="fill:#86d1cd;fill-opacity:1;fill-rule:nonzero;stroke:none" d="M7511.3 5597.8s-762.51 427-406.67 1006.54c0 0 284.67 355.85 589.68 447.34 0 0-162.67-864.18 0-884.48 162.66-20.4 111.82 975.98 111.82 975.98s803.19 386.35 1118.36 355.84c0 0-498.17-843.84-335.51-823.51 162.68 20.33 721.86 874.35 721.86 874.35s823.56 152.5 955.66-335.5c132.2-488.01-81.3-732.02-203.3-762.52-122.02-30.5-904.87-20.34-884.53-122.04 20.33-101.6 549.01-264.3 843.83-172.8 0 0-325.33-803.2-752.33-762.5-427.02 40.6-559.18 305-823.52 325.3-264.34 20.4-457.51-50.8-325.33-122 132.16-71.1 579.5-23.3 793.01-204.8 213.5-181.5 386.33-293.4-10.17-374.7-396.5-81.3-1108.18-30.5-1250.53 274.5l-142.33 305" transform="matrix(.13333 0 0 -.13333 0 2186.667)"/><path style="fill:#6bb7bf;fill-opacity:1;fill-rule:nonzero;stroke:none" d="M9890.34 7061.86S7755.3 6370.5 7511.3 5597.8c0 0 10.16-345.7-203.34-742.2v-152.5s223.68 518.6 345.67 589.7c0 0-477.84 671 2236.71 1769.06" transform="matrix(.13333 0 0 -.13333 0 2186.667)"/><path style="fill:#6bb7bf;fill-opacity:1;fill-rule:nonzero;stroke:none" d="M7307.96 4855.6s-329.27-500-141.54-1108.6l84.7 22.8s-82.22 670.3 90.04 1007.5c172.27 337.2-33.2 78.3-33.2 78.3" transform="matrix(.13333 0 0 -.13333 0 2186.667)"/><path style="fill:#efcbab;fill-opacity:1;fill-rule:nonzero;stroke:none" d="M7485.61 2427.2c824.92 0 1493.65 668.7 1493.65 1493.6H5991.95c0-824.9 668.74-1493.6 1493.66-1493.6" transform="matrix(.13333 0 0 -.13333 0 2186.667)"/><path style="fill:#ffebdc;fill-opacity:1;fill-rule:nonzero;stroke:none" d="M7853.14 2438.6c-60.74-7.6-122.69-11.5-185.56-11.5-824.9 0-1493.58 668.8-1493.58 1493.7h371.07c0-762.1 570.72-1390.8 1308.07-1482.2" transform="matrix(.13333 0 0 -.13333 0 2186.667)"/><path style="fill:#efcbab;fill-opacity:1;fill-rule:nonzero;stroke:none" d="M8999.88 2351.2H5971.33c0 101.7 82.51 184.2 184.28 184.2h2660c101.76 0 184.27-82.5 184.27-184.2" transform="matrix(.13333 0 0 -.13333 0 2186.667)"/><path style="fill:#efcdaf;fill-opacity:1;fill-rule:nonzero;stroke:none" d="M9013.22 3875H5942.84v45.8h3070.38V3875" transform="matrix(.13333 0 0 -.13333 0 2186.667)"/><path style="fill:#163560;fill-opacity:1;fill-rule:nonzero;stroke:none" d="M15448.8 1982.57s21.5-346.5 88.6-351.5c8.9-.63 340-.63 340-.63l422.6 2.43s-2.8 101.81-126.3 123.39c-123.5 21.52-330.3 108.33-405.2 271.63-78.7 171.76-319.7-45.32-319.7-45.32" transform="matrix(.19213 0 0 -.19213 0 2186.667)"/><path style="fill:#e49963;fill-opacity:1;fill-rule:nonzero;stroke:none" d="M15465.5 6176.95s202.7-115.25 259.5-115.25c56.7.03 279.5 43.07 341.6 11.34 62-31.72 174.4-159.37 195.5-201.06 37.9-74.99-152.7-41.87-242.7 22-13.1 9.27-29.3 12.7-45 9.29-46.7-10.18-143.6-27.79-190.3-10.47-63 23.3-394.5 49.16-394.5 49.16l75.9 234.99" transform="matrix(.18912 0 0 -.18912 0 2186.667)"/><path style="fill:#ed7d2b;fill-opacity:1;fill-rule:nonzero;stroke:none" d="M14463.5 8047.26s218.3-1551.36 579.7-1690.31c178.4-68.56 966.6-223.98 1199.7-239.59 0 0 57.1 46.33 43.2 234.93 0 0-825.8 303.16-943.1 468.03-174.6 245.37 108.4 1002.41-110.7 1232.87-219.1 230.45-588.1 329.49-768.8-5.93" transform="matrix(.18206 0 0 -.18206 0 2186.667)"/><path style="fill:#599dad;fill-opacity:1;fill-rule:nonzero;stroke:none" d="M14161.1 4655.23c62-105.24 133.7-203.84 207.6-297.16 228.6-288.51 477.3-526.37 520.7-751.24 8.6-44.81 22.3-93.1 40.2-143.9 18.1-51.51 40.4-105.66 66.2-161.66 97-210.68 242-446.69 386.9-661.28 250.2-370.85 485.6-680.41 485.6-680.41l431.7 18.41c-17.3 43.31-205.5 555.41-457.5 1181.23-102.2 254.12-210.9 524.37-315.9 784.92-13.9 34.81-27.9 69.49-41.8 103.87-32 79.77-63.6 158.24-94.4 234.72-236.5 587.64-424.9 1055.59-424.9 1055.59s-945.1 358.04-1043.3 126.04c-80.9-191.31-15-378.7 238.9-809.13" transform="matrix(.18689 0 0 -.18689 0 2186.667)"/><path style="fill:#163560;fill-opacity:1;fill-rule:nonzero;stroke:none" d="M15961.5 3277.29s-322-206.9-290.8-274.16c4.2-8.95 182.1-327.64 182.1-327.64l229.6-405.54s96.6 57.39 50.9 187.92c-45.7 130.46-73.3 376.24 43.7 536 123 168.11-215.5 283.42-215.5 283.42" transform="matrix(.17425 0 0 -.17425 0 2186.667)"/><path style="fill:#6bb7bf;fill-opacity:1;fill-rule:nonzero;stroke:none" d="M14634.3 2645.24s-182.7 161.1-214.8 279.34c0 0 752.8 902.05 916.1 1104.2 7.5 9.31 5.6 19.46-4.3 30.64-123.3 139.01-1493.1 421.64-1672.2 700.19-61.7 95.95-96.6 187.08-115.6 266.68-40.6 169.96-8.5 287.36-8.5 287.36l1368 39.57s1139.1-709.24 1268.1-1192.79c128.9-483.64-1536.8-1515.19-1536.8-1515.19" transform="matrix(.19193 0 0 -.19193 0 2186.667)"/><path style="fill:#5aa9ad;fill-opacity:1;fill-rule:nonzero;stroke:none" d="M16300 4315.91c-131.1 147.79-1587.5 448.27-1777.8 744.42-65.6 102.02-102.8 198.91-123 283.54v184.07l618.2 97.23s175.2-539.42 694.5-741.71c486.2-189.47 578.4-525.68 588.1-567.55" transform="matrix(.18053 0 0 -.18053 0 2186.667)"/><path style="fill:#e49963;fill-opacity:1;fill-rule:nonzero;stroke:none" d="M16300 8667.85c-310.5-80.26-825.2 207.4-825.2 207.4s199.8 134.34 273.9 429.42c3.8 14.87 7.1 30.1 10.2 45.75 32.5 6.9 93.8 19.92 159.4 33.8l237.2-212.48s-5.5-88.22-35.1-239.84c-5.1-26.48-11-54.86-17.8-85.1 127.3-78.85 197.4-178.95 197.4-178.95" transform="matrix(.17107 0 0 -.17107 0 2186.667)"/><path style="fill:#f99746;fill-opacity:1;fill-rule:nonzero;stroke:none" d="M14744.6 7185.19c43.3-582.31-13.7-1467.95 35.4-1621.33 42.5-132.32 525.4-53.66 718.2-9.48 71.3 16.35 157.8 39.71 247 67.32 249 77.11 520.4 187.2 549.4 268.93 1.2 3.21 2.1 6.34 2.7 9.4 2.7 11.87 2.1 22.98-.5 34.26-9.7 41.65-47.1 86.72-51.5 189.87-4.9 115.16-4.2 250.78-8.5 396.62-.2 16.42-.5 34.34-2.3 50.67l-.1 5.98c0 3.13-.1 6.19-.2 9.32-4.2 162.64-12.7 333.63-22.5 503.2-6.2 106.5-13.5 211.97-21.9 313.03-21.7 260.86-51 492.82-89.6 639.49-63.4 239.06-202.9 394.97-329.9 509.23l-91.9 78.83c-102.6-22.4-223.8-7.55-333.4 44.41-118.8 56.34-159.7 96.72-180.4 81.5-274-211.45-471.1-859.37-420-1571.25" transform="matrix(.17573 0 0 -.17573 0 2186.667)"/><path style="fill:#ed7d2b;fill-opacity:1;fill-rule:nonzero;stroke:none" d="M15747.8 5622.62c249 77.12 520.4 187.22 549.5 268.97 1.1 3.21 2.1 6.34 2.7 9.4-.2 11.42-.3 22.85-.5 34.26-9.7 41.66-47.2 86.74-51.6 189.9-4.9 115.19-4.1 250.83-8.5 396.69-.2 16.43-.4 34.34-2.2 50.68l-.1 5.98c-.1 3.13-.2 6.19-.2 9.33l-1006.7 1282.62s-676.8-1409.22 517.6-2247.83" transform="matrix(.1757 0 0 -.1757 0 2186.667)"/><path style="fill:#d68d5d;fill-opacity:1;fill-rule:nonzero;stroke:none" d="M16300 9253.78s-5.5-89.01-35.4-241.99c-233.7 75.51-339.6 286.57-375 376.1 3.8 15 7.2 30.37 10.2 46.16 32.8 6.97 94.7 20.1 160.9 34.11l239.3-214.38" transform="matrix(.16956 0 0 -.16956 0 2186.667)"/><path style="fill:#e49963;fill-opacity:1;fill-rule:nonzero;stroke:none" d="M16017 8943.28s-499.9 83.4-443.1 393.82c56.8 310.42 30.5 530.26 351.9 490.13 321.5-40.13 361.7-169.88 368-278.1 6.2-108.22-145.4-619.56-276.8-605.85" transform="matrix(.17289 0 0 -.17289 0 2186.667)"/><path style="fill:#4a75cb;fill-opacity:1;fill-rule:nonzero;stroke:none" d="m15928.9 5568.73 39-12.68 332.1 1022.12-39 12.69-332.1-1022.13" transform="matrix(.1952 0 0 -.1952 0 2186.667)"/><path style="fill:#4a75cb;fill-opacity:1;fill-rule:nonzero;stroke:none" d="m15149.2 5764.52 1150.8-24.58-1.5-68.84-1150.8 24.57 1.5 68.85" transform="matrix(.19123 0 0 -.19123 0 2186.667)"/><path style="fill:#e49963;fill-opacity:1;fill-rule:nonzero;stroke:none" d="M15450.6 5744.78s376.6-99.29 517.9-88.87c141.2 10.42 258.6 77.59 276.4 112.65 17.8 35.08 55.1 97.26-41 85.78-96.2-11.48-227.4-31.92-231.5-13.43-4.1 18.47 78.4 16.71 78.4 16.71s24.9 36.25-6.5 37.55c-31.4 1.31-122.9 26.15-156.9 9.16-34-17-65.4-79.78-90.2-77.16-24.9 2.61-315.2 130.77-315.2 130.77l-31.4-213.16" transform="matrix(.18777 0 0 -.18777 0 2186.667)"/><path style="fill:#f99746;fill-opacity:1;fill-rule:nonzero;stroke:none" d="M14663.8 8040.62s46.2-1577.16 392.6-1756.38c170.9-88.44 942.7-331.52 1174.3-373.05 0 0 62.3 40.05 69.3 230.38 0 0-792.9 395.15-892.1 573.22-147.5 265 219.8 991.38 26.1 1246.39-193.6 255.01-552 395.13-770.2 79.44" transform="matrix(.18077 0 0 -.18077 0 2186.667)"/><path style="fill:#2b478b;fill-opacity:1;fill-rule:nonzero;stroke:none" d="M15412.1 9105.78s-5.7 105.32 59.3 165.67c0 0-22.6 105.61 19.1 123.02 41.8 17.41 50.5-71.38 69.7-57.45 19.1 13.92 104.4 80.08 141 177.57 36.5 97.48 371.1-20.59 410.1-38.15 39.1-17.56 164.4 46.85 188.7 99.08 0 0-69.6 55.7-101 97.48-31.3 41.78-250.6 323.79-557 243.71-306.4-80.08-348.2-226.3-330.7-351.65 17.4-125.33-24.7-417.23 100.8-459.28" transform="matrix(.17481 0 0 -.17481 0 2186.667)"/><path style="fill:#233862;fill-opacity:1;fill-rule:nonzero;stroke:none" d="m8025.21 11117.6 345.73 33c27.72 2.7 53.94-13.1 64.64-38.8l261.02-628.3c16.38-39.4-10.07-83.5-52.58-87.5l-359.74-34.4c-28.21-2.7-54.78 13.6-65.12 40l-247.01 629.7c-15.39 39.2 11.07 82.3 53.06 86.3" transform="matrix(.13333 0 0 -.13333 0 2186.667)"/><path style="fill:#2b478b;fill-opacity:1;fill-rule:nonzero;stroke:none" d="m12409.1 2815.9-183.5-97.4s-991.9 1051.8-1230.4 2061.2c-42.6 180.2-59.8 357.9-41.6 526.6 0 0-14.4 45.7-39.6 126.5-1.1 3.5-2.3 7.2-3.4 10.8-11 35.5-24.3 77.2-39 124.4-47.9 152.5-113.7 361.3-188.6 598.9-172.7 546.81-567.6 1780.07-736.34 2293.06l1212.84 438.8s137.7-314.14 335.7-1167.96c30.5-111.45 61-234.68 89.5-368.94 32.4-152.09 62.6-318.38 87.7-498.03 42.5-304.35 70.9-646.73 72.7-1022.33.7-152.8-3.1-311.2-12.1-474.7-6.7-119.8 11.2-279.5 44.6-461.2 152.8-830.7 631.5-2089.7 631.5-2089.7" transform="matrix(.13333 0 0 -.13333 0 2186.667)"/><path style="fill:#233862;fill-opacity:1;fill-rule:nonzero;stroke:none" d="M13073.1 2351.2h-980.5s-36.7 156.3 27.7 262.8c57 94.1 35.1 147.8-7.1 225.7 44.5-18.2 101.9-34.8 165.2-31.1 48.8 2.8 100.5 24.9 145.8 51.3 42.2-48.2 222.9-253 279.4-293.5 64.1-46.1 349.8-29.7 369.5-215.2M11672.4 6863.83l-761.8-1420.23c-11 35.5-24.3 77.2-39 124.4-47.9 152.5-113.7 361.3-188.6 598.9-172.7 546.81-567.6 1780.07-736.34 2293.06l1212.84 438.8s137.7-314.14 335.7-1167.96c30.5-111.45 61-234.68 89.5-368.94 32.4-152.09 62.6-318.38 87.7-498.03" transform="matrix(.13333 0 0 -.13333 0 2186.667)"/><path style="fill:#ffb27d;fill-opacity:1;fill-rule:nonzero;stroke:none" d="M8370.36 9995.82c-6.08-5.24-296.71 291.88-451.9 456.48l155.45 94.6 848.78-532.8-552.33-18.28" transform="matrix(.13333 0 0 -.13333 0 2186.667)"/><path style="fill:#233862;fill-opacity:1;fill-rule:nonzero;stroke:none" d="M9926.91 2658.1s-22.82-166.5 41.09-306.9h406.3s3 121.2-100.5 273.4c-103.4 152.2-346.89 33.5-346.89 33.5" transform="matrix(.13333 0 0 -.13333 0 2186.667)"/><path style="fill:#2c3a64;fill-opacity:1;fill-rule:nonzero;stroke:none" d="M10727.5 13496.3c5.5 25.9 74.7 304 506.3 244.1 0 0-215.3 11.6-267.9-74.8 0 0 163.6 89.6 274.1 32.3 110.6-57.2 143.6-274.1 132.6-341.6-11.1-67.5-113.9-273.5-191.3-279.1-29.4-2.1-61.4 5.4-90 15.6 14.4-34.3 27.9-71.7 39.8-112.9 110-381.2-126.3-693.9-264.6-630.7-88.7 40.5-142.6-113.5-142.6-113.5l-775.77 888.1s451.07 628.6 779.37 372.5" transform="matrix(.13333 0 0 -.13333 0 2186.667)"/><path style="fill:#ffb27d;fill-opacity:1;fill-rule:nonzero;stroke:none" d="M9933.58 11114.5c101.22-70.2 228.12-128.1 387.42-164.9 597.1-137.9 825.9 366.8 911.9 713.2-81.5 46.6-158.1 56.8-202.3 62.1-43.2 5.1-88.6 8.5-126.2 10.4-67 51.3-166.9 261.5-189 587.8l-28.1-7.5-470.6-128.8s21.5-149.6 32.1-291c8.2-110.6 9.5-216.4-11.5-242.2-36.7-8-58.8-13.2-58.8-13.2s0-.2-.2-.4c-6.3-10.4-142.9-234.9-244.72-525.5" transform="matrix(.13333 0 0 -.13333 0 2186.667)"/><path style="fill:#ed985f;fill-opacity:1;fill-rule:nonzero;stroke:none" d="M10216.7 12186.7s21.6-149.4 32.1-291c266.6 26.7 390.3 280.6 438.5 419.8l-470.6-128.8" transform="matrix(.13333 0 0 -.13333 0 2186.667)"/><path style="fill:#ffb27d;fill-opacity:1;fill-rule:nonzero;stroke:none" d="M10137.1 12046.3s632.8 34.9 605 428.7c-27.8 393.7 35.1 663.4-370.1 657.8-405.24-5.7-473.04-161.5-495.73-295.1-22.68-133.7 95.45-790.3 260.83-791.4" transform="matrix(.13333 0 0 -.13333 0 2186.667)"/><path style="fill:#2c3a64;fill-opacity:1;fill-rule:nonzero;stroke:none" d="M9879.37 13057.9c89.2 125.5 164.93 104.8 208.83 72.1 331.9 214.7 574.6-50.1 574.6-50.1 62.6-279.5 277.9-426.7 277.9-426.7s-110.1-79.4-380.6-30.2c-82.6 15.1-159.2 67.5-225.8 133 120.4-172.4 276-291.7 276-291.7-327.7 123.9-486.8 556-502.8 601.7-36.1-37.4-106.8-118.1-124.67-193.6-24.31-102.5-23.69-309.9-84.34-307.2 0 0-152.91 304.6-19.12 492.7" transform="matrix(.13333 0 0 -.13333 0 2186.667)"/><path style="fill:#ffb27d;fill-opacity:1;fill-rule:nonzero;stroke:none" d="M10034.6 11672.1s1031 250.3 1479.2-119.4l-224-3124.35-2016.21 487.08s56.73 197.7 443.35 723.41c386.66 525.66 218.45 1296.86 317.66 2033.26" transform="matrix(.13333 0 0 -.13333 0 2186.667)"/><path style="fill:#2b478b;fill-opacity:1;fill-rule:nonzero;stroke:none" d="M10635.6 8776.13s-1.2-10.58-3.3-30.77c-.9-8.67-2.1-19.17-3.3-31.4-8.7-80.98-25.1-236.36-46.3-438.39-55.3-529.87-142.2-1380.91-201.3-2052.67-46.3-525.2-75.7-940.9-59.8-1007.6 47.7-200.8 0-2601.9 0-2601.9-171.4-82.1-431.2 0-431.2 0s-456.46 2163.7-392.56 2464.4c63.91 300.7-42.72 557.5-42.72 557.5-354.41 1650.46-315.61 2565.23-245.22 3003.16 20.45 127.36 43.64 214.35 60.62 267.4 14.33 45.1 24.27 65.72 24.27 65.72 781.81 210.35 1340.81-195.45 1340.81-195.45" transform="matrix(.13333 0 0 -.13333 0 2186.667)"/><path style="fill:#233862;fill-opacity:1;fill-rule:nonzero;stroke:none" d="M11289.8 8428.39c-240.4-100.97-480.1-145.16-707.1-152.82-207.5-6.95-404.4 16.62-581.9 55.23-386.65 84.08-681.07 239.74-790.9 307.66 20.45 127.36 43.64 214.35 60.62 267.4 238.01 169.44 826.48 7.3 1307.28-172.46 17.1-6.48 34.2-12.96 51.2-19.44 368.2-140.78 660.8-285.57 660.8-285.57" transform="matrix(.13333 0 0 -.13333 0 2186.667)"/><path style="fill:#f99746;fill-opacity:1;fill-rule:nonzero;stroke:none" d="M11652.8 10661.5c-49.7-375.8-248.8-835.77-319.9-1083.36 0 0 118.8-859.53 5.3-1095.52-12.8-26.93-28.8-45.75-48.4-54.23-420.4-183.13-2057.62-5.29-2126.73 522.84-25.12 191.89 623.62 866.92 661.42 948.81 15.71 33.88 32.4 143.66-43.64 371.26-107.82-332.35-306.93-716.16-507.23-781.62-220.1-72.02-1090.42 576.52-1090.42 576.52s-5.02 78.8 105 153.3c70.75 47.9 233.25 64.1 233.25 64.1l556.53-249.1c69.84 119.5 243.85 946.3 438.12 1319.5 146.07 280.5 536.1 321.2 536.1 321.2s162.3-257.5 554.9-221c392.5 36.5 464.3 276.8 464.3 276.8s348.2-46.2 455.4-132.8c18.6-15 191.3-444.2 126-936.7" transform="matrix(.13333 0 0 -.13333 0 2186.667)"/><path style="fill:#ed7d2b;fill-opacity:1;fill-rule:nonzero;stroke:none" d="M11332.9 9578.14s118.8-859.53 5.3-1095.52c-306.3 153.74-705.5 485.59-584 1004.14 176.5 753.34 898.6 1174.74 898.6 1174.74-49.7-375.8-248.8-835.77-319.9-1083.36" transform="matrix(.13333 0 0 -.13333 0 2186.667)"/><path style="fill:#ffb27d;fill-opacity:1;fill-rule:nonzero;stroke:none" d="M11071.4 10155.9s-436-63.2-470.8-95.7c-34.8-32.5-155.1-221.68-140.3-287.47 14.9-65.77 13.3-133.58 40-128.91 26.7 4.68 113.8 171.85 146.7 179.52 32.9 7.68 60 30.2 64 15.52s-66.9-85-63.4-105c3.5-20 59.3 3.42 84.4 42.22 25.1 38.81 87.7 58.02 97.1 82.19 9.4 24.17 52.6 104.22 111.3 100.55 58.7-3.66 131 197.08 131 197.08" transform="matrix(.13333 0 0 -.13333 0 2186.667)"/><path style="fill:#ffb27d;fill-opacity:1;fill-rule:nonzero;stroke:none" d="m11495.6 10173.1-424.2-17.2-145.1-197.85 577-19.3-7.7 234.35" transform="matrix(.13333 0 0 -.13333 0 2186.667)"/><path style="fill:#f99746;fill-opacity:1;fill-rule:nonzero;stroke:none" d="M11071.4 11731s505.7-59.9 644.9-276.8c176-274.1 797.9-1183.3 784.5-1458.46 0 0-387.4-154.34-1429-71.61 0 0-18.9 157.57 200.2 283.97 0 0 559.2 76.6 620.8 130.8l-415.2 441.2-406.2 950.9" transform="matrix(.13333 0 0 -.13333 0 2186.667)"/><path style="fill:#2b478b;fill-opacity:1;fill-rule:nonzero;stroke:none" d="m7949.88 11110.8 345.74 33c27.72 2.6 53.95-13.1 64.63-38.9l261.03-628.3c16.38-39.4-10.06-83.4-52.57-87.5l-359.75-34.3c-28.21-2.7-54.78 13.6-65.13 40l-246.99 629.6c-15.4 39.3 11.07 82.4 53.04 86.4" transform="matrix(.13333 0 0 -.13333 0 2186.667)"/><path style="fill:#ffb27d;fill-opacity:1;fill-rule:nonzero;stroke:none" d="M7918.46 10452.3s-91.3 157.5-84.45 196.3c6.85 38.8 101.33 218.7 149.88 236.6 86.72 31.9 208.44 51.7 174.98-39.6-22.11-60.3-109.56-147.6-94.35-175 15.22-27.4 9.39-123.7 9.39-123.7l-155.45-94.6" transform="matrix(.13333 0 0 -.13333 0 2186.667)"/><path style="fill:#f9ddbf;fill-opacity:1;fill-rule:nonzero;stroke:none" d="M16285.4 2747.93c-93-595.87-701.1-975.35-1324.7-975.35h-1235.3l96.6 3473.08s1178.6 378.31 1474.7 18.43c259.3-315.26 962.6-1563.26 999.6-2301.88 3.7-74.15-.1-145.68-10.9-214.28" transform="matrix(.17765 0 0 -.17765 0 2186.667)"/><path style="fill:#c6916d;fill-opacity:1;fill-rule:nonzero;stroke:none" d="M13516.9 5069.41s1731.9 883.97 2059.9 306.54c174.1-306.6 653.5-1529.81 688.8-2297.43 34.4-745.86-611.8-1236.26-1276.5-1236.26h-1180.6l-291.6 3227.15" transform="matrix(.17093 0 0 -.17093 0 2186.667)"/><path style="fill:#efcbab;fill-opacity:1;fill-rule:nonzero;stroke:none" d="M16272.3 5382.9c-17.1-88.3-182-170.27-426.6-242.71-43.1-12.84-88.6-25.31-136.4-37.5-832.5-212.64-2307-331.39-2447.6-268.67-194.2 86.65-1386.2 4321.93-1386.2 4321.93s1137.8 42.77 2041.5 63.61c309.2 7.04 590.8 11.55 790.3 10.97 24.2-.09 47-1.67 68.5-4.77 86.3-12.3 150.3-48.31 201.1-102.88 145.5-156.37 181.5-465.19 316.2-806.56 133.2-337.52 296.7-758.75 451.7-1176.81 40-107.73 79.4-215.22 117.5-321.11 10.9-29.88 21.5-59.6 32.1-89.15 229.2-641.15 405.6-1203.31 377.9-1346.35" transform="matrix(.14541 0 0 -.14541 0 2186.667)"/><path style="fill:#eac3a0;fill-opacity:1;fill-rule:nonzero;stroke:none" d="M16300 2750.4c-93-596.4-701.6-976.22-1325.8-976.22h-606.6c404.5 274.12 770.2 1118.95 1932.4 976.22" transform="matrix(.17749 0 0 -.17749 0 2186.667)"/><path style="fill:#e0b594;fill-opacity:1;fill-rule:nonzero;stroke:none" d="M15894.4 6729.25c-37.8 6.2-86.6 14.23-142 23.61-11.5 11.79-20.6 23.68-26 35.56-22.3 48.98-7.1 189.69 18.4 351.09-155 418.06-318.5 839.29-451.7 1176.81-134.7 341.37-170.7 650.19-316.2 806.56-50.8 54.57-114.8 90.58-201.1 102.88-120.2-1.67-247-3.77-377.8-6.2-46.5-92.17-126.5-179.13-264.9-251.96-617.4-324.97-159.5-994.65-159.5-994.65 4.5-3.02 245.1-481.18 245.1-481.18-.8 33.41 31.6 93.16 87 169.26 41-285.87 107.6-577.77 187.2-786.71-43.6-220.75-155.5-549.56-215.5-801.03-47.9-200.58-62.7-351.76 16.4-359.19 8.9-.82 18.8-.73 29.5 0-5-69.96 8.7-143.59 48.2-219.88 154.7-299.11 899-352.93 1474.2-354.03 244.6 72.44 409.5 154.41 426.6 242.71 27.7 143.04-148.7 705.2-377.9 1346.35" transform="matrix(.14541 0 0 -.14541 0 2186.667)"/><path style="fill:#d39e7a;fill-opacity:1;fill-rule:nonzero;stroke:none" d="M15979.5 2406.66c-248.8-345.72-630.5-567.3-1055.7-560.41l-1827.8-.94-875.7-.47 985.3 3245s2493.7 248.11 2801.2-82.74c142.8-153.6 223-849.19 267.9-1550.35 25.3-395.38-89.8-764.99-295.2-1050.09" transform="matrix(.17023 0 0 -.17023 0 2186.667)"/><path style="fill:#c6916d;fill-opacity:1;fill-rule:nonzero;stroke:none" d="M16300 2454.93c-253.8-352.65-643.2-578.68-1076.8-571.65l-1864.5-.96c219.4 184.16 909.4 706.76 1648.2 682.07 560-18.78 1004.8-10.79 1293.1-109.46" transform="matrix(.16689 0 0 -.16689 0 2186.667)"/><path style="fill:#f4a269;fill-opacity:1;fill-rule:nonzero;stroke:none" d="M14979.7 8029.61s165.7-245.14 260.2-760.47c82.7-451.34 155.3-617.97 274.8-710.53 119.5-92.56 785.3-365.83 785.3-365.83l-49.8-116.63s-975.9 132.91-1085.5 296.01c-109.6 163.1-527.5 1126.75-495.1 1348.7 32.5 221.93 310.1 308.75 310.1 308.75" transform="matrix(.15606 0 0 -.15606 0 2186.667)"/><path style="fill:#ffb27d;fill-opacity:1;fill-rule:nonzero;stroke:none" d="M15481.7 2358.52c-7.7-84.83 110.3-105.47 247.2-112.25 136.7-6.85 95.4-34.87 282.9-68.76 187.4-33.97 262.5 17.28 276.1 42.64 12.1 22.47-75.1 57.65-168 97.32-11.6 4.95-23.4 10.06-35 15.24-104.6 45.92-163.2 139.66-244.8 226.63-77.1 82.32-150.5 345.88-150.5 345.88l-254.7 54.45s71.5-237.29 96.3-338.58c14.7-59.55-6.9-126.18-26-176.9-10.3-27.57-20.7-55.74-23.5-85.67" transform="matrix(.17509 0 0 -.17509 0 2186.667)"/><path style="fill:#c65447;fill-opacity:1;fill-rule:nonzero;stroke:none" d="M15728.9 2246.27c136.7-6.85 95.4-34.87 282.9-68.76 187.4-33.97 262.5 17.28 276.1 42.64 12.1 22.47-75.1 57.65-168 97.32l-1.4-1.59s-131.9-44.7-283.9-3.36c-124.1 33.66-244 107.76-329.4 131.67-10.3-27.57-20.7-55.74-23.5-85.67-7.7-84.83 110.3-105.47 247.2-112.25" transform="matrix(.17509 0 0 -.17509 0 2186.667)"/><path style="fill:#163560;fill-opacity:1;fill-rule:nonzero;stroke:none" d="M13366.4 5554.34s1747.8 131.55 2076.8-76.12c329-207.67 856.8-2626.6 856.8-2626.6s-32.6-26.1-105.4-33.97c-67.6-7.31-216.6 32.48-216.6 32.48s-758.4 1082.27-811.9 1354.97c-53.3 272.61-40.3 515.97-161.9 522.42-121.7 6.52-1638.1-184.31-1867.5 219.77-229.4 404.08-39.7 804.1-39.7 804.1l269.4-197.05" transform="matrix(.16957 0 0 -.16957 0 2186.667)"/><path style="fill:#ffb27d;fill-opacity:1;fill-rule:nonzero;stroke:none" d="M15448 2173.01c-8.2-88.34 114.8-109.83 257.2-116.97 142.5-7.06 99.4-36.25 294.6-71.61 195.3-35.29 273.5 18.08 287.6 44.48 12.6 23.4-78.2 59.96-174.9 101.36-12.2 5.15-24.3 10.46-36.5 15.78-108.9 47.9-170 145.52-254.8 236.01-80.5 85.72-156.7 360.27-156.7 360.27l-265.3 56.63s74.5-247.03 100.3-352.51c15.2-62.02-7.2-131.41-27.2-184.22-10.7-28.71-21.6-58.13-24.3-89.22" transform="matrix(.16813 0 0 -.16813 0 2186.667)"/><path style="fill:#c65447;fill-opacity:1;fill-rule:nonzero;stroke:none" d="M15705.2 2056.04c142.5-7.06 99.4-36.25 294.6-71.61 195.3-35.29 273.5 18.08 287.6 44.48 12.6 23.4-78.2 59.96-174.9 101.36l-1.5-1.67s-137.3-46.63-295.7-3.49c-129.1 35.06-254 112.22-343 137.12-10.7-28.71-21.6-58.13-24.3-89.22-8.2-88.34 114.8-109.83 257.2-116.97" transform="matrix(.16813 0 0 -.16813 0 2186.667)"/><path style="fill:#1c468a;fill-opacity:1;fill-rule:nonzero;stroke:none" d="M13563.8 5671.75s1617-76.53 1951-305.99c334.1-229.47 785.2-2768.13 785.2-2768.13s-35-25.8-111-31.04c-70.7-4.91-224.2 42.58-224.2 42.58s-745.3 1157.02-789.9 1442.9c-44.5 285.96-21.1 538.59-147.4 550.3-126.3 11.71-1712.1-125.45-1934.5 304.38-222.3 429.81 470.8 765 470.8 765" transform="matrix(.16282 0 0 -.16282 0 2186.667)"/><path style="fill:#b5453c;fill-opacity:1;fill-rule:nonzero;stroke:none" d="M15961.5 10419.1c-81 53.5-181.6 65.4-252.4 65.9 19.4 17.6 55.7 22 55.7 22-43.4 9.5-143.9-27.4-143.9-27.4-593.1 275.1-748.5-614.79-749.6-823.87-1.2-209.05-15.7-448.83-332-615.32-622.4-327.58-160.6-1002.69-160.6-1002.69 4.5-3.08 247.1-485.15 247.1-485.15-4.2 169.3 831.3 1005.51 1254.2 1244.44 108.2 138.59 160.3 392.7 164.3 412.71-30.5-202.19-72.9-313.93-108.3-376.09 364 292.83 240.2 1443.77 25.5 1585.47" transform="matrix(.14424 0 0 -.14424 0 2186.667)"/><path style="fill:#ffb27d;fill-opacity:1;fill-rule:nonzero;stroke:none" d="M15490.8 9144.45s163.9-7.1 336.7-23.51c117.5-11.15 242.8-24.08 308.9-51.76 163.6-68.38 146.5-357.99-196.8-304.36-343.2 53.64-472.9 293.75-448.8 379.63" transform="matrix(.14185 0 0 -.14185 0 2186.667)"/><path style="fill:#ffb27d;fill-opacity:1;fill-rule:nonzero;stroke:none" d="M16250.6 9004.54c2-1.07 49.4-251.12-177.1-241.12-148.8 6.56-469.5 186.51-441.2 313.84 13.5 60.53 125.9 217.57 148.5 576.01l27-7.24 455.3-122.09s-20.2-144.47-29.7-281.2c-8-114.81-8.2-224.18 17.2-238.2" transform="matrix(.14073 0 0 -.14073 0 2186.667)"/><path style="fill:#f4a269;fill-opacity:1;fill-rule:nonzero;stroke:none" d="M16300 9545.58s-20.2-144.8-29.7-281.84c-258.2 24.54-379.2 269.66-426.6 404.21l456.3-122.37" transform="matrix(.1404 0 0 -.1404 0 2186.667)"/><path style="fill:#b5453c;fill-opacity:1;fill-rule:nonzero;stroke:none" d="M15388.2 9468.51s-118.2 217.45-138 397.96c-14 128.89 82.3 596.73 552.2 497.13 0 0 136.9-22.8 260.6-118.9 98.4-76.5 237-236.6 43.3-637.51l-52.4-136.3-665.7-2.38" transform="matrix(.14416 0 0 -.14416 0 2186.667)"/><path style="fill:#ffb27d;fill-opacity:1;fill-rule:nonzero;stroke:none" d="M16034.5 9212.85s-600 30.06-575.4 403.39c24.4 373.32-36.6 628.66 347.6 625.26 384.1-3.4 449-150.8 471.2-277.38 22.1-126.59-86.7-749.48-243.4-751.27" transform="matrix(.14341 0 0 -.14341 0 2186.667)"/><path style="fill:#b5453c;fill-opacity:1;fill-rule:nonzero;stroke:none" d="M16300 10372.3s-195.9-432.88-455.6-481.51c-259.6-48.62-365.7 27.15-365.7 27.15s206.1 142.46 264.8 411.26c0 0 445.1 262.7 556.5 43.1" transform="matrix(.14148 0 0 -.14148 0 2186.667)"/><path style="fill:#b5453c;fill-opacity:1;fill-rule:nonzero;stroke:none" d="M15937.8 10136.4s115.3-105.3 138.7-201.77c23.4-96.44 23.8-291.82 80.9-288.98 0 0 142.6 287.64 15.6 464.15-134.5 187.3-235.2 26.6-235.2 26.6" transform="matrix(.1443 0 0 -.1443 0 2186.667)"/><path style="fill:#1c468a;fill-opacity:1;fill-rule:nonzero;stroke:none" d="M16243.7 6382.4c-47.4-56.68-195.4-74.08-353.6-100.11-124.5-20.56-255.3-46.34-348.2-100.96-211.3-123.98-901.3-543.06-1103.4-524-78.5 7.44-63.8 157.09-16.3 355.67 74.7 313.63 231.2 749.16 231.2 938.54 0 103.36 34.4 347.94 80.3 627.59 3.7 22.53 7.5 45.25 11.3 68.2 90.9 543.7 216.7 1184.77 216.7 1184.77s140.4-306.15 413.7-306.15c273.4 0 209.9 233.47 209.9 233.47s249.5-29.34 308.4-92.82c59-63.49 208.5-337.91 238.2-412.75 0 0 6-95.23-229.8-140.56 0 0 57.5-258.51 64.3-430.82 5-127.3-86.9-525.72-113.3-773.53-9.5-87.77-10.7-156.65 3.6-187.89 18.2-40.03 77.3-79.9 144.3-119.01 133.3-77.57 299-152.25 242.7-219.64" transform="matrix(.14687 0 0 -.14687 0 2186.667)"/><path style="fill:#163560;fill-opacity:1;fill-rule:nonzero;stroke:none" d="M16147.3 6662.38c152.7-260.37-414.2-338.66-508-393.78-213.1-125.12-864.9-578.81-1068.9-559.57-79.1 7.51-64.3 158.53-16.4 358.93 75.4 316.49 233.4 756 233.4 947.12 0 104.3 34.7 351.11 80.9 633.31l245.8 235.86s263.2-680.31 514.1-791.81c131.5-58.38 268.8-96.93 369.7-120.36-9.5-88.57-10.7-158.08 3.7-189.6 18.4-40.4 78-80.64 145.7-120.1" transform="matrix(.14554 0 0 -.14554 0 2186.667)"/><path style="fill:#ffb27d;fill-opacity:1;fill-rule:nonzero;stroke:none" d="M14972.6 8679.97s-209.4 127.13-411.7-114.03c-202.4-241.14 143.8-1964.95 443.7-2053.5 333.1-98.36 1295.4 15.75 1295.4 15.75l-18.5 150.38s-1024.5 196.41-1067 251.14c-42.6 54.74-135.5 1722.46-241.9 1750.26" transform="matrix(.14603 0 0 -.14603 0 2186.667)"/><path style="fill:#1c468a;fill-opacity:1;fill-rule:nonzero;stroke:none" d="M16172.5 9546.89s-462-41.68-596.1-193.63c-134.3-151.98-173.4-563.76-173.4-563.76s406.8-328.43 897-200.98l-127.5 958.37" transform="matrix(.13587 0 0 -.13587 0 2186.667)"/><path style="fill:#9e332e;fill-opacity:1;fill-rule:nonzero;stroke:none" d="M16300 6129.24h-545.5v64.44h545.5v-64.44" transform="matrix(.15201 0 0 -.15201 0 2186.667)"/><path style="fill:#9e332e;fill-opacity:1;fill-rule:nonzero;stroke:none" d="M14829.1 5624.16c4.9 19.53 459.5 733.3 459.5 733.3H16300l-507.4-714.14-963.5-19.16" transform="matrix(.1659 0 0 -.1659 0 2186.667)"/><path style="fill:#b5453c;fill-opacity:1;fill-rule:nonzero;stroke:none" d="M14871.7 5616.07c4.9 19.54 460.9 741.39 460.9 741.39h967.4l-482.7-741.39h-945.6" transform="matrix(.1659 0 0 -.1659 0 2186.667)"/><path style="fill:#9e332e;fill-opacity:1;fill-rule:nonzero;stroke:none" d="M16289.7 6199.46c-10.3-29.97-43-54.25-73-54.25-29.9 0-45.8 24.28-35.5 54.25 10.3 29.97 43 54.26 72.9 54.26 30 0 45.9-24.29 35.6-54.26" transform="matrix(.16015 0 0 -.16015 0 2186.667)"/><path style="fill:#ffb27d;fill-opacity:1;fill-rule:nonzero;stroke:none" d="M15700.3 6482.09s323.3 62.58 359.9 46.94c36.4-15.65 239.8-198.15 218.9-234.66-20.8-36.5-104.2-62.57-198.1-31.28-93.9 31.28-297.2 46.93-333.7 93.85-36.5 46.94-47 125.15-47 125.15" transform="matrix(.15065 0 0 -.15065 0 2186.667)"/><path style="fill:#f9ddbf;fill-opacity:1;fill-rule:nonzero;stroke:none" d="M16277.7 3190.42c-117.6-678.68-763.1-1108.81-1424.8-1108.81h-1334l104.4 4078.57s1272.8 444.27 1592.5 21.65c280-370.22 1039.6-1835.8 1079.5-2703.19 4.7-100.39-1.6-196.55-17.6-288.22" transform="matrix(.15127 0 0 -.15127 0 2186.667)"/><path style="fill:#eac3a0;fill-opacity:1;fill-rule:nonzero;stroke:none" d="M16300 3194.79c-117.7-679.61-764.2-1110.32-1426.7-1110.32h-1069.1c500.5 339.18 1174.2 1276.25 2495.8 1110.32" transform="matrix(.15107 0 0 -.15107 0 2186.667)"/><path style="fill:#d39e7a;fill-opacity:1;fill-rule:nonzero;stroke:none" d="M14871.6 2181.72c-10.5-.74-20.9-1.39-31.3-2.03-22.1-1.11-44.3-1.94-66.5-2.22-7.3-.09-14.8-.18-22.2-.18h-1396.1l-.1.64c-26.6-.36-53.5-.64-80.6-1.01-143.8-1.75-293.9-3.42-433.2-4.61-23.3-.28-46.3-.47-69-.65-8.4 0-16.9 0-25.1-.09-137.6-.92-259.3-1.38-346.1-.74-122 .83-237.1 9.41-345.3 26.57-139.6 22.04-267.7 58.3-384.7 110.05-42.3 18.63-83.1 39.39-122.5 62.17-52.9 30.44-103.5 64.94-151.3 103.22-123.9 98.98-231.1 224.16-322.1 378.21-63.5 107.19-119.2 228.5-167.4 364.75-60.7 170.84-109.4 365.29-146.8 585.21-53.7 313.91-84.4 679.39-93.7 1101.97-3.7 170.19-3.9 349.61-.8 538.62 5 302.02 18.6 628.59 40.4 981.04 30.7 494.92 77.6 1040.89 139.6 1641.85 56.5 548.91 121.6 932.6 216.5 1020.02 139.9 128.92 431.6 180.8 634.5 201.6h.2c126 12.88 217.5 13.89 217.5 13.89 248 0 468.4-178.02 548-442.54 162-538.63 451.2-1501.65 752.3-2508.93 1.5-5.06 3.1-10.12 4.6-15.17 17.2-57.85 34.6-115.87 51.9-173.98 2.7-8.85 5.3-17.69 8-26.54 17 7.59 34.6 15.51 52.8 23.51.5.33 1.1.58 1.8.84 72.2 31.99 153.9 67.03 242.1 102.74 45.7 18.52 93.1 37.29 142 56 137.7 52.81 286.5 105.02 437.2 149.99 66.9 20.04 134.2 38.66 201.2 55.16 86 21.31 171.3 39.33 254.4 52.72 2.9.5 5.2.85 7.2 1.18 9.9 1.6 19.6 3.03 29.4 4.46 358.5 52.63 669.6 16.08 798.3-210.96 206-363.65 772.8-1814.38 814.6-2724.84 38.7-839.54-647.8-1406.21-1389.7-1461.92" transform="matrix(.14454 0 0 -.14454 0 2186.667)"/><path style="fill:#f9ddbf;fill-opacity:1;fill-rule:nonzero;stroke:none" d="M13693.7 6463.4s-776.8 3164.86-832.9 3430.86c-25 118.54-102 161.44-179.5 172.44 136.5 13.9 235.8 15 235.8 15 268.8 0 507.7-192.38 594-478.31 188.1-623.64 534.5-1773.68 885.5-2945.04-17.8.46-702.9-194.95-702.9-194.95" transform="matrix(.13333 0 0 -.13333 0 2186.667)"/><path style="fill:#c6916d;fill-opacity:1;fill-rule:nonzero;stroke:none" d="M16100.1 4805.41c-202.2 334.14-32.4 396.87-63.4 1145.46-31.1 748.5-379.6 686.71-524.2 831.42-26.4 26.63-48.9 80.97-70.1 153.77-10.3-1.51-20.6-3.03-31-4.71-2.2-.35-4.6-.72-7.6-1.25-87.6-14.1-177.6-33.1-268.2-55.57-70.6-17.4-141.6-37.02-212.1-58.15-158.9-47.41-315.8-102.45-461-158.12-51.5-19.72-101.4-39.51-149.6-59.03-125.1-785.27-318.6-4304.32-318.6-4304.32 1.5-1.65 3.1-3.31 4.7-4.86 158 1.36 328.8 3.3 491.3 5.25 23.2.29 46.1.58 69 .87l.1-.68h1110.7c1.5.78 3.1 1.75 4.5 2.63 1 .58 2.1 1.26 3 1.85 298.4 185.06 231.8 556.25 161.5 788.96-28.2 248.75-138.2 540.29-228.1 811.22 27.9 82.47 67.1 129.63 235.2 191.67 186.7 68.75 235.7 362.64 235.7 362.64 49.9-131.39-64.2-312.75-67.2-317.51 6.4 7.58 285.3 338.22 85.4 668.46" transform="matrix(.1371 0 0 -.1371 0 2186.667)"/><path style="fill:#ed985f;fill-opacity:1;fill-rule:nonzero;stroke:none" d="M14004.4 6501.44S12852.1 5999.4 12643 6008.6c-209.2 9.1-1498 392.52-1498 392.52l32.8-221.72s994.6-572 1342.3-604.5c342.4-31.9 1513 307.3 1626 378.9 113 71.6 186.7 475.16-141.7 547.64" transform="matrix(.13333 0 0 -.13333 0 2186.667)"/><path style="fill:#233862;fill-opacity:1;fill-rule:nonzero;stroke:none" d="M14177.5 8348.22s425.1 80.74 636.8-73.86c383.5-280.05 404.1-1245.57 547.8-1389.4 143.7-143.83 490.2-82.46 521.1-826.66 30.8-744.2-138-806.4 63-1138.7 201-332.2-85-664.7-85-664.7s117.1 183.4 66.9 315.8c0 0-48.7-292.2-234.3-360.6-185.6-68.5-213.1-118.7-242.7-219.1 0 0-1583.3 811.3-1585 1386.7-1.8 575.5-311.6 1145.48-159.4 1394.85 0 0-67.8-106.68-76.1-225.36 0 0-91.3 174.94 66.9 337.77 158.3 162.84-185.6 499.84-134.7 890.13 35 267.94 223 561.46 614.7 573.13" transform="matrix(.13333 0 0 -.13333 0 2186.667)"/><path style="fill:#ffb27d;fill-opacity:1;fill-rule:nonzero;stroke:none" d="M13864.3 5953.2c101.2-70.2 228.1-128.1 387.4-164.9 597.1-137.9 826 366.7 911.9 713.14-81.4 46.6-158 56.87-202.3 62.14-43.1 5.1-88.5 8.48-126.1 10.35-67.1 51.35-167 261.53-189.1 587.88l-28.1-7.54-470.6-128.8s21.6-149.59 32.2-290.98c8.1-110.64 9.4-216.38-11.5-242.25-36.8-7.97-58.8-13.17-58.8-13.17s0-.15-.2-.45c-6.4-10.35-142.9-234.92-244.8-525.42" transform="matrix(.13333 0 0 -.13333 0 2186.667)"/><path style="fill:#ed985f;fill-opacity:1;fill-rule:nonzero;stroke:none" d="M14147.4 7025.38s21.7-149.46 32.1-290.97c266.6 26.69 390.4 280.53 438.5 419.76l-470.6-128.79" transform="matrix(.13333 0 0 -.13333 0 2186.667)"/><path style="fill:#ffb27d;fill-opacity:1;fill-rule:nonzero;stroke:none" d="M14067.8 6884.96s632.8 34.92 605 428.68c-27.8 393.75 35.2 663.45-370.1 657.81-405.2-5.66-473-161.45-495.7-295.13-22.7-133.68 95.5-790.28 260.8-791.36" transform="matrix(.13333 0 0 -.13333 0 2186.667)"/><path style="fill:#233862;fill-opacity:1;fill-rule:nonzero;stroke:none" d="M13810.1 7896.58c89.2 125.45 164.9 104.75 208.9 72.11 331.8 214.73 574.6-50.13 574.6-50.13 62.5-279.47 277.9-426.69 277.9-426.69s-110.1-79.42-380.6-30.18c-82.7 15.05-159.2 67.51-225.8 133.03 120.4-172.46 276-291.78 276-291.78-327.8 123.9-486.8 555.99-502.9 601.74-36.1-37.42-106.7-118.15-124.6-193.59-24.3-102.53-129.2-262.79-189.9-260.09 0 0-47.4 257.48 86.4 445.58" transform="matrix(.13333 0 0 -.13333 0 2186.667)"/><path style="fill:#b5453c;fill-opacity:1;fill-rule:nonzero;stroke:none" d="M15343.9 4666.5c57.1 292.2 243.4 1459.4 57.1 1834.96-66.9 134.93-329.5 147.09-617.6 135.26-89.7-57.87-431.3-276.62-571.6-249.32-1.5.3-4.2 1-7.8 1.9-66.1 16.5-91.1 62.93-35.9 102.94.1.08-142.7 13.77-319.9-19.6-100.1-18.85-370.1-158.54-370.1-158.54s136-245.6 336.4-330.4c-34.1-304.9 16.6-439.4 333-1143.7 267.3-595.3-36.1-1131.3-36.1-1131.3s1573.5-1265.2 1582.3-621c6.6 485-422.9 1205.4-349.8 1578.8" transform="matrix(.13333 0 0 -.13333 0 2186.667)"/><path style="fill:#dd6d22;fill-opacity:1;fill-rule:nonzero;stroke:none" d="M14033.4 2333c-85.6 9.7-162.6 56.5-210.5 128.1-7.6 11.4-15.7 23.6-24.3 36.7-179.1 271.1-248.8 1101.5-651.7 1986.1-98.1 215.4-450.4 254.1-546.4 497.6 0 0-236.4 789.1 452.5 812.4 688.9 23.3 1845-2195.7 1863.2-2428.4 17.7-225.4 455.5-1183.5-882.8-1032.5" transform="matrix(.13333 0 0 -.13333 0 2186.667)"/><path style="fill:#9e332e;fill-opacity:1;fill-rule:nonzero;stroke:none" d="M11295.3 2351.2h980.5s36.7 156.3-27.7 262.8c-57 94.1-35.2 147.8 7 225.7-44.4-18.2-101.8-34.8-165.1-31.1-48.8 2.8-100.5 24.9-145.8 51.3-42.2-48.2-222.9-253-279.4-293.5-64.1-46.1-349.8-29.7-369.5-215.2M15240.5 6195.5s127.6-1161.1-700-1404.4c-827.7-243.2-1062.6 1068.3-394.4 1162.7 668.3 94.3 1094.4 241.7 1094.4 241.7" transform="matrix(.13333 0 0 -.13333 0 2186.667)"/><path style="fill:#ed7d2b;fill-opacity:1;fill-rule:nonzero;stroke:none" d="M12578.1 5565.8c-59.1-442.6-289.6-1839.7-696.4-2521.4-131.1-219.7 330.4-342.9 332.9-342.3 61.9 16.2 165 114.9 212.5 157.8 330.2 297.5 1000.5 1140.2 1000.5 1815.8 0 329.4 5.8 958.5-233.7 1118.4-147.5 98.4-592.4-52.5-615.8-228.3" transform="matrix(.13333 0 0 -.13333 0 2186.667)"/><path style="fill:#f99746;fill-opacity:1;fill-rule:nonzero;stroke:none" d="M14618.1 2351.2s-36.4 50.5-99.7 146.6c-75.4 114.2-158.9 338.9-260.1 627.1-106.4 302.4-232.5 674.5-390.2 1061.7-48.7 119.5-100.3 240.5-155.3 361.3-98.1 215.3-368.1 185.6-464.1 429 0 0-374.8 844 314.1 867.3 688.9 23.3 1998-2257.8 2073.2-2478.7 82.3-241.8 484.1-1246.1-1017.9-1014.3" transform="matrix(.13333 0 0 -.13333 0 2186.667)"/><path style="fill:#b5453c;fill-opacity:1;fill-rule:nonzero;stroke:none" d="M12015.1 2351.2h980.5s36.6 156.3-27.7 262.8c-57 94.1-35.2 147.8 7 225.7-44.4-18.2-101.9-34.8-165.1-31.1-48.9 2.8-100.5 24.9-145.8 51.3-42.2-48.2-222.9-253-279.4-293.5-64.1-46.1-349.8-29.7-369.5-215.2" transform="matrix(.13333 0 0 -.13333 0 2186.667)"/><path style="fill:#ed7d2b;fill-opacity:1;fill-rule:nonzero;stroke:none" d="M14258.3 3124.9c-106.4 302.4-232.5 674.5-390.2 1061.7 41.2 293.3 130 550 279.4 653.4 0 0 362.3-1122.5 110.8-1715.1" transform="matrix(.13333 0 0 -.13333 0 2186.667)"/><path style="fill:#f99746;fill-opacity:1;fill-rule:nonzero;stroke:none" d="M13150.4 5597.2c-59-442.7-142.2-1871.1-548.9-2552.8-131.1-219.7 330.4-342.9 332.9-342.3 61.9 16.2 165 114.9 212.5 157.8 330.2 297.5 1000.5 1140.2 1000.5 1815.8 0 329.4-386.6 932.1-626.1 1092-147.5 98.4-347.4 5.3-370.9-170.5" transform="matrix(.13333 0 0 -.13333 0 2186.667)"/><path style="fill:#9e332e;fill-opacity:1;fill-rule:nonzero;stroke:none" d="m11027.9 6971.54 1004.2 106.65c29.2 3.11 56.9-13.89 67.4-41.39l359.3-944.1c15.7-41.3-13.7-86-58-87.8l-996.4-40.2c-27.1-1.1-51.9 14.8-62.4 39.8l-367 877.58c-16.8 40.03 9.8 84.87 52.9 89.46" transform="matrix(.13333 0 0 -.13333 0 2186.667)"/><path style="fill:#b5453c;fill-opacity:1;fill-rule:nonzero;stroke:none" d="m10940.7 6962.41 1004.1 106.65c29.3 3.11 57-13.88 67.5-41.39l359.2-944.07c15.8-41.4-13.7-86-57.9-87.8l-996.4-40.2c-27.1-1.1-52 14.8-62.4 39.8l-367.1 877.55c-16.7 40.03 9.8 84.88 53 89.46" transform="matrix(.13333 0 0 -.13333 0 2186.667)"/><path style="fill:#9e332e;fill-opacity:1;fill-rule:nonzero;stroke:none" d="M11497.3 6521.62c-12.3 33.69 5.1 61.01 38.8 61.01 33.7 0 70.9-27.32 83.2-61.01 12.3-33.7-5.1-61.02-38.8-61.02-33.7 0-70.9 27.32-83.2 61.02M10970.7 6873.2c-6 16.56 2.5 29.97 19.1 29.97s34.9-13.41 40.9-29.97-2.5-29.98-19.1-29.98c-16.5 0-34.8 13.42-40.9 29.98" transform="matrix(.13333 0 0 -.13333 0 2186.667)"/><path style="fill:#ffb27d;fill-opacity:1;fill-rule:nonzero;stroke:none" d="M15163.6 6501.44s-1391.7-512.54-1600.8-502.04c-135.2 6.8-1258.6 401.72-1258.6 401.72l-100.9-190.82s1093.5-702.8 1394.1-699.3c593.5 6.9 1594.9 371.2 1708 442.8 113 71.6 186.6 475.16-141.8 547.64" transform="matrix(.13333 0 0 -.13333 0 2186.667)"/><path style="fill:#ffb27d;fill-opacity:1;fill-rule:nonzero;stroke:none" d="M12304.2 6401.12s-100.9 155.21-201.3 159.76c-100.4 4.57-273.9-68.47-333.2-79.87-59.3-11.42-228.2-66.19-178-148.41 50.2-82.1 283-100.4 383.4-82.1 100.4 18.2 228.2-40.2 228.2-40.2l100.9 190.82" transform="matrix(.13333 0 0 -.13333 0 2186.667)"/><path style="fill:#ffb27d;fill-opacity:1;fill-rule:nonzero;stroke:none" d="M12130.3 6556.1s-159.8 73.26-205.4 86.95c-45.6 13.69-36.5-.22-22.8-43.48 13.7-43.24 95.8-84.54 95.8-98.13 0-13.59 132.4 54.66 132.4 54.66M11044.1 6483.28s100.7 159.28 133.7 165.8c100.4 19.84 100.4-112.43 79.1-197.74-22.8-91.54-100.2-177.94-121.6-170.34-21.4 7.5-114.9 118.1-91.2 202.28" transform="matrix(.13333 0 0 -.13333 0 2186.667)"/><path style="fill:#ffb27d;fill-opacity:1;fill-rule:nonzero;stroke:none" d="M11040.3 6451.34s-32.2-178.64 137.5-271.94l-137.5 271.94" transform="matrix(.13333 0 0 -.13333 0 2186.667)"/><path style="fill:#fff;fill-opacity:1;fill-rule:nonzero;stroke:none" d="M13949.3 7111.41s59.9 23.66 228.2 10.02c0 0-8.9-65.68-133.1-72.17-70.3-3.67-95.1 62.15-95.1 62.15" transform="matrix(.13333 0 0 -.13333 0 2186.667)"/><path style="fill:#b5453c;fill-opacity:1;fill-rule:nonzero;stroke:none" d="M14446.6 6248.7s124.5-394.1 551.9-483.7c0 0 706 217.5 354.5 698.4 0 0-347.5 258.21-906.4-214.7" transform="matrix(.13333 0 0 -.13333 0 2186.667)"/><path style="fill:#2e3552;fill-opacity:1;fill-rule:nonzero;stroke:none" d="M16282.4 1266.54H793.487c-9.68 0-17.595 7.9-17.595 17.58v6c0 9.68 7.915 17.63 17.595 17.63H16282.4c9.7 0 17.6-7.95 17.6-17.63v-6c0-9.68-7.9-17.58-17.6-17.58" transform="matrix(.23972 0 0 -.23972 0 2186.667)"/></svg>