<svg xmlns="http://www.w3.org/2000/svg" height="666.667" width="666.667" xml:space="preserve"><defs><clipPath id="a" clipPathUnits="userSpaceOnUse"><path d="M1811.76 375.809H3981.7v3521.55H1811.76z"/></clipPath></defs><path style="fill:#a2d5e7;fill-opacity:1;fill-rule:nonzero;stroke:none" d="M0 0h5000v5000H0z" transform="matrix(.13333 0 0 -.13333 0 666.667)"/><path style="fill:#8acbe1;fill-opacity:1;fill-rule:nonzero;stroke:none" d="M1120.7 730.301H567.684s-291.063 458.429-167.36 618.509c123.699 160.08 276.508-21.83 276.508-21.83s-516.637 1040.56-138.258 1273.4c149.496 92 286.5 19.3 392.61-53.4 162.456-111.32 252.486-222.63 204.076 257.15-80.04 793.15 523.91 1120.59 814.98 392.93 291.06-727.66 676.72-109.14 720.38 276.52 43.66 385.65 713.11 43.65 618.51-953.24-61.18-644.77 87.67-464.62 257.55-284.48 92.78 98.38 191.83 196.76 266.36 160.78 211.03-101.88 87.33-1018.72-414.76-1520.808-1026-276.512-2277.58-145.531-2277.58-145.531" transform="matrix(.13333 0 0 -.13333 0 666.667)"/><path style="fill:#fff;fill-opacity:1;fill-rule:nonzero;stroke:none" d="M2575 4349.59c44.74.85 89.5 1.69 134.23.67 39.67-.91 79.3-3.28 118.78-7.1 12.65-1.23 25.81-2.54 37.72 1.89 11.9 4.43 22.01 16.56 19.6 29.03-2.42 12.5-15.88 19.84-28.49 21.61-12.6 1.77-25.57-.21-38.06 2.22-39.47 7.68-57.33 53.01-87.45 79.64-32.16 28.44-82.45 34.17-120.2 13.69-18.11-9.82-34.7-25.38-55.29-25.81-27.45-.58-50.21 26.33-77.6 24.42-26.13-1.82-43.02-28.41-66.84-39.28-12.86-5.87-27.33-6.93-40.92-10.79-55.74-15.8-30.5-76.96 14.51-84.4 62.77-10.38 126.72-6.98 190.01-5.79M733.387 4398.31c153.019 23.55 244.48 6.62 330.383-46.25 85.9-52.86 284.13 66.08 389.85 26.43 105.73-39.65 251.09-26.43 251.09 39.65 0 66.07-66.07 6.6-171.79 145.37-105.73 138.76-264.32 92.5-330.39 6.6-66.08-85.9-112.33 178.41-270.917 59.47-158.586-118.94-231.265-39.64-317.168-118.94-85.898-79.28 33.043-125.54 118.942-112.33M978.781 4032.25c-126.992 12.7-148.437-9.28-250.488-13.92-102.051-4.64-134.523-4.64-241.215 9.28-106.691 13.91-208.742 92.77-46.387 97.41 162.356 4.64 176.274 120.61 310.793 83.5 134.524-37.11 148.438 32.47 259.766-23.2 111.33-55.66 208.75-60.3 180.91-115.96-27.83-55.67-74.22-51.03-213.379-37.11" transform="matrix(.13333 0 0 -.13333 0 666.667)"/><path style="fill:#8acbe1;fill-opacity:1;fill-rule:nonzero;stroke:none" d="M3766.15 439.242c.52-32.222-195.77-61.601-298.34-72.773-194.21-21.149-265.05-.168-545.74 0-229.98.152-219.66-13.91-371.11-7.27-212.86 9.321-473.72 47.633-472.98 80.043.74 32.5 264.74 58.817 480.26 58.207 183.96-.527 165.18-20.207 342-21.828 279.3-2.57 364.68 46.18 618.51 21.828 32.69-3.14 246.86-24.629 247.4-58.207" transform="matrix(.13333 0 0 -.13333 0 666.667)"/><path style="fill:#fbcf9d;fill-opacity:1;fill-rule:nonzero;stroke:none" d="M2810.83 858.809s-12.27 350.311 131.72 444.291c51.8-153.8 49.02-256.33 49.02-256.33s40.91 247.79 119.56 281.96c47.75-187.97 23.61-333.218 23.61-333.218s56.22 239.228 120.19 247.778c70.38-213.61-15.08-384.481-15.08-384.481s-424.01 12.812-429.02 0" transform="matrix(.13333 0 0 -.13333 0 666.667)"/><path style="fill:#64b155;fill-opacity:1;fill-rule:nonzero;stroke:none" d="M3213.43 817.711s-37.3 610.889 424.37 895.349c18.65-153.88-373.07-886.021-373.07-886.021s261.15 685.501 662.19 778.771c32.65-284.47-606.23-806.751-606.23-806.751s480.32 606.221 769.44 620.211C3964.22 1060.2 3358 752.43 3358 752.43" transform="matrix(.13333 0 0 -.13333 0 666.667)"/><path style="fill:#2a7f83;fill-opacity:1;fill-rule:nonzero;stroke:none" d="m1105.21 2508.94-1.35.2c-.57-.01-1.6-.07-2.76-.97-1.18-.91-1.65-2.53-1.59-3.37.02-1.07.27-1.53.42-1.9.62-1.22.98-1.47 1.55-2.17 2.01-2.24 6.21-6.3 12.38-12.48 18.45-18.44 53.8-54.97 89.05-105.41l.02-.03.01-.02c54.39-75.39 108.73-182.52 138.4-296.7v-.03l.01-.02c22.67-83.03 32.29-170.02 32.28-247.46 0-28.68-1.31-56.04-3.76-81.4l-.01-.03v-.03c-3.57-43.46-10.52-81.1-16.57-108.4-3.03-13.66-5.83-24.72-7.88-32.67-1.03-3.98-1.87-7.17-2.46-9.56-.3-1.19-.53-2.18-.71-3-.16-.87-.3-1.37-.32-2.38l.25-1.58 1.11-1.73c.67-.69 1.94-1.22 2.97-1.19 2.21.16 2.68 1 3.08 1.27l.69.82-6.97 4.88 2.34-1.64-1.98 2.04-.36-.4 2.34-1.64-1.98 2.04 2.84-2.93v4.07c-2.14-.16-2.53-.95-2.84-1.14l2.84-2.93v4.07-4.2l2.9 3.04c-.65.67-1.89 1.2-2.9 1.16v-4.2l2.9 3.04-2.83-2.97 4.02.84c-.11.38-.19 1.11-1.19 2.13l-2.83-2.97 4.02.84-3.46-.72h3.54l-.08.72-3.46-.72h3.54-1.81l1.8-.19.01.19h-1.81l1.8-.19c0 .13.37 1.91.99 4.3 4.36 17.32 20.72 75.52 26.94 151.21l-4.24.34 4.23-.4c2.48 25.65 3.81 53.27 3.81 82.21 0 78.14-9.68 165.81-32.59 249.7l-4.1-1.12 4.12 1.07c-30 115.37-84.71 223.23-139.73 299.54l-3.45-2.49 3.49 2.44c-25.77 36.86-51.57 66.35-70.92 86.91-9.68 10.27-17.75 18.32-23.37 23.91-2.81 2.79-5.02 4.97-6.47 6.47l-1.53 1.65-.14.17-.01.02-2.02-1.41 2.2 1.09-.18.32-2.02-1.41 2.2 1.09-3.5-1.73h3.89c-.04 1.13-.3 1.48-.39 1.73l-3.5-1.73h3.89-4.17l2.63-3.23c1.14.88 1.6 2.45 1.54 3.23h-4.17l2.63-3.23-2.61 3.2v-4.13c.5.01 1.49.05 2.61.93l-2.61 3.2v-4.13 3.7l-1.04-3.56 1.04-.14v3.7l-1.04-3.56 2.39 8.16" transform="matrix(.13333 0 0 -.13333 0 666.667)"/><path style="fill:#2a7f83;fill-opacity:1;fill-rule:nonzero;stroke:none" d="M1219.34 2499.12c-1.95-40.44-6.53-80.1-13.53-118.75l8.37-1.51a921.1 921.1 0 0 1 13.65 119.85l-8.49.41M1231.14 2353.81a1168.24 1168.24 0 0 1-153.23 23.65l-.73-8.48c50.44-4.36 101.32-12.14 152.11-23.47l1.85 8.29M1286.49 2417.91c-8.05-40.5-18.33-80.11-30.64-118.66l8.1-2.59a1095.88 1095.88 0 0 1 30.88 119.59l-8.34 1.66M1280.5 2266.75c-60.83 12.76-121.78 20.66-182.09 23.92l-.45-8.49c59.87-3.23 120.39-11.09 180.8-23.76l1.74 8.33M1372.59 2340.32a1102.009 1102.009 0 0 0-65.64-141.6l7.45-4.11c25.04 45.31 47.24 92.98 66.14 142.68l-7.95 3.03M1324.45 2161.05a1213.422 1213.422 0 0 1-153.69 30.04l-1.09-8.44c50.9-6.56 101.92-16.47 152.62-29.82l2.16 8.22M1187.48 2414.34c4.04.27-74.27 182.18-142.87 137.2-62.52-40.72 144.37-133.33 142.87-137.2" transform="matrix(.13333 0 0 -.13333 0 666.667)"/><path style="fill:#2a7f83;fill-opacity:1;fill-rule:nonzero;stroke:none" d="M1173.49 2363.46c.66 2.45-151.97 73.31-187.72 5.86-38.563-63.18 186.39-3.32 187.72-5.86M1215.75 2414.19c1.67-1.46 87.87 163.01 11.87 177.68-69.38 11.37-29.89-144.99-11.87-177.68M1226.67 2273.16c.88 3.58-178.42 87.55-218.28 19.91-42.48-61.45 197.32-30.13 218.28-19.91M1270.32 2335.36c.41-.99 130.66 139.3 40.52 168.77-82.64 24.79-36.77-169.31-40.52-168.77M1274.5 2164.06c1.36 3.78-167.58 110.83-207.31 41.11-42.07-63.58 206.44-38.05 207.31-41.11" transform="matrix(.13333 0 0 -.13333 0 666.667)"/><path style="fill:#2a7f83;fill-opacity:1;fill-rule:nonzero;stroke:none" d="M1323.22 2220.54c.99-2.27 184.56 159.67 87.13 209.14-90.12 41.55-96.48-147.43-87.13-209.14M1424.76 2201.51a1048.418 1048.418 0 0 0-75.35-144.54l7.21-4.51c28.61 45.79 54.13 94.47 75.96 145.71l-7.82 3.34M1365.6 2009.33c-50.68 39.83-104.38 73.54-159.79 101.12l-3.79-7.61c54.9-27.33 108.11-60.73 158.32-100.2l5.26 6.69M1471.44 2064.07c-31.44-46.84-65.64-90.86-102.07-131.81l6.36-5.66c36.68 41.24 71.11 85.57 102.77 132.73l-7.06 4.74M1381.15 1854.44c-57.51 49.74-119.67 91.04-184.44 123.87l-3.85-7.58c64.16-32.53 125.75-73.45 182.72-122.72l5.57 6.43M1516.47 1907.92c-44.92-60.12-94.24-115.24-146.74-164.85l5.84-6.18c52.85 49.94 102.49 105.42 147.71 165.94l-6.81 5.09M1369.16 1680.1c-43.3 48.81-90.92 91.6-141.55 128.23l-4.99-6.9c50.14-36.26 97.3-78.63 140.18-126.97l6.36 5.64" transform="matrix(.13333 0 0 -.13333 0 666.667)"/><path style="fill:#2a7f83;fill-opacity:1;fill-rule:nonzero;stroke:none" d="M1308.5 2047.9c2.8 3.92-141.01 160.37-206 87.68-66.01-64.12 205.62-82.91 206-87.68M1375.74 2094.98c1.43-3.17 174.88 159.29 97.5 219.23-70.1 51.21-98.74-167.12-97.5-219.23M1326.9 1894.13c4.42 5.81-153.66 201.68-227.48 129.7-72.67-59.87 200.28-131.98 227.48-129.7M1408.2 1969.44c-.37-1.92 216.15 90.68 136.94 188.98-72.72 85.49-131.38-192.01-136.94-188.98M1329.51 1713.06c6.1 6.02-114.19 241.39-194.74 166.03-78-62.97 196.06-160.17 194.74-166.03" transform="matrix(.13333 0 0 -.13333 0 666.667)"/><path style="fill:#2a7f83;fill-opacity:1;fill-rule:nonzero;stroke:none" d="M1396.14 1759.71c-.25-4.51 282.43 126.56 198.42 248.47-79.04 104.15-172.44-155.99-198.42-248.47" transform="matrix(.13333 0 0 -.13333 0 666.667)"/><path style="fill:#64b155;fill-opacity:1;fill-rule:nonzero;stroke:none" d="m1628.05 970.809-334.76-187.758S709.715 1241.95 746.621 1376.87c36.91 134.91 509.459-417.991 509.459-417.991S756.141 1553.16 829.094 1651.18c72.949 98.03 519.226-646.91 519.226-646.91s-413.425 713.11-323.05 789.17c90.39 76.08 410.21-752.97 410.21-752.97s-304.94 743.09-170.74 786.64c134.21 43.54 229.12-753.9 229.12-753.9s-126.82 642.92 19.2 623.83c142.42-18.63 44.61-600.73 44.61-600.73s15.05 453.4 155.17 404.02c153.9-54.24-84.79-529.521-84.79-529.521" transform="matrix(.13333 0 0 -.13333 0 666.667)"/><path style="fill:#2a7f83;fill-opacity:1;fill-rule:nonzero;stroke:none" d="M3383.47 807.309s-31.61 398.301 183.35 512.111c69.54-196-75.87-461.529-75.87-461.529s88.52 379.339 347.74 417.269c44.25-221.28-278.19-455.199-278.19-455.199s195.99 335.079 391.99 284.499c6.31-164.378-354.06-373.019-354.06-373.019l-214.96 75.868" transform="matrix(.13333 0 0 -.13333 0 666.667)"/><path style="fill:#399093;fill-opacity:1;fill-rule:nonzero;stroke:none" d="M3950.04 1107.93c-.14-.12-236.26-166.559-369.65-329.539l6.58-5.379c66.06 80.75 158.11 162.828 233.6 224.629a2858.235 2858.235 0 0 0 95.51 74.869c12.08 9.06 21.8 16.18 28.5 21.04 6.7 4.85 10.35 7.43 10.36 7.44l-4.9 6.94M3835.51 1277.99c-.05-.06-59.65-67.04-128.26-158.87-68.6-91.85-146.22-208.409-182.36-308.249l8-2.902c35.51 98.261 112.8 214.571 181.18 306.061 34.19 45.76 66.15 85.36 89.56 113.5 11.7 14.07 21.27 25.28 27.9 32.97 6.64 7.69 10.32 11.82 10.33 11.84l-6.35 5.65M3562.84 1320.91c-.03-.07-27.45-73.39-54.9-169.45-27.44-96.08-54.94-214.788-54.96-306.222h8.5c-.02 89.813 27.28 208.202 54.64 303.892 13.67 47.86 27.35 90.08 37.61 120.32 5.12 15.12 9.4 27.25 12.39 35.6 2.99 8.34 4.68 12.87 4.68 12.88l-7.96 2.98M3621.71 1137.11l25.3-96.95 8.22 2.15-25.29 96.94" transform="matrix(.13333 0 0 -.13333 0 666.667)"/><path style="fill:#399093;fill-opacity:1;fill-rule:nonzero;stroke:none" d="m3725.07 1127.6 94.83 4.22-.38 8.5-94.83-4.22M3791.91 1080.49c-.31-.25-144.15-105.99-233.17-300.908l7.73-3.543c44.02 96.422 101.7 170.883 148.36 221.211 23.33 25.17 43.9 44.29 58.62 57.12 7.36 6.41 13.25 11.24 17.3 14.47a275.9 275.9 0 0 0 4.63 3.62c1.05.8 1.57 1.18 1.57 1.18l-5.04 6.85" transform="matrix(.13333 0 0 -.13333 0 666.667)"/><path style="fill:#399093;fill-opacity:1;fill-rule:nonzero;stroke:none" d="m3731.29 1017.02 16.87-67.438 8.25 2.059-16.87 67.449M3812.88 986.441l86.41-10.543 1.03 8.442-86.41 10.539M3707.98 902.699l71.65-42.16 4.31 7.332-71.65 42.16M3494.24 1070.87l80.08 23.19-2.36 8.17-80.08-23.19M3456.11 1209.18l48.46-56.9 6.48 5.51-48.47 56.91M3530.04 1199.42l52.68 14.74-2.29 8.19-52.68-14.74" transform="matrix(.13333 0 0 -.13333 0 666.667)"/><path style="fill:#f25542;fill-opacity:1;fill-rule:nonzero;stroke:none" d="M1564.97 694.91H3992.2s-127.93 175.871-308.79 87.942c-88.61-43.09-138.85 13.867-199.13 70.828-62.75 59.289-136.38 118.582-275.5 65.07-130.9-50.34-232.8 52.289-348.99 154.92-125.97 111.28-268.72 222.56-483.41 138.87-412.7-160.88-463.2-254.079-623.31-172.5-160.12 81.56-404.94-86.31-188.1-345.13M494.691 2249.82c.008 0 2.223-2.16 6.434-6.42 31.578-31.95 174.152-180.85 308.73-395.52 134.606-214.67 261.105-495.07 261.075-789.85 0-38.88-2.2-78.018-6.86-117.3l8.44-1c4.71 39.622 6.93 79.09 6.93 118.3-.04 317.07-144.854 616.41-289.463 836.56-144.637 220.16-289.204 361.18-289.344 361.32l-5.942-6.09" transform="matrix(.13333 0 0 -.13333 0 666.667)"/><path style="fill:#f4715b;fill-opacity:1;fill-rule:nonzero;stroke:none" d="M1052.49 1325.03s-102.81-9.11-302.697 141.45c-199.895 150.57-19.805-230.62 302.697-141.45M1002.57 1468.46s-97.066-1.85-270.257 150.81c-173.196 152.66-39.805-212.9 270.257-150.81M938.965 1616.73s-80.672-.29-221.742 128.57c-141.063 128.85-37.02-176.06 221.742-128.57M857.129 1790.25s-69.445-7.46-207.492 92.21c-138.047 99.67-9.278-156.73 207.492-92.21M762.098 1934.65s-65.028-10.32-201.934 77.8 1.738-149.12 201.934-77.8M677.793 2045.86s-57.211-7.26-173.504 73.1c-116.289 80.36-4.144-129.91 173.504-73.1" transform="matrix(.13333 0 0 -.13333 0 666.667)"/><path style="fill:#f4715b;fill-opacity:1;fill-rule:nonzero;stroke:none" d="M1041.31 1323.84s71.62 27.52 105.56 226.87c33.95 199.34 157.01-193.07-105.56-226.87" transform="matrix(.13333 0 0 -.13333 0 666.667)"/><path style="fill:#f4715b;fill-opacity:1;fill-rule:nonzero;stroke:none" d="M992.184 1464.52s60.586 35.29 61.086 228.28 171.2-162.37-61.086-228.28M936.844 1619.9s45.277 34.59 22.914 195.24c-22.363 160.66 158.872-120.39-22.914-195.24M842.508 1789.05s44.64 24.18 43.508 160.93c-1.137 136.75 128.204-117.4-43.508-160.93M750.203 1932.79s44.406 20.06 51.699 147.37c7.293 127.32 116.086-116.25-51.699-147.37M666.051 2051.17s37.652 19.05 39.515 131.46c1.864 112.42 104.293-98.82-39.515-131.46M610.973 2128.75s-71.719 172.53-154.071 158.38c-82.351-14.15 154.071-158.38 154.071-158.38" transform="matrix(.13333 0 0 -.13333 0 666.667)"/><path style="fill:#2a7f83;fill-opacity:1;fill-rule:nonzero;stroke:none" d="M1040.35 598.539h1685.78s-104.92 216.84-286.79 125.91c-181.87-90.937-307.78 286.791-594.57 139.891-286.79-146.891-398.71 356.74-818.41 328.76-419.688-27.98-300.778-580.569 13.99-594.561" transform="matrix(.13333 0 0 -.13333 0 666.667)"/><path style="fill:#fbcf9d;fill-opacity:1;fill-rule:nonzero;stroke:none" d="M1603.5 573.531s-20.88 166.77-137.77 223.821c-12.53-118.493-12.53-140.43-12.53-140.43s-25.04 114.098-91.85 149.207c-87.67-74.609-25.04-166.77-25.04-166.77s-58.45 114.102-133.6 114.102c-50.1-87.77 37.57-188.711 37.57-188.711s350.69 8.781 363.22 8.781" transform="matrix(.13333 0 0 -.13333 0 666.667)"/><path style="fill:#64b155;fill-opacity:1;fill-rule:nonzero;stroke:none" d="M3815 640.5s41.97 191.211 200.52 242.492c27.98-83.933 9.33-139.89 9.33-139.89s79.28 135.238 163.21 153.89c18.66-102.601-27.98-181.871-27.98-181.871s93.27 130.57 158.56 135.238c37.3-116.578-74.62-209.859-74.62-209.859s-422.02 7.012-429.02 0" transform="matrix(.13333 0 0 -.13333 0 666.667)"/><path style="fill:#4b3339;fill-opacity:1;fill-rule:nonzero;stroke:none" d="M1655.13 1076.56v2861.5c0 53.51 43.38 96.9 96.9 96.9h813.45c53.52 0 96.9-43.39 96.9-96.91V1076.56c0-53.52-43.38-96.9-96.9-96.9h-813.45c-53.52 0-96.9 43.38-96.9 96.9" transform="matrix(.13333 0 0 -.13333 0 666.667)"/><path style="fill:#211316;fill-opacity:1;fill-rule:nonzero;stroke:none" d="M1753.07 1076.56v2861.5c0 53.51 43.38 96.9 96.9 96.9h813.45c53.52 0 96.91-43.39 96.91-96.91V1076.56c0-53.52-43.39-96.9-96.91-96.9h-813.45c-53.52 0-96.9 43.38-96.9 96.9" transform="matrix(.13333 0 0 -.13333 0 666.667)"/><path style="fill:#fff;fill-opacity:1;fill-rule:nonzero;stroke:none" d="M2322.62 3804.53c0-62.06-29.51-112.36-65.92-112.36-36.42 0-65.93 50.3-65.93 112.36 0 51.62-24.56 93.47-54.85 93.47l-324.16-.64v-2780.1h889.87v2780.1l-324.16.64c-30.29 0-54.85-41.85-54.85-93.47" transform="matrix(.13333 0 0 -.13333 0 666.667)"/><path style="fill:#bde2ee;fill-opacity:1;fill-rule:nonzero;stroke:none" d="M2682.17 1117.26h19.457v2780.1h-19.457z" transform="matrix(.13333 0 0 -.13333 0 666.667)"/><path style="fill:#614a50;fill-opacity:1;fill-rule:nonzero;stroke:none" d="M2288.96 3808.35c0-31.69-15.07-57.38-33.67-57.38-18.59 0-33.66 25.69-33.66 57.38s15.07 57.38 33.66 57.38c18.6 0 33.67-25.69 33.67-57.38" transform="matrix(.13333 0 0 -.13333 0 666.667)"/><path style="fill:#211316;fill-opacity:1;fill-rule:nonzero;stroke:none" d="M1704.94 2613.07c-8.77 0-15.87 7.11-15.87 15.88v755.17c0 8.77 7.1 15.88 15.87 15.88s15.88-7.11 15.88-15.88v-755.17c0-8.77-7.11-15.88-15.88-15.88M1704.94 3510.75c-8.77 0-15.87 7.11-15.87 15.88v207.24c0 8.77 7.1 15.87 15.87 15.87s15.88-7.1 15.88-15.87v-207.24c0-8.77-7.11-15.88-15.88-15.88" transform="matrix(.13333 0 0 -.13333 0 666.667)"/><g clip-path="url(#a)" transform="matrix(.13333 0 0 -.13333 0 666.667)"><path style="fill:#c4e3f1;fill-opacity:1;fill-rule:nonzero;stroke:none" d="M3523.52 3115h8.5v54.36h-8.5zM3523.52 2797.82h8.5v44.39h-8.5zM3475.19 3113.11l-13.03 35.8 7.99 2.91 13.03-35.8-7.99-2.91M3588.18 2802.69l-18.62 51.17 7.99 2.9 18.62-51.16-7.99-2.91M3437.8 3081.69l-33.67 40.14 6.52 5.47 33.67-40.14-6.52-5.47M3644.41 2835.48l-32.71 38.97 6.51 5.47 32.71-38.97-6.51-5.47M3403.23 3048.09l-34.18 19.73 4.25 7.37 34.18-19.74-4.25-7.36M3398.61 2999.09l-52.19 4.68.76 8.47 52.19-4.68-.76-8.47M3359.67 2940.75l-2.18 8.21 38.14 10.14 2.19-8.22-38.15-10.13M3659.93 3000.08l-1.47 8.38 54.41 9.59 1.48-8.37-54.42-9.6M3372.56 2886.58l-4.25 7.36 35.66 20.59 4.26-7.36-35.67-20.59M3647.66 3045.41l-4.25 7.36 43.46 25.1 4.26-7.37-43.47-25.09M3411.5 2835.91l-6.52 5.47 31.97 38.11 6.52-5.47-31.97-38.11M3617.2 3081.06l-6.52 5.46 34.74 41.41 6.52-5.47-34.74-41.4M3469.16 2807.63l-7.99 2.9 15.03 41.3 7.99-2.91-15.03-41.29M3579.27 3110.14l-8 2.91 15.19 41.74 7.99-2.91-15.18-41.74"/><path style="fill:#ceccca;fill-opacity:1;fill-rule:nonzero;stroke:none" d="m1985.99 2988.78-20.91 58.44 8.01 2.87 20.9-58.44-8-2.87M2108 2647.78l-17.08 47.73 8.01 2.86 17.08-47.72-8.01-2.87M1934.66 2968.34l-27.78 33.48 6.54 5.43 27.79-33.48-6.55-5.43M2175.54 2678.08l-39.7 47.84 6.54 5.43 39.71-47.84-6.55-5.43M1906.4 2920.32l-51.65 30.2 4.29 7.34 51.65-30.2-4.29-7.34M2223.22 2735.1l-50.15 29.31 4.29 7.34 50.15-29.31-4.29-7.34M1881.95 2870.96l-44.34 8.07 1.53 8.37 44.33-8.07-1.52-8.37M2175.99 2918.04l-4.21 7.38 54.81 31.25 4.21-7.39-54.81-31.24M1910.54 2685.32l-6.49 5.5 30.43 35.86 6.48-5.5-30.42-35.86M2145.2 2961.91l-6.48 5.5 37.07 43.7 6.49-5.5-37.08-43.7M1971.78 2645.65l-7.97 2.95 19.71 53.27 7.98-2.95-19.72-53.27M2098.63 2988.34l-7.98 2.95 21.42 57.88 7.98-2.95-21.42-57.88M2044.61 2637.22l-8.5.04.27 50.18 8.51-.04-.28-50.18M2046.62 3004.81l-8.51.04.28 50.72 8.5-.05-.27-50.71"/><path style="fill:#b52a29;fill-opacity:1;fill-rule:nonzero;stroke:none" d="M3436.63 3435.27c-26.81 81.77-85.45 124.6-128.2 115.79-42.75-8.8-45.45 39.88-103.78 19.74-58.32-20.15-63.66 11.71-102.58-16.65-38.93-28.37-66.87-63.63-56.74-97.97 10.12-34.34-35.44-72-12.38-111.82 23.05-39.82-8.62-95.57 14.7-104.01 59.73-21.61 38.03-54.23 101.23-46.92 63.21 7.32 358.13 141.16 287.75 241.84"/><path style="fill:#f9ad8e;fill-opacity:1;fill-rule:nonzero;stroke:none" d="m3403.93 2777.33 106.1-140.2 308.27 215.58 69.3-49.82s-279.9-373.56-402.83-368.55c-122.93 5.02-297.95 280.78-297.95 280.78l217.11 62.21"/><path style="fill:#f9ad8e;fill-opacity:1;fill-rule:nonzero;stroke:none" d="M3818.3 2852.71s-15.35 48.51 13.49 87.24c28.85 38.74 69 21.16 69 21.16s27.83 28.28 42.41 14.45c10.31-9.79 2.08-24.57 2.08-24.57s20.97 5 18.73-22.18c17.3-3.18 17.2-20.04 12.84-27.51 14.65-10.98 11.62-21.47-1.46-34.71-13.09-13.24-71.87-78.26-102.85-65.26-37.41 15.71-54.24 51.38-54.24 51.38"/><path style="fill:#b52a29;fill-opacity:1;fill-rule:nonzero;stroke:none" d="M3898.62 2957.45c8.89-5.24 18.55-15.16 25.73-25.82 7.24-10.61 11.92-22.14 11.84-29.54-.03-3.79-1.01-6.1-2.78-7.64-1.52-1.27-2.95-1.73-4.9-1.76-2.61-.02-6.11 1.16-9.74 3.24-5.46 3.09-11.11 8.01-15.28 12.13-2.09 2.06-3.82 3.92-5.02 5.25l-1.38 1.57-.46.54-8.99 10.86 1.49-14.02.03-.4c.08-.87.23-3.07.23-6.08.02-6.9-.88-18.06-5.09-26.9-2.09-4.44-4.93-8.25-8.78-10.96-3.85-2.71-8.77-4.45-15.6-4.47-1.07 0-2.2.05-3.36.14l-.68-8.48c1.38-.11 2.73-.16 4.04-.16 8.32-.02 15.2 2.25 20.51 6.02 7.99 5.67 12.27 14.25 14.63 22.55 2.35 8.34 2.83 16.58 2.84 22.26 0 4.4-.3 7.26-.32 7.38l-4.22-.45-3.28-2.71c.09-.11 5.21-6.3 12.4-12.62 3.6-3.16 7.71-6.35 12.08-8.84 4.38-2.47 9.03-4.32 13.95-4.35 3.61-.03 7.4 1.16 10.44 3.81 4.14 3.54 5.78 8.8 5.74 14.09-.08 10.5-5.55 22.74-13.29 34.3-7.81 11.51-17.97 22.14-28.44 28.38l-4.34-7.32"/><path style="fill:#b52a29;fill-opacity:1;fill-rule:nonzero;stroke:none" d="M3941.98 2953.67c-.01-.01-3.63-4.47-7.46-9.13-1.92-2.33-3.89-4.7-5.48-6.57-.79-.94-1.49-1.75-2.02-2.35l-.64-.71-.18-.19.06-.06-.06.07v-.01l.06-.06-.06.07 5.6-6.4 1.59 1.65c4.11 4.65 15.17 18.3 15.19 18.34l-6.6 5.35M3960.55 2931.28c-.01-.01-.88-1.24-2.38-3.21-2.24-2.96-5.83-7.53-9.62-11.7-3.74-4.17-7.92-7.96-10.34-9.14l3.87-7.58c5.79 3.06 11.63 9.56 16.67 15.49 4.95 5.9 8.68 11.15 8.72 11.2l-6.92 4.94M3973.35 2903.71c-5.62-8.19-12.37-14.63-18.83-18.95-6.43-4.34-12.65-6.44-16.56-6.39-2.25.01-3.53.58-4.26 1.29-.73.71-1.4 1.9-1.43 4.58 0 .85.08 1.83.26 2.93l-8.39 1.38c-.25-1.5-.37-2.94-.37-4.31-.03-4.23 1.29-8.1 4.04-10.72 2.75-2.63 6.44-3.67 10.15-3.66 6.56.05 13.85 2.9 21.29 7.84 7.4 4.95 14.86 12.11 21.11 21.19l-7.01 4.82"/><path style="fill:#b52a29;fill-opacity:1;fill-rule:nonzero;stroke:none" d="M3975.28 2871.76c-9.34-9.14-18.49-12.46-24.39-12.43-2.81 0-4.79.73-5.87 1.58-1.07.88-1.5 1.67-1.55 3.2-.02 1.69.87 4.5 3.74 7.97l-6.57 5.4c-3.67-4.47-5.65-8.96-5.67-13.37-.05-3.96 1.84-7.68 4.86-9.94 3-2.3 6.85-3.34 11.06-3.34 8.88.03 19.74 4.55 30.33 14.84l-5.94 6.09"/><path style="fill:#f25542;fill-opacity:1;fill-rule:nonzero;stroke:none" d="M3105.15 3023.89c51.87 102.91 298.32-167.57 363-282.02-56.12-120-186.62-203.28-186.62-203.28s-263.51 312.39-176.38 485.3"/><path style="fill:#3d93a3;fill-opacity:1;fill-rule:nonzero;stroke:none" d="M2876.42 2187.55s-434.96-768.86-715.77-755.86c-280.82 12.99-575.96 431.36-575.96 431.36l137.69 179.75 425.26-257.6s162.73 426.43 350.47 520.22c187.74 93.8 378.31-117.87 378.31-117.87"/><path style="fill:#f25542;fill-opacity:1;fill-rule:nonzero;stroke:none" d="M2568.11 695.262s-10.71-80.801-42.23-132.59c-31.52-51.793-25.17-86.84-25.17-86.84s120.84-70.113 238.42-89.742c110.39-18.43 123.96 13.34 123.96 13.34s17.33 84.59-59.69 112.082C2726.38 539 2700.26 550 2709.63 646.992c-34.22 27.36-141.52 48.27-141.52 48.27"/><path style="fill:#fff;fill-opacity:1;fill-rule:nonzero;stroke:none" d="M2500.71 475.832s-3.02 16.75 5.51 44.18c45.61-26.364 155.54-85.063 240.58-91.653 11.98 46.2 39.73 69.922 60.49 81.621 72.45-28.941 55.8-110.55 55.8-110.55s-13.57-31.77-123.96-13.34c-117.58 19.629-238.42 89.742-238.42 89.742"/><path style="fill:#f9ad8e;fill-opacity:1;fill-rule:nonzero;stroke:none" d="M2709.63 646.992c-2.79-28.851-2.41-50.043 1.49-66.383-10.9-1.66-20.76-10.578-27.83-29.578-13.46-36.16-110.52-4.301-143.85 38.258 21.1 48.953 28.67 105.973 28.67 105.973s107.3-20.91 141.52-48.27"/><path style="fill:#3d93a3;fill-opacity:1;fill-rule:nonzero;stroke:none" d="M2851.8 2220.86s136.58-460.52 104.77-687.39c-31.82-226.86-188.79-926.911-188.79-926.911s-183.86 29.332-252.2 66.363c9.88 239.269 73.4 663.728 81.42 786.398 9.33 142.94-422.58 527.86-170.03 940.47 232.01-116.97 424.83-178.93 424.83-178.93"/><path style="fill:#f25542;fill-opacity:1;fill-rule:nonzero;stroke:none" d="M2909.96 2170.5s-479.42 29.87-497.34 242.35c153.25 430.21 301.14 824.28 462.43 814.95 161.27-9.32 382.9-281.04 412.69-344.25 29.79-63.22-192.57-340.54-262.05-422.82-69.48-82.29-115.73-290.23-115.73-290.23"/><path style="fill:#f9ad8e;fill-opacity:1;fill-rule:nonzero;stroke:none" d="m2612.05 3074.03-174.06 24.8-67.01-370.16-84.28-13.44s-64.4 462.32 26.4 545.34c90.8 83.02 409.27 10.52 409.27 10.52l-110.32-197.06"/><path style="fill:#f9ad8e;fill-opacity:1;fill-rule:nonzero;stroke:none" d="M2370.98 2728.67s45.07-23.62 51.87-71.44c6.8-47.82-34.08-63.61-34.08-63.61s.16-39.68-19.93-40.13c-14.22-.32-18.78 15.97-18.78 15.97s-11.37-18.31-28.92 2.56c-14.52-9.92-26.33 2.12-28.49 10.49-18.13-2.53-23.38 7.05-23.41 25.67-.03 18.62-4.1 106.17 27.06 118.76 37.61 15.2 74.68 1.73 74.68 1.73"/><path style="fill:#b52a29;fill-opacity:1;fill-rule:nonzero;stroke:none" d="m2393.32 2637.06-8.71-42.59 8.33-1.7 8.71 42.59M2347.79 2591.45l-1.97-21.6 8.47-.77 1.97 21.6M2322.71 2591.95l-5.64-18.7 8.14-2.46 5.64 18.7M2292.34 2600.74l-3.84-17.31 8.3-1.85 3.85 17.32"/><path style="fill:#f9ad8e;fill-opacity:1;fill-rule:nonzero;stroke:none" d="M3406.99 3375.14c9.5-83.14-30.26-102.26-5.75-140.96 18.21-28.76-23.33-32.71-23.33-32.71s-14.02-94.89-50.6-106.71c-36.58-11.83-181.35 19.43-224.11 198.93-42.76 179.49 287.21 226.5 303.79 81.45"/><path style="fill:#211316;fill-opacity:1;fill-rule:nonzero;stroke:none" d="M3344.48 3277.91c-1.39-8.83.67-16.48 4.6-17.09 3.91-.62 8.22 6.04 9.6 14.86 1.39 8.82-.67 16.48-4.59 17.09-3.93.62-8.22-6.04-9.61-14.86"/><path style="fill:#b52a29;fill-opacity:1;fill-rule:nonzero;stroke:none" d="M3321.27 3191.62c.13-.13 3.91-3.95 9.72-7.86 5.82-3.87 13.66-7.99 22.4-8.04 4.09-.01 8.38.99 12.34 3.42l-4.43 7.26c-2.56-1.55-5.14-2.16-7.91-2.17-5.87-.05-12.58 3.14-17.66 6.59a65.475 65.475 0 0 0-6.16 4.72l-1.71 1.54-.54.52-6.05-5.98M3370.06 3336.42c-.11-.01-5.33-.59-11.96-2.15-6.65-1.6-14.65-4.03-20.7-8.38l5.01-6.87c4.22 3.12 11.53 5.56 17.63 6.97 3.06.72 5.83 1.22 7.82 1.53.99.16 1.79.28 2.34.35l.8.1-.94 8.45"/><path style="fill:#f25542;fill-opacity:1;fill-rule:nonzero;stroke:none" d="M2997.81 3109.42c-3.78-148.89-329.8-91.15-456.32-55.46-44.67 124.72-10.69 275.74-10.69 275.74s471.92-26.72 467.01-220.28"/><path style="fill:#b52a29;fill-opacity:1;fill-rule:nonzero;stroke:none" d="M3250.67 3379.14s12.93-41.68-2.86-56.44c-15.79-14.75-12.7-61.79-12.7-61.79s-26.58 21.42-38.3 61.18c-26.95-9.56-38.19-93.12-38.19-93.12s-68.15-10.71-73.37 86.09c-2.61 48.23 83.13 159.73 143.28 170.98 60.15 11.24 126.14 21.56 183.83-30.58 57.69-52.15 12.25-98.45-49.42-52.57-6.16-24.9-50.83-37.71-65.93-5.17 5.33-23.25-33.17-39.61-46.34-18.58"/><path style="fill:#f9ad8e;fill-opacity:1;fill-rule:nonzero;stroke:none" d="m3262.49 3131.2-84.09-145.56c-47.46-64.07-206.66 57.82-152.42 144.74 103.04 116.03 144.13 138.39 144.13 138.39l92.38-137.57"/><path style="fill:#f9ad8e;fill-opacity:1;fill-rule:nonzero;stroke:none" d="M3197.56 3319.14c-32.43 72.99-67.03-20.38-51.15-70.16 15.88-49.78 46.9-11.23 46.9-11.23"/><path style="fill:#b52a29;fill-opacity:1;fill-rule:nonzero;stroke:none" d="M3253.23 3106.3c-18.43 6.61-38.81 19.94-55.16 35.15-16.39 15.15-28.67 32.4-31.53 45.62l-8.3-1.85c3.71-16.26 16.96-34.04 34.04-50 17.12-15.89 38.16-29.75 58.08-36.92l2.87 8"/><path style="fill:#7c1f22;fill-opacity:1;fill-rule:nonzero;stroke:none" d="m3328.15 3445.33.01-.29.02-1.02c.02-2.4-.32-7.71-2.09-11.82-.88-2.07-2.05-3.78-3.51-4.92-1.48-1.14-3.25-1.89-6.13-1.91-2.61-.01-6.15.72-10.71 2.72-9.07 3.97-16.77 7.67-23.43 10.45-6.68 2.75-12.26 4.69-17.62 4.73-3.6.04-7.28-1.1-10.04-3.67-2.77-2.55-4.55-6.09-5.83-10.51l8.17-2.35c1.02 3.56 2.28 5.58 3.4 6.58 1.13.99 2.19 1.41 4.3 1.45 3.07.04 8.03-1.42 14.35-4.08 6.33-2.64 14.07-6.35 23.28-10.39 5.34-2.33 9.98-3.43 14.13-3.44 4.54-.02 8.48 1.42 11.38 3.73 4.39 3.49 6.45 8.4 7.57 12.76 1.11 4.39 1.27 8.42 1.28 10.67 0 1.1-.04 1.78-.05 1.86l-8.48-.55M3287.51 3477.53c-.25.05-23.11 9.4-43.63 9.46-5.37 0-10.65-.65-15.42-2.47-4.76-1.81-9.08-4.96-11.84-9.69l7.34-4.3c1.68 2.84 4.13 4.72 7.54 6.05 3.4 1.31 7.7 1.91 12.38 1.91 8.98.01 19.22-2.19 27.1-4.42a160.235 160.235 0 0 0 12.42-4.07l.94-.36 3.17 7.89M3206.45 3443.18l.12-.66c.24-1.42.73-4.96.73-9.33.02-5.49-.82-12.25-3.59-17.67-2.84-5.42-7.12-9.63-15.47-11.34l1.64-8.34c10.82 2.04 17.79 8.54 21.41 15.83 3.68 7.29 4.5 15.24 4.52 21.52-.01 6.67-.99 11.5-1.02 11.69l-8.34-1.7M3175.16 3426.01c-.2-.05-9.96-2.26-20.04-7.51-5.04-2.64-10.2-6.04-14.27-10.54-4.06-4.47-7.05-10.28-7.04-17.11 0-3.71.87-7.64 2.7-11.67l7.75 3.5c-1.4 3.11-1.95 5.79-1.95 8.17.02 4.33 1.78 7.97 4.85 11.41 4.58 5.13 12.13 9.18 18.51 11.74a91.73 91.73 0 0 0 8.14 2.84c1.03.31 1.86.53 2.43.68l.82.2-1.9 8.29M3367.51 3486.4c-5.2 6.31-11.21 13.28-18.11 18.82-6.89 5.51-14.86 9.75-23.91 9.77-4.82.01-9.83-1.26-14.77-3.98l4.1-7.45c3.82 2.1 7.3 2.92 10.67 2.93 6.24.02 12.5-3.02 18.59-7.91 6.07-4.85 11.78-11.4 16.86-17.58l6.57 5.4M3273.48 3525.44c-.14.15-4.71 5.11-11.99 10.16-7.28 5.01-17.34 10.25-28.75 10.29-6.37.01-13.12-1.74-19.49-6.03l4.74-7.06c5 3.34 9.88 4.57 14.75 4.58 8.66.04 17.41-4.25 23.91-8.78 3.25-2.24 5.93-4.51 7.78-6.19.92-.85 1.64-1.55 2.11-2.02l.53-.55.15-.15 6.26 5.75M3408.93 3438.79l-.31-.15c-1.68-.82-9.89-4.37-18.89-4.34-6.1.01-12.4 1.5-17.98 6.22l-5.5-6.49c7.41-6.29 16-8.25 23.48-8.24 12.72.04 22.77 5.3 23.09 5.44l-3.89 7.56M3358.2 3468.39c-.11.09-5.37 4.99-12.85 9.97-7.53 4.94-17.15 10.17-27.01 10.26-3.26 0-6.57-.63-9.64-2.2l3.85-7.58c1.7.87 3.6 1.27 5.79 1.27 6.6.09 15.46-4.22 22.3-8.83 3.44-2.28 6.41-4.59 8.5-6.31a78.74 78.74 0 0 0 2.44-2.07l.82-.74 5.8 6.23M3201.37 3496.95c-.36.17-4.96 2.64-11.6 2.67-4.14.01-9.13-1.06-13.84-4.39-4.73-3.32-9.05-8.75-12.39-16.97l7.88-3.21c2.89 7.1 6.26 11.02 9.4 13.22 3.14 2.2 6.18 2.83 8.95 2.84 2.2.01 4.19-.44 5.58-.88l1.6-.6.38-.17.07-.03.59 1.16-.62-1.15.03-.01.59 1.16-.62-1.15 4 7.51M3116.04 3434.71c-.14-.08-8.89-4.82-17.83-12.33-4.47-3.76-9-8.21-12.52-13.28-3.51-5.05-6.1-10.81-6.12-17.14-.01-4.65 1.5-9.47 4.74-13.89l6.88 5.01c-2.28 3.16-3.1 6-3.11 8.88-.02 3.89 1.67 8.11 4.59 12.29 4.33 6.26 11.25 12.15 17.05 16.32 2.91 2.09 5.53 3.78 7.41 4.93.94.57 1.7 1.01 2.21 1.31l.76.43-4.06 7.47M3128.71 3397.7c-.18-.13-5.43-3.85-10.79-10.2-5.32-6.33-10.96-15.42-11-26.49 0-4.09.81-8.41 2.68-12.74l7.81 3.36c-1.42 3.29-1.98 6.39-1.99 9.38-.04 7.97 4.32 15.49 9 21.01 2.32 2.75 4.67 4.98 6.41 6.49l2.09 1.72.56.43.15.11-4.92 6.93M3090.05 3345.75l3.2-.51-2.96 1.32-.24-.81 3.2-.51-2.96 1.32 1.12-.5-1.09.57-.03-.07 1.12-.5-1.09.57-1.06-1.58c-2.19-3.11-6.75-9.12-10.76-16.3-3.99-7.22-7.62-15.65-7.65-24.34-.01-4.15.89-8.39 3.11-12.27l7.38 4.22c-1.38 2.43-1.99 5.08-1.99 8.05-.07 7.41 4.21 16.62 8.82 23.99 2.28 3.7 4.6 6.96 6.4 9.46.9 1.26 1.67 2.32 2.28 3.21l.82 1.28c.24.5.52.77.78 2.06l-8.4 1.34M3199.63 3375.42l.2-.5c.97-2.38 4.91-13.33 4.86-21.62 0-2.29-.29-4.32-.85-5.82-.57-1.51-1.28-2.45-2.3-3.14l4.71-7.08c2.75 1.82 4.56 4.5 5.57 7.3 1.03 2.81 1.37 5.77 1.37 8.74-.07 12.1-5.66 25.13-5.71 25.39l-7.85-3.27M3133.21 3471.69c-.16.02-5.53 1.04-12.1 1.04-4.41-.01-9.36-.42-13.87-2.2-2.25-.9-4.42-2.18-6.2-4.07-1.79-1.88-3.09-4.41-3.53-7.26l8.41-1.32c.2 1.24.62 2 1.31 2.75 1.02 1.11 2.95 2.12 5.49 2.73 2.52.63 5.54.87 8.39.87 2.84 0 5.52-.23 7.46-.46.97-.11 1.76-.23 2.29-.31l.79-.13 1.56 8.36M3102.28 3512.61c-.14-.09-6.03-3.61-12.7-9.44-6.64-5.86-14.2-13.93-17.31-23.89l8.13-2.49c2.18 7.31 8.68 14.69 14.78 19.98 3.04 2.66 5.94 4.82 8.06 6.3 1.06.74 1.93 1.31 2.52 1.69l.88.55-4.36 7.3"/><path style="fill:#2a7f83;fill-opacity:1;fill-rule:nonzero;stroke:none" d="M2348.04 2170.35c-.02-.14-.43-4.26-.43-12.49 0-44.21 11.76-206.82 159.12-508.22l7.64 3.74c-146.91 300.48-158.25 461.8-158.25 504.48 0 3.97.1 6.92.19 8.86.05.96.1 1.68.13 2.14l.06.64-8.46.85M2599.36 2214.51c.01-.03 17.64-101.19 43.29-219.99 25.68-118.85 59.24-255.12 91.56-326.23 10.45-22.8 15.13-63.61 15.08-114.91.02-124.71-26.67-311.95-53.39-467.8-13.36-77.94-26.71-148.068-36.73-198.701a7191.27 7191.27 0 0 0-12.1-59.879c-2.92-14.109-4.59-21.859-4.59-21.879l8.31-1.789c.01.039 26.75 124.738 53.49 280.808 26.74 156.09 53.51 343.43 53.52 469.24-.05 51.87-4.43 93.19-15.85 118.44-31.7 69.61-65.41 205.93-90.99 324.5-12.8 59.3-23.61 114.23-31.21 154.32-3.81 20.04-6.81 36.38-8.86 47.71-2.05 11.32-3.15 17.6-3.15 17.62l-8.38-1.46"/><path style="fill:#2a7f83;fill-opacity:1;fill-rule:nonzero;stroke:none" d="m2520.46 833.012 275.83-64.614 1.94 8.282-275.83 64.609M1863.72 1956.03l-192.85-209.87 6.27-5.76 192.84 209.87M2641.66 2036.8c.04 0 .62-.02 1.66-.02 7.28.03 37.28.72 66.05 12.89 14.37 6.1 28.5 15.13 39.08 28.58 10.59 13.44 17.45 31.31 17.43 54.27 0 14.24-2.6 30.44-8.44 48.91l-8.11-2.57c5.63-17.8 8.05-33.14 8.05-46.34-.03-21.3-6.21-37-15.62-49.01-14.1-17.99-36.03-27.7-55.92-32.75-19.87-5.06-37.52-5.48-42.52-5.47-.96 0-1.42.01-1.42.01l-.24-8.5"/><path style="fill:#da332e;fill-opacity:1;fill-rule:nonzero;stroke:none" d="m3514.12 2650.77-68.84-48.54 4.9-6.95 68.84 48.54M2442.2 3098.23l7.26 50.84-8.42 1.2-7.26-50.84"/><path style="fill:#b52a29;fill-opacity:1;fill-rule:nonzero;stroke:none" d="M3187.47 3243.55c-8.42-7.48-15.3-10.35-20.27-10.31-4.64.05-8.38 2.15-12.12 7.16-3.66 4.98-6.75 12.8-8.89 22.74l-8.31-1.8c2.32-10.66 5.62-19.46 10.34-25.96 4.64-6.47 11.26-10.69 18.98-10.65 8.16.05 16.66 4.29 25.91 12.45l-5.64 6.37"/><path style="fill:#f46954;fill-opacity:1;fill-rule:nonzero;stroke:none" d="M2711.81 3309.31c0-.09-.76-9.1-.76-22.82 0-18.31 1.33-44.99 7.7-70.22 6.4-25.15 17.77-49.23 39.01-61.37 27.18-15.39 49.92-25.27 65.7-38.45 15.73-13.22 25.18-29.19 26.98-59.33 1.83-31.95 16.22-75.11 37.74-111.65 10.78-18.25 23.34-34.82 37.19-47.4 13.84-12.55 29.05-21.21 45.16-23.05 29.54-3.34 61.99-9.2 88.93-19.91 27.01-10.73 48.09-26.18 56.24-48.1 2.74-7.27 8.37-14.18 16.03-20.69 23.02-19.41 65.14-35.55 110.48-35.61 26.71 0 54.54 5.7 79.9 20.01 25.36 14.3 48.15 37.24 64.71 71.23l-7.65 3.73c-15.9-32.59-37.38-54.07-61.24-67.55-23.87-13.47-50.2-18.91-75.72-18.91-28.84-.01-56.6 6.98-78.1 16.97-10.75 4.99-19.94 10.73-26.88 16.62-6.96 5.87-11.62 11.92-13.56 17.18-9.53 25.32-33.04 41.87-61.07 53.02-28.11 11.16-61.16 17.06-91.11 20.46-13.63 1.53-27.4 9.09-40.4 20.9-19.51 17.68-37.05 44.71-49.89 72.98-12.86 28.26-21.03 57.83-22.27 80.25-1.67 31.74-12.68 51.09-30.03 65.38-17.28 14.33-40.22 24.13-66.94 39.32-17.98 10.11-28.88 31.87-34.96 56.06-6.11 24.11-7.45 50.25-7.45 68.13 0 6.71.19 12.26.37 16.12.19 3.86.37 5.98.37 5.98l-8.48.72"/><path style="fill:#f46954;fill-opacity:1;fill-rule:nonzero;stroke:none" d="M2902.14 3232.4c-.01-.08-1.41-16.43-1.41-40.41.01-26.7 1.72-62.86 9.09-96.72 7.41-33.81 20.3-65.58 43.91-83.09 31.49-23.15 55.22-55.47 84.56-85.04 29.32-29.56 64.57-56.27 118.75-67.09 13.81-2.77 27.05-3.98 39.63-3.98 86.45.09 141.27 56.71 141.64 57.03l-6.1 5.92-.55-.55c-5.88-5.79-57.63-53.97-134.99-53.9-12.04 0-24.71 1.16-37.96 3.82-52.18 10.49-85.57 35.77-114.39 64.74-28.79 28.94-52.69 61.66-85.54 85.9-20.78 15.2-33.53 45.11-40.65 78.05-7.17 32.9-8.9 68.58-8.89 94.91 0 11.83.34 21.77.69 28.75.34 6.98.68 10.93.68 10.94l-8.47.72M2641.54 3316.11c-.07-.25-18.96-53.36-18.99-110.59.01-24.07 3.35-48.93 13.09-70.94 9.72-21.99 26.03-41.11 51.39-53 19.79-9.32 30.87-20.54 37.31-33.24 6.44-12.71 8.21-27.26 8.2-43.2.01-16.94-2-35.31-2-54.19 0-19.19 2.1-39 10.81-58.26 8.71-19.27 24.04-37.8 49.76-54.44 61.52-39.82 133.13-61.04 197.03-89.44 63.98-28.42 119.92-63.61 151.72-130.95l7.69 3.63c-33.02 69.99-91.4 106.47-155.96 135.09-64.62 28.66-135.74 49.84-195.85 88.81-24.62 15.96-38.61 33.1-46.64 50.81-8.01 17.7-10.06 36.16-10.06 54.75-.01 18.28 2 36.6 2.01 54.19-.01 16.52-1.78 32.51-9.12 47.04-7.31 14.53-20.22 27.23-41.29 37.1-23.42 11.03-38.12 28.27-47.22 48.75-9.08 20.47-12.37 44.2-12.36 67.49-.01 27.69 4.62 54.71 9.26 74.75 2.32 10.02 4.63 18.3 6.37 24.06.86 2.88 1.58 5.13 2.09 6.65.5 1.52.77 2.29.77 2.29l-8.01 2.84M3220.59 2627.46s1.36.93 3.93 2.6c9 5.85 32.55 20.56 61.01 33.74 28.43 13.21 61.86 24.8 90.05 24.77 14.87-.01 28.14-3.17 38.79-10.62l4.87 6.97c-12.49 8.73-27.63 12.15-43.66 12.15-34.78-.05-74.44-15.8-105.72-31.37-31.24-15.6-53.97-31.15-54.07-31.22l4.8-7.02M2606.73 2905.34c.07-.32 4.54-24.25 21.13-51.6 16.55-27.33 45.48-58.18 94.01-71.37 47.07-12.81 84.64-26.99 113.71-45.69 29.08-18.73 49.73-41.82 63.47-73.09 13.75-31.25 43.25-62.24 76.57-85.75 33.38-23.44 70.47-39.43 100.49-39.51 3.72 0 7.34.25 10.83.78l-1.27 8.41c-3.03-.46-6.22-.68-9.56-.68-27-.08-63.25 15.12-95.59 37.96-32.39 22.77-60.98 53.13-73.68 82.2-14.36 32.79-36.42 57.41-66.66 76.83-30.24 19.44-68.6 33.81-116.08 46.74-46.02 12.55-73.13 41.52-88.97 67.58a174.77 174.77 0 0 0-15.97 34.26c-1.52 4.48-2.55 8.14-3.19 10.66a86.13 86.13 0 0 0-.68 2.89l-.2.94-8.36-1.56M2554.04 2769.93c23.41-49.87 64.2-70.53 103.72-86.51 39.7-16 78.12-27.93 99.87-58.73 12.27-17.2 32.99-30.18 57.6-41.76 36.94-17.33 82.99-31.39 123.47-49.03 40.53-17.59 75.07-38.83 89.59-69.06l7.65 3.7c-10.84 22.38-30.79 39.47-54.91 53.68-36.22 21.31-82.22 36.35-123.32 52.16-41.12 15.71-77.15 32.49-93.14 55.24-24.18 33.84-64.58 45.77-103.62 61.68-39.21 15.93-77.07 35.24-99.22 82.25l-7.69-3.62M2497.25 2650.4c13.26-29.85 32.28-48.65 54.09-61.25 32.73-18.9 71.34-24.36 107.72-35.13 36.43-10.79 70.37-26.39 95.4-64.96 53.16-81.98 131.15-112.73 185.93-112.74 17.06.01 31.93 2.96 43.31 8.52l-3.74 7.64c-9.79-4.81-23.51-7.67-39.57-7.66-51.77-.01-127.29 29.32-178.79 108.87-17.59 27.18-39.76 43.78-63.55 54.96-35.7 16.76-74.97 21.77-109.61 33.45-34.69 11.74-64.47 29.39-83.42 71.76l-7.77-3.46M2453.9 2533.73c.54-.61 47.11-51.34 180.69-82.61 65.28-15.3 103.65-50.66 144.95-84.25 41.17-33.53 85.48-65.1 160.9-69.94l.55 8.48c-73.18 4.82-115.04 34.74-156.09 68.06-40.93 33.27-80.84 70.13-148.37 85.93-66.01 15.46-110.23 35.64-137.87 51.86-13.83 8.11-23.51 15.23-29.71 20.29-3.09 2.53-5.32 4.54-6.75 5.9l-1.57 1.54-.35.37-.09.09-6.29-5.72M2431.28 2474.78c.07-.68 2.84-22.04 26.88-46.23 24.04-24.2 69.1-51.02 153.06-63.44 82.88-12.3 123.93-32.54 163.22-52.49 39.26-19.97 76.91-39.76 150.55-49.74l1.15 8.43c-72.58 9.91-108.46 28.9-147.85 48.89-39.35 20.03-82.05 40.96-165.83 53.32-82.68 12.25-125.79 38.41-148.26 61.02-11.25 11.32-17.36 21.79-20.68 29.36-1.66 3.78-2.62 6.84-3.16 8.91-.27 1.03-.43 1.82-.53 2.33l-.09.54-.01.1-8.45-1"/><path style="fill:#da332e;fill-opacity:1;fill-rule:nonzero;stroke:none" d="m2663.45 3022.36 185.48-36.26 1.63 8.34-185.48 36.26M3258.87 2791.65l-98.57-160.11 7.24-4.46 98.57 160.11M2584.25 3332.32c-.01-.13-11.28-71.03-11.29-148.28.03-49.51 4.57-101.57 20.06-139.76l7.88 3.21c-14.77 36.23-19.46 87.61-19.43 136.55 0 38.22 2.8 74.99 5.59 102.19 1.4 13.6 2.8 24.8 3.85 32.6 1.05 7.79 1.74 12.14 1.74 12.16l-8.4 1.33M3427.64 2791.54c0-.01-1.47-2.53-4.24-7.07-9.7-15.89-35.19-56.24-67.34-96.63-32.1-40.39-71.12-80.76-106.72-96.62l3.48-7.76c43.56 19.62 88.6 70.49 123.37 116.5 34.69 46.01 58.74 87.2 58.8 87.29l-7.35 4.29M3020.17 3167.58c-23.71-32.4-33.2-63.87-33.19-92.61 0-31.38 11.23-59.33 26.79-81.97 15.57-22.66 35.47-40.07 53.34-50.63 19.16-11.29 41.8-18.42 65.09-18.43 20.02-.01 40.53 5.32 59.37 17.78 18.85 12.46 35.97 32 49.5 60.11l-7.66 3.69c-13-26.99-29.13-45.2-46.53-56.71-17.4-11.5-36.14-16.36-54.68-16.37-21.54 0-42.79 6.64-60.77 17.25-16.74 9.88-35.87 26.59-50.66 48.12-14.8 21.55-25.28 47.85-25.28 77.16.01 26.86 8.75 56.4 31.54 87.6l-6.86 5.01M2414.25 2452c.08-.85 6.87-48.43 73.12-101.68 66.24-53.27 191.59-112.24 428.74-137.19l.89 8.46c-236.11 24.83-359.81 83.47-424.3 135.36-32.25 25.95-49.75 50.21-59.21 67.87-4.73 8.83-7.44 16.02-8.97 20.94-.76 2.46-1.23 4.36-1.5 5.61l-.28 1.39-.06.37-8.43-1.13"/><path style="fill:#52b2d7;fill-opacity:1;fill-rule:nonzero;stroke:none" d="M2216.38 2818.43c-3.67-5.61-9.75-8.62-16-8.64-3.6.01-7.19 1-10.44 3.13l-37.14 24.31-9.31-14.23 37.14-24.31a35.92 35.92 0 0 1 19.75-5.9c11.74-.02 23.31 5.76 30.23 16.33l-14.23 9.31"/><path style="fill:#38a6d7;fill-opacity:1;fill-rule:nonzero;stroke:none" d="m2243.72 2792.58-8.03 2.79c-2.49-7.21-9.27-11.72-16.48-11.73-1.89.01-3.81.31-5.72.98-7.21 2.48-11.72 9.26-11.73 16.47 0 1.89.31 3.81.98 5.73 2.49 7.21 9.26 11.71 16.47 11.72 1.89 0 3.81-.31 5.73-.97 7.21-2.49 11.71-9.27 11.72-16.48 0-1.89-.31-3.81-.97-5.72l8.03-2.79 8.04-2.79c1.29 3.72 1.91 7.55 1.91 11.3.01 14.28-8.93 27.59-23.15 32.55a34.577 34.577 0 0 1-11.31 1.91c-14.27.01-27.58-8.93-32.54-23.15a34.316 34.316 0 0 1-1.91-11.31c-.01-14.27 8.92-27.59 23.15-32.54 3.72-1.29 7.55-1.91 11.3-1.91 14.28-.01 27.59 8.92 32.54 23.15l-8.03 2.79M2137.33 2849.84l-54.1 26.39c-3.99 1.94-6.28 5.92-6.29 10.08 0 1.65.36 3.3 1.14 4.9l-15.29 7.46a28.22 28.22 0 0 1-2.86-12.36c-.01-10.43 5.83-20.47 15.85-25.36l54.09-26.4 7.46 15.29"/><path style="fill:#38a6d7;fill-opacity:1;fill-rule:nonzero;stroke:none" d="m2399.92 2727.49-163.31 36.18 14.31 64.58 163.31-36.18-14.31-64.58M2152.31 2854.99c-1.94-3.99-5.92-6.28-10.08-6.29-1.65 0-3.3.36-4.9 1.14l-7.46-15.29a28.22 28.22 0 0 1 12.36-2.86c10.43-.01 20.47 5.83 25.36 15.84l-15.28 7.46M2078.08 2891.21c1.94 3.99 5.92 6.28 10.08 6.29 1.64 0 3.29-.36 4.89-1.14l7.46 15.29a28.21 28.21 0 0 1-12.35 2.86c-10.43.01-20.48-5.83-25.37-15.84l15.29-7.46"/><path style="fill:#52b2d7;fill-opacity:1;fill-rule:nonzero;stroke:none" d="M2152.81 2837.23c-5.62 3.68-8.64 9.76-8.65 16.01.01 3.6 1 7.19 3.13 10.44 3.67 5.61 9.75 8.63 16 8.64 3.6-.01 7.18-1 10.44-3.12l37.13-24.32c5.62-3.68 8.64-9.75 8.65-16.01-.01-3.59-1-7.18-3.13-10.43l14.23-9.32a36.038 36.038 0 0 1 5.91 19.75c.01 11.75-5.77 23.32-16.34 30.23l-37.14 24.32a35.932 35.932 0 0 1-19.75 5.91c-11.74.01-23.31-5.76-30.23-16.34a36.014 36.014 0 0 1-5.91-19.75c-.01-11.74 5.77-23.31 16.34-30.23l9.32 14.22"/><path style="fill:#38a6d7;fill-opacity:1;fill-rule:nonzero;stroke:none" d="m2093.05 2896.36 54.1-26.39c3.99-1.94 6.29-5.93 6.3-10.09a11.21 11.21 0 0 0-1.14-4.89l15.29-7.46c1.93 3.96 2.86 8.2 2.85 12.35a28.215 28.215 0 0 1-15.84 25.38l-54.1 26.39-7.46-15.29M2103.91 2803.82c.32-2.42.94-5.58 1.48-9.3.54-3.67.99-7.77.99-11.26.05-3.35-.54-6.1-.96-6.81l-.11-.21 1.14-.94-.62 1.33-.52-.39 1.14-.94-.62 1.33.56-1.2-.27 1.3-.29-.1.56-1.2-.27 1.3.04-.18-.02.18h-.02l.04-.18-.02.18h-.18c-4.7.09-8.58-3.65-8.67-8.34-.08-4.7 3.65-8.58 8.35-8.67h.4c3.14-.03 6.46.88 9.08 2.68 4 2.74 5.94 6.69 6.96 10.2 1.03 3.59 1.3 7.15 1.31 10.66-.01 4.85-.57 9.63-1.17 13.73-.6 4.06-1.26 7.58-1.46 9.07-.61 4.66-4.89 7.93-9.55 7.31a8.498 8.498 0 0 1-7.3-9.55M2058.03 2957.37l-.45.71.72 1.46 1.55.73v2.49l-.05-2.49h.05v2.49l-.05-2.49h.08c.62.01 1.93-.28 3.59-1.16 2.5-1.28 5.59-3.79 8.24-6.6 2.66-2.79 4.95-5.91 6.17-8.03a8.51 8.51 0 0 1 11.63-3.08c4.06 2.36 5.43 7.57 3.07 11.63-2.75 4.68-6.99 10.09-12.32 14.86-2.67 2.37-5.61 4.57-8.91 6.3-3.29 1.71-7.01 3.02-11.24 3.09h.08-.34c-5.54 0-10.42-2.43-13.76-5.9-3.36-3.48-5.49-8.11-5.52-13.3-.06-4.72 2.09-9.85 6.08-13.36 3.5-3.14 8.87-2.86 12.01.64a8.507 8.507 0 0 1-.63 12.01M2053.16 2845.38c-1.46-.84-3.32-1.32-5.55-1.32-2.09-.01-4.44.44-6.62 1.26-7.1 2.57-15.23 8.78-22.95 14.56a8.5 8.5 0 0 1-11.9-1.77c-2.79-3.77-2-9.1 1.77-11.89 7.52-5.51 16.42-12.79 27.15-16.85 3.91-1.44 8.15-2.31 12.55-2.32 4.65 0 9.55 1.01 14.04 3.59 4.07 2.35 5.47 7.55 3.13 11.62-2.35 4.07-7.55 5.46-11.62 3.12"/><path style="fill:#52b2d7;fill-opacity:1;fill-rule:nonzero;stroke:none" d="M1899.86 2829.61c.02 10.55 8.55 19.08 19.1 19.1h44.39c10.54-.02 19.08-8.56 19.1-19.11-.02-10.54-8.56-19.08-19.1-19.1v-17.01c19.94.01 36.1 16.17 36.11 36.11-.01 19.94-16.16 36.11-36.11 36.11l-44.39.01c-19.95-.01-36.11-16.16-36.11-36.11h17.01"/><path style="fill:#38a6d7;fill-opacity:1;fill-rule:nonzero;stroke:none" d="M1913.75 2834.32c2.46-.49 4.16-2.7 4.16-5.1l-.11-1.06v.01c-.48-2.47-2.7-4.17-5.09-4.17l-1.06.1-70.7 14.5c-2.47.49-4.17 2.7-4.17 5.09l.11 1.05-16.66 3.43c-.31-1.5-.46-3-.46-4.48a22.22 22.22 0 0 1 17.76-21.75l70.71-14.5c1.49-.3 2.99-.45 4.47-.45 10.36 0 19.58 7.24 21.75 17.76l.01.01c.3 1.48.45 2.98.45 4.46 0 10.37-7.24 19.59-17.76 21.76l-3.41-16.66"/><path style="fill:#52b2d7;fill-opacity:1;fill-rule:nonzero;stroke:none" d="m1792.7 2884.17-2.74-8.05 42.03-14.3c7.95-2.69 12.95-10.13 12.95-18.07 0-2.04-.32-4.1-1.02-6.16-2.69-7.95-10.14-12.95-18.08-12.96-2.03 0-4.1.33-6.16 1.03l-42.02 14.3c-7.96 2.69-12.95 10.14-12.96 18.08 0 2.03.33 4.09 1.03 6.15 2.69 7.96 10.14 12.95 18.08 12.96 2.03 0 4.09-.33 6.15-1.03l2.74 8.05 2.74 8.05a35.965 35.965 0 0 1-11.63 1.94c-15.05 0-29.06-9.47-34.18-24.49a35.965 35.965 0 0 1-1.94-11.63c0-15.05 9.47-29.06 24.49-34.18l42.03-14.3a35.95 35.95 0 0 1 11.63-1.93c15.05-.01 29.05 9.46 34.18 24.48a36.01 36.01 0 0 1 1.93 11.64c.01 15.04-9.46 29.05-24.48 34.18l-42.03 14.29-2.74-8.05"/><path style="fill:#38a6d7;fill-opacity:1;fill-rule:nonzero;stroke:none" d="M1836.89 2844.75c.49 2.47 2.7 4.17 5.09 4.17l1.06-.11 70.7-14.49 3.42 16.66-70.7 14.49h.01c-1.5.31-3.01.46-4.49.46-10.36 0-19.58-7.25-21.75-17.77l16.66-3.41"/><path style="fill:#52b2d7;fill-opacity:1;fill-rule:nonzero;stroke:none" d="m1963.35 2810.5-44.4.01c-10.54.02-19.08 8.55-19.09 19.09v.01h-8.47l8.42-.94.05.94h-8.47l8.42-.94-16.91 1.88-.05-.94v-.01c.01-19.94 16.16-36.09 36.1-36.1h44.4v17M2059.18 2794.77c1.01-1.81 1.47-3.72 1.47-5.63-.01-4.1-2.14-8.04-5.97-10.17l-28.28-15.74a11.562 11.562 0 0 0-5.63-1.48c-4.1.02-8.05 2.15-10.17 5.97a11.505 11.505 0 0 0-1.47 5.64c.01 4.1 2.14 8.04 5.96 10.17 4.11 2.28 5.58 7.46 3.3 11.57a8.513 8.513 0 0 1-11.57 3.29c-9.39-5.23-14.71-15-14.7-25.03 0-4.71 1.18-9.53 3.62-13.91 5.23-9.39 15-14.71 25.03-14.7 4.71-.01 9.52 1.17 13.91 3.62l28.27 15.74c9.39 5.23 14.72 15 14.71 25.03 0 4.71-1.18 9.52-3.62 13.91a8.516 8.516 0 0 1-11.57 3.29c-4.1-2.29-5.58-7.47-3.29-11.57M1972.62 2899.15l28.27 15.75c1.81 1.01 3.72 1.47 5.63 1.47 4.11-.01 8.05-2.14 10.18-5.97 2.28-4.1 7.46-5.58 11.56-3.29 4.11 2.28 5.58 7.46 3.3 11.57-5.24 9.39-15 14.71-25.04 14.7-4.71 0-9.52-1.18-13.9-3.62l-28.28-15.75c-4.1-2.28-5.57-7.46-3.29-11.56 2.29-4.11 7.47-5.58 11.57-3.3"/><path style="fill:#1e8ed6;fill-opacity:1;fill-rule:nonzero;stroke:none" d="m2246.21 2826.94-14.55-62.11 8.28-1.94 14.55 62.11"/><path style="fill:#52b2d7;fill-opacity:1;fill-rule:nonzero;stroke:none" d="M3719.96 2867.6c-3.76-5.05-9.47-7.68-15.33-7.69a18.98 18.98 0 0 0-11.39 3.79l-35.61 26.52-10.15-13.64 35.6-26.52a36.04 36.04 0 0 1 21.55-7.16c10.99-.01 21.9 5.04 28.98 14.54l-13.65 10.16"/><path style="fill:#38a6d7;fill-opacity:1;fill-rule:nonzero;stroke:none" d="m3736.86 2835.84-5.01 6.87a17.257 17.257 0 0 0-10.26-3.35c-5.41.01-10.68 2.47-14.11 7.16a17.257 17.257 0 0 0-3.35 10.26c.01 5.41 2.47 10.69 7.17 14.11 3.12 2.28 6.67 3.35 10.25 3.36 5.41-.02 10.69-2.47 14.12-7.17 2.27-3.13 3.34-6.68 3.35-10.26-.01-5.41-2.47-10.68-7.17-14.11l5.01-6.87 5.01-6.87c9.24 6.73 14.17 17.25 14.16 27.85 0 7.03-2.17 14.18-6.62 20.28a34.4 34.4 0 0 1-27.86 14.15c-7.03.01-14.18-2.16-20.28-6.61a34.455 34.455 0 0 1-14.15-27.86 34.339 34.339 0 0 1 6.62-20.28c6.73-9.23 17.26-14.16 27.85-14.15 7.03-.01 14.19 2.17 20.29 6.62l-5.02 6.87M3642.95 2903.73l-52.39 29.62c-3.66 2.06-5.68 5.84-5.7 9.77.01 1.87.46 3.73 1.46 5.49l-14.81 8.37a28.016 28.016 0 0 1-3.65-13.86 28.191 28.191 0 0 1 14.33-24.58l52.39-29.62 8.37 14.81"/><path style="fill:#38a6d7;fill-opacity:1;fill-rule:nonzero;stroke:none" d="m3828.12 2693.34-113.57 122.8 48.55 44.91 113.58-122.8-48.56-44.91M3658.22 2907.97c-2.06-3.66-5.84-5.68-9.77-5.69-1.87 0-3.73.45-5.5 1.45l-8.36-14.81c4.36-2.46 9.16-3.65 13.86-3.65 9.82-.01 19.39 5.16 24.58 14.33l-14.81 8.37M3586.32 2948.61c2.06 3.66 5.83 5.68 9.76 5.69 1.87 0 3.73-.46 5.49-1.45l8.37 14.8a28.134 28.134 0 0 1-13.86 3.66c-9.82.01-19.39-5.17-24.57-14.33l14.81-8.37"/><path style="fill:#52b2d7;fill-opacity:1;fill-rule:nonzero;stroke:none" d="M3657.63 2890.22c-5.04 3.76-7.67 9.47-7.69 15.33a18.98 18.98 0 0 0 3.79 11.39c3.76 5.05 9.47 7.68 15.33 7.69 3.98 0 7.94-1.21 11.39-3.78l35.61-26.52c5.05-3.76 7.68-9.48 7.69-15.34-.01-3.98-1.22-7.93-3.79-11.39l13.64-10.16a36.062 36.062 0 0 1 7.16 21.55c.01 10.99-5.04 21.91-14.54 28.98l-35.61 26.52a35.962 35.962 0 0 1-21.55 7.15c-10.98.01-21.9-5.04-28.97-14.54a35.962 35.962 0 0 1-7.15-21.55 36.041 36.041 0 0 1 14.54-28.97l10.16 13.64"/><path style="fill:#38a6d7;fill-opacity:1;fill-rule:nonzero;stroke:none" d="m3601.57 2952.85 52.41-29.62c3.65-2.06 5.68-5.84 5.69-9.77 0-1.87-.46-3.73-1.45-5.49l14.81-8.37c2.46 4.36 3.65 9.16 3.65 13.86.01 9.82-5.17 19.39-14.33 24.58l-52.41 29.61-8.37-14.8M3564.26 3003.87c-.75-2.04-1.56-4.65-2.61-7.7-1.55-4.53-3.65-9.86-5.83-13.43-1.07-1.79-2.16-3.09-2.79-3.6l-.35-.27-.09-.05.57-1.18v1.28l-.57-.1.57-1.18v1.28-1.43l.38 1.38-.38.05v-1.43l.38 1.38-.04-.18.07.18h-.03l-.04-.18.07.18-.14.06c-4.1 2.29-9.28.82-11.56-3.28-2.29-4.11-.82-9.29 3.28-11.57 2.39-1.35 5.2-2.18 8.01-2.17 2.96-.01 5.72.9 7.91 2.17 3.87 2.26 6.34 5.33 8.44 8.49 3.1 4.76 5.29 10.07 7.05 14.8 1.73 4.67 3.03 8.94 3.65 10.6 1.63 4.4-.62 9.29-5.02 10.92a8.49 8.49 0 0 1-10.93-5.02M3559.74 3063.27l-.13.58.41.68 1.79.68.92-.23c.55-.29 1.58-1.15 2.64-2.7 1.61-2.31 3.17-5.97 4.19-9.69 1.05-3.71 1.61-7.54 1.7-9.99.19-4.69 4.15-8.34 8.85-8.15 4.69.19 8.34 4.15 8.15 8.84-.24 5.42-1.47 12.19-3.95 18.9-1.25 3.35-2.83 6.66-4.94 9.73-2.11 3.05-4.79 5.95-8.5 7.99a18.829 18.829 0 0 1-9.06 2.3c-4.92-.02-9.47-1.8-13.04-4.93-3.56-3.09-6.19-7.92-6.17-13.43 0-2.15.4-4.35 1.17-6.45 1.62-4.4 6.51-6.66 10.92-5.04s6.67 6.51 5.05 10.91M3528.28 2890.88l-.31-.01c-1.59 0-3.37.46-5.22 1.44-1.85.98-3.71 2.47-5.26 4.21-5.07 5.59-9.37 14.87-13.48 23.59a8.508 8.508 0 0 1-11.35 4c-4.23-2.03-6.02-7.11-4-11.34 4.07-8.39 8.55-18.98 16.15-27.58 2.77-3.1 6.09-5.84 9.97-7.9 3.86-2.05 8.35-3.42 13.19-3.42l.93.01c4.69.17 8.36 4.11 8.19 8.81a8.505 8.505 0 0 1-8.81 8.19"/><path style="fill:#52b2d7;fill-opacity:1;fill-rule:nonzero;stroke:none" d="m3504.42 2970.87.01-.27c0-6.29-5.04-11.48-11.36-11.61l-32.36-.72h-.27c-6.27 0-11.47 5.04-11.6 11.37v.26c-.01 6.28 5.03 11.47 11.36 11.6 4.7.11 8.42 4 8.32 8.69-.11 4.7-3.99 8.42-8.69 8.32-15.6-.35-28-13.08-28-28.61l.01-.64c.35-15.6 13.08-27.99 28.6-28l.64.01 32.37.71c15.59.36 27.98 13.09 27.98 28.62v.62c-.1 4.69-3.98 8.42-8.68 8.33-4.69-.1-8.42-3.98-8.33-8.68M3471.98 3037.63l32.35.71h.27c6.29.01 11.48-5.04 11.61-11.36.11-4.7 4-8.42 8.69-8.32 4.7.11 8.42 4 8.32 8.69-.36 15.6-13.09 28-28.62 28l-.64-.01-32.35-.71c-4.7-.1-8.42-3.99-8.32-8.69.11-4.69 4-8.42 8.69-8.31"/><path style="fill:#1e8ed6;fill-opacity:1;fill-rule:nonzero;stroke:none" d="m3758.48 2862.66-47.34-42.75 5.7-6.31 47.34 42.75"/></g><path style="fill:#211316;fill-opacity:1;fill-rule:nonzero;stroke:none" d="M3993.34 2177.91v226.42l196.08-113.21zm-182.11 218.72v-211.02c0-48.23 39.09-87.32 87.32-87.32h385.66c48.22 0 87.32 39.09 87.32 87.32v211.02c0 48.22-39.1 87.32-87.32 87.32h-385.66c-48.23 0-87.32-39.1-87.32-87.32" transform="matrix(.13333 0 0 -.13333 0 666.667)"/><path style="fill:#e82b36;fill-opacity:1;fill-rule:nonzero;stroke:none" d="M4496.18 2291.12h-21.26c-.01-105.98-42.9-201.73-112.34-271.2-69.48-69.44-165.23-112.32-271.21-112.33-105.97.01-201.72 42.89-271.19 112.33-69.44 69.47-112.33 165.22-112.34 271.2.01 105.98 42.9 201.73 112.34 271.2 69.47 69.44 165.22 112.32 271.19 112.34 105.98-.02 201.73-42.9 271.21-112.34 69.44-69.47 112.33-165.22 112.34-271.2h42.52c-.02 235.31-190.75 426.04-426.07 426.05-235.3-.01-426.04-190.74-426.05-426.05.01-235.31 190.75-426.04 426.05-426.05 235.32.01 426.05 190.74 426.07 426.05h-21.26" transform="matrix(.13333 0 0 -.13333 0 666.667)"/><path style="fill:#e82b36;fill-opacity:1;fill-rule:nonzero;stroke:none" d="m3815.63 1985.31 581.57 581.56-30.07 30.06-581.57-581.56" transform="matrix(.13333 0 0 -.13333 0 666.667)"/><path style="fill:#211316;fill-opacity:1;fill-rule:nonzero;stroke:none" d="M1015.89 3038.32c43.75 0 79.21 35.47 79.21 79.21H936.68c0-43.74 35.465-79.21 79.21-79.21zm162.83 225.17v116.61c0 70.73-45.17 130.75-108.17 153.23a57.401 57.401 0 0 1 2.55 16.94c0 31.59-25.61 57.2-57.21 57.2-31.593 0-57.206-25.61-57.206-57.2 0-5.9.898-11.59 2.554-16.94-63-22.49-108.172-82.5-108.172-153.23v-116.61c0-42.53-34.476-77.01-77.011-77.01v-42.54h479.675v42.54c-42.54 0-77.01 34.48-77.01 77.01" transform="matrix(.13333 0 0 -.13333 0 666.667)"/><path style="fill:#e82b36;fill-opacity:1;fill-rule:nonzero;stroke:none" d="M1420.69 3322.9h-21.26c-.01-105.98-42.9-201.73-112.34-271.2-69.47-69.44-165.22-112.33-271.2-112.34-105.976.01-201.726 42.9-271.199 112.34-69.441 69.47-112.328 165.22-112.336 271.2.008 105.98 42.895 201.73 112.336 271.2 69.473 69.44 165.223 112.32 271.199 112.33 105.98-.01 201.73-42.89 271.2-112.33 69.44-69.47 112.33-165.22 112.34-271.2h42.52c-.01 235.31-190.75 426.04-426.06 426.05-235.308-.01-426.042-190.74-426.054-426.05.012-235.32 190.746-426.04 426.054-426.06 235.31.02 426.05 190.74 426.06 426.06h-21.26" transform="matrix(.13333 0 0 -.13333 0 666.667)"/><path style="fill:#e82b36;fill-opacity:1;fill-rule:nonzero;stroke:none" d="m740.141 3017.08 581.559 581.57-30.06 30.06-581.566-581.56" transform="matrix(.13333 0 0 -.13333 0 666.667)"/><path style="fill:#211316;fill-opacity:1;fill-rule:nonzero;stroke:none" d="M3895.48 3895.41c-16.4 0-31.13-7-41.61-18.05-9.76-10.31-15.86-24.14-15.86-39.42 0-31.69 25.79-57.48 57.47-57.48 31.69 0 57.49 25.79 57.49 57.48 0 15.28-6.1 29.11-15.86 39.42-10.48 11.05-25.22 18.05-41.63 18.05zm-122.91 63.24 40.59-40.58c20.88 21.45 50.02 34.82 82.32 34.82 32.31 0 61.46-13.37 82.34-34.82l40.58 40.58c-31.3 31.87-74.82 51.71-122.92 51.71-48.09 0-91.6-19.84-122.91-51.71zm-81.26 81.28 40.64-40.66c41.72 42.28 99.6 68.57 163.53 68.57 63.95 0 121.83-26.29 163.55-68.57l40.64 40.66c-52.11 52.68-124.39 85.38-204.19 85.38-79.78 0-152.06-32.7-204.17-85.38zm204.17 200.34c-111.47 0-212.49-45.61-285.42-119.1l40.62-40.63c62.53 63.1 149.17 102.25 244.8 102.25 95.64 0 182.29-39.15 244.82-102.25l40.61 40.63c-72.93 73.49-173.94 119.1-285.43 119.1" transform="matrix(.13333 0 0 -.13333 0 666.667)"/><path style="fill:#e82b36;fill-opacity:1;fill-rule:nonzero;stroke:none" d="M4300.29 4010.36h-21.26c-.01-105.97-42.9-201.72-112.34-271.2-69.47-69.44-165.23-112.32-271.21-112.33-105.97.01-201.72 42.89-271.19 112.33-69.44 69.48-112.33 165.23-112.34 271.2.01 105.98 42.9 201.73 112.34 271.21 69.47 69.44 165.22 112.32 271.19 112.33 105.98-.01 201.74-42.89 271.21-112.33 69.44-69.48 112.33-165.23 112.34-271.21h42.52c-.01 235.32-190.75 426.05-426.07 426.06-235.3-.01-426.04-190.74-426.05-426.06.01-235.31 190.75-426.04 426.05-426.05 235.32.01 426.06 190.74 426.07 426.05h-21.26" transform="matrix(.13333 0 0 -.13333 0 666.667)"/><path style="fill:#e82b36;fill-opacity:1;fill-rule:nonzero;stroke:none" d="m3619.74 3704.55 581.56 581.56-30.07 30.07-581.56-581.57" transform="matrix(.13333 0 0 -.13333 0 666.667)"/></svg>