<svg xmlns="http://www.w3.org/2000/svg" height="666.667" width="666.667" xml:space="preserve"><defs><clipPath id="a" clipPathUnits="userSpaceOnUse"><path d="M1767.81 4080c-75.71 0-137.31-61.6-137.31-137.3V1057.3c0-75.71 61.6-137.3 137.31-137.3h1521.37c75.72 0 137.32 61.59 137.32 137.3v2885.4c0 75.7-61.6 137.3-137.32 137.3H1767.81"/></clipPath></defs><path style="fill:#fefcfb;fill-opacity:1;fill-rule:nonzero;stroke:none" d="M0 0h5000v5000H0z" transform="matrix(.13333 0 0 -.13333 0 666.667)"/><path style="fill:#f8cfe1;fill-opacity:1;fill-rule:nonzero;stroke:none" d="M4496.68 2500c0-1102.72-893.96-1996.68-1996.67-1996.68-1102.74 0-1996.678 893.96-1996.678 1996.68 0 1102.73 893.938 1996.67 1996.678 1996.67 1102.71 0 1996.67-893.94 1996.67-1996.67" transform="matrix(.13333 0 0 -.13333 0 666.667)"/><path style="fill:#fbe9ef;fill-opacity:1;fill-rule:nonzero;stroke:none" d="M976.637 3790.82c-55.383 75.65-88.082 168.96-88.082 269.9 0 252.61 204.775 457.39 457.385 457.39 149.67 0 282.53-71.87 365.98-182.99-285.72-122.85-536.9-310.39-735.283-544.3" transform="matrix(.13333 0 0 -.13333 0 666.667)"/><path style="fill:#f5bfd7;fill-opacity:1;fill-rule:nonzero;stroke:none" d="M1345.94 3603.33c-151.66 0-286.09 73.82-369.303 187.49 198.383 233.91 449.563 421.45 735.283 544.3 29.29-39.01 52.5-82.86 68.19-130.12h-12.3c-144.87 0-262.31-117.44-262.31-262.3v-310.77c-49.68-18.49-103.44-28.6-159.56-28.6" transform="matrix(.13333 0 0 -.13333 0 666.667)"/><path style="fill:#fefcfb;fill-opacity:1;fill-rule:nonzero;stroke:none" d="M1743.33 4127.38c0-252.6-204.78-457.39-457.39-457.39-252.61 0-457.385 204.79-457.385 457.39 0 252.62 204.775 457.39 457.385 457.39 252.61 0 457.39-204.77 457.39-457.39" transform="matrix(.13333 0 0 -.13333 0 666.667)"/><path style="fill:#374c60;fill-opacity:1;fill-rule:nonzero;stroke:none" d="m1239.8 4389.84-34.14-68.67-74.06-148.96c-37.96 14.19-83.53-6.52-104.61-48.9-22.32-44.89-8.7-97.04 30.41-116.48 38.39-19.1 87.03.5 109.91 43.71l.1-.06 124.77 250.94 145.41-33.2-80.53-161.96c-37.93 14.19-83.51-6.51-104.59-48.9-22.31-44.88-8.71-97.03 30.4-116.48 39.11-19.44 88.9 1.18 111.22 46.07l.61 1.37.06-.03 129.36 260.18 20.27 40.77 13.88 27.89-318.47 72.71" transform="matrix(.13333 0 0 -.13333 0 666.667)"/><path style="fill:#30634d;fill-opacity:1;fill-rule:nonzero;stroke:none" d="M5074.76 3643.82c68.93-445.72 60.09-1130.76-78.18-1152.13-138.26-21.39-353.6 628.97-422.53 1074.71-68.94 445.74 34.65 518.04 172.92 539.43 138.27 21.38 258.87-16.27 327.79-462.01" transform="matrix(.13333 0 0 -.13333 0 666.667)"/><path style="fill:#7baa98;fill-opacity:1;fill-rule:nonzero;stroke:none" d="M4725.02 4100.49c0-.02 1.17-5.49 3.37-15.99 16.54-78.75 91.04-438.93 161.38-866.8 70.35-427.82 136.51-923.56 136.49-1272.48 0-31.73-.55-62.25-1.68-91.37-.22-5.52 4.08-10.17 9.6-10.39 5.52-.21 10.17 4.09 10.38 9.61 1.15 29.42 1.7 60.19 1.7 92.15-.03 374.67-75.48 914.16-150.87 1360.42-75.41 446.2-150.8 798.94-150.82 799.03-1.15 5.4-6.46 8.84-11.87 7.69-5.4-1.16-8.84-6.47-7.68-11.87" transform="matrix(.13333 0 0 -.13333 0 666.667)"/><path style="fill:#7baa98;fill-opacity:1;fill-rule:nonzero;stroke:none" d="m4566.93 3632.73 267.19-105.42c5.14-2.02 10.95.5 12.98 5.64 2.02 5.13-.5 10.94-5.64 12.97l-267.19 105.42c-5.13 2.03-10.94-.5-12.97-5.63-2.02-5.14.5-10.95 5.63-12.98M4911.36 3214.04l197.25 182.05c4.06 3.74 4.31 10.07.56 14.13-3.74 4.06-10.07 4.31-14.13.57l-197.24-182.05c-4.06-3.75-4.31-10.08-.57-14.14 3.75-4.05 10.07-4.31 14.13-.56M4800.09 3823.34l125.85 244.05c2.53 4.9.6 10.93-4.31 13.47-4.9 2.53-10.94.6-13.47-4.31l-125.85-244.04c-2.53-4.91-.6-10.94 4.31-13.47 4.91-2.53 10.94-.61 13.47 4.3M4729.52 2929.54l219.97-85.93c5.14-2.01 10.94.53 12.95 5.67a9.991 9.991 0 0 1-5.68 12.95l-219.97 85.94c-5.14 2.01-10.94-.53-12.95-5.67-2.01-5.15.53-10.95 5.68-12.96" transform="matrix(.13333 0 0 -.13333 0 666.667)"/><path style="fill:#4d8c73;fill-opacity:1;fill-rule:nonzero;stroke:none" d="M543.879 4365.92c-207.738 400.35-619.617 947.81-743.789 883.37-124.192-64.44 86.336-716.38 294.066-1116.73 207.742-400.34 334.043-397.47 458.227-333.04 124.183 64.44 199.222 166.07-8.504 566.4" transform="matrix(.13333 0 0 -.13333 0 666.667)"/><path style="fill:#7baa98;fill-opacity:1;fill-rule:nonzero;stroke:none" d="M549.754 3799.04c-.113.21-464.985 1037.1-878.703 1692.57-2.949 4.67-9.125 6.07-13.797 3.12-4.668-2.95-6.067-9.13-3.117-13.8 206.203-326.65 425.632-749.3 593.414-1090.15 83.898-170.43 154.894-320.43 204.914-427.81 25.008-53.69 44.773-96.73 58.281-126.34 6.758-14.8 11.949-26.25 15.449-33.99 3.5-7.75 5.305-11.77 5.309-11.78 2.262-5.04 8.18-7.29 13.219-5.03s7.293 8.17 5.031 13.21" transform="matrix(.13333 0 0 -.13333 0 666.667)"/><path style="fill:#7baa98;fill-opacity:1;fill-rule:nonzero;stroke:none" d="m144.516 4064.16 153.289 242.93c2.945 4.67 1.547 10.84-3.121 13.79-4.672 2.95-10.848 1.55-13.793-3.12l-153.289-242.93c-2.946-4.67-1.547-10.84 3.121-13.79 4.672-2.95 10.847-1.55 13.793 3.12M155.852 4596.25l266.707-30.33c5.484-.62 10.441 3.32 11.062 8.81.625 5.48-3.316 10.44-8.805 11.07l-266.703 30.33c-5.488.62-10.441-3.32-11.066-8.81-.625-5.48 3.316-10.44 8.805-11.07M419.41 4040.91l245.719-122.53c4.941-2.46 10.945-.46 13.41 4.49 2.465 4.94.457 10.94-4.484 13.41l-245.719 122.53c-4.945 2.46-10.949.45-13.414-4.49s-.453-10.94 4.488-13.41" transform="matrix(.13333 0 0 -.13333 0 666.667)"/><path style="fill:#acc9bf;fill-opacity:1;fill-rule:nonzero;stroke:none" d="M5064.71 1502.44c90.89-518.608 36.53-961.46 36.53-961.46s-201.73 397.969-292.63 916.58c-90.88 518.61-36.52 961.46-36.52 961.46s201.73-397.96 292.62-916.58" transform="matrix(.13333 0 0 -.13333 0 666.667)"/><path style="fill:#9bbcb1;fill-opacity:1;fill-rule:nonzero;stroke:none" d="M5000 1085.58c-9.19 18.28-18.63 36.62-28.32 55.02-49.17 93.3-101.1 180.66-152.69 260.68-3.6 18.59-7.06 37.35-10.38 56.28-4.26 24.35-8.2 48.53-11.85 72.52 51.77-131.41 91.15-209.1 91.15-209.1s49.37 402.24-24.67 888.94c42.2-107.08 92.65-249.84 136.76-415.36v-708.98" transform="matrix(.13333 0 0 -.13333 0 666.667)"/><path style="fill:#30634d;fill-opacity:1;fill-rule:nonzero;stroke:none" d="M3900.49 245.809C4147.84-131.34 4423.53-758.512 4306.54-835.23c-116.99-76.731-582.37 426.031-829.73 803.18-247.38 377.159-183.04 485.87-66.05 562.609 117 76.722 242.35 92.41 489.73-284.75" transform="matrix(.13333 0 0 -.13333 0 666.667)"/><path style="fill:#7baa98;fill-opacity:1;fill-rule:nonzero;stroke:none" d="M3393 516.602c.01-.02 3.63-4.911 10.53-14.282 51.71-70.351 286.58-392.011 540.21-773.648 253.61-381.57 526.04-823.462 652.47-1132.862 2.09-5.12 7.93-7.57 13.04-5.48 5.11 2.09 7.56 7.93 5.48 13.04-136.18 333.01-437.43 813.771-704.82 1211.919-267.36 398.063-500.78 713.133-500.84 713.211a9.998 9.998 0 0 1-13.99 2.082c-4.44-3.281-5.37-9.551-2.08-13.98" transform="matrix(.13333 0 0 -.13333 0 666.667)"/><path style="fill:#7baa98;fill-opacity:1;fill-rule:nonzero;stroke:none" d="m3442.86 25.371 286.85 14.73c5.52.278 9.76 4.989 9.48 10.5-.29 5.52-4.99 9.758-10.5 9.47l-286.86-14.72c-5.51-.28-9.76-4.992-9.47-10.5.28-5.519 4.98-9.761 10.5-9.48M3929.77-213.051l104.12 247.403c2.15 5.09-.24 10.957-5.33 13.097-5.09 2.14-10.96-.25-13.1-5.34l-104.12-247.398c-2.14-5.09.25-10.949 5.34-13.102 5.09-2.14 10.95.25 13.09 5.34M3576.12 295.441l13.47 274.25c.27 5.508-3.98 10.2-9.5 10.469-5.52.281-10.21-3.98-10.48-9.488l-13.47-274.25c-.27-5.524 3.99-10.211 9.5-10.481 5.52-.269 10.21 3.981 10.48 9.5" transform="matrix(.13333 0 0 -.13333 0 666.667)"/><path style="fill:#4d8c73;fill-opacity:1;fill-rule:nonzero;stroke:none" d="M716.172 1102.69c5.558 9.63-73.027-17.71-154.57-45.06-89.368-29.96-182.293-59.931-171.926-41.23 19.832 35.75 324.527 160.32 345.418 173.51 10.258 6.49 72.152 284.39 132.504 565.54-109.981-73.42-242.77-171.43-228.172-141.3 15.086 31.18 137.594 124.87 244.801 219 47.05 220.67 90.054 427.75 102.855 489.55l-12.547 9.51c-56.031-29.06-243.734-126.52-443.418-231.56-61.574-128.68-118.617-271.98-144.535-294.95-25.074-22.2 33.328 132.16 74.231 257.91-254.305-134.21-505.07-269.05-508.524-280.67-7.059-23.67-44.477-350.72-73.523-379.49-14.743-14.61-11.704 76.86-7.258 168.32 4.312 88.77 9.949 177.55 1.933 169.33-16.242-16.67-241.617-534.1-15.152-894.768l-.18-.25.411-.102.207-.351.191.242C267.434 725.512 704.52 1082.55 716.172 1102.69" transform="matrix(.13333 0 0 -.13333 0 666.667)"/><path style="fill:#c7ddd4;fill-opacity:1;fill-rule:nonzero;stroke:none" d="M-226.121 717.691 856.117 2146.3c3.332 4.4 2.469 10.67-1.933 14.01-4.403 3.33-10.676 2.46-14.008-1.94L-242.063 729.77c-3.335-4.399-2.468-10.68 1.934-14.008 4.399-3.34 10.672-2.473 14.008 1.929" transform="matrix(.13333 0 0 -.13333 0 666.667)"/><path style="fill:#c7ddd4;fill-opacity:1;fill-rule:nonzero;stroke:none" d="m265.461 1796.92-61.305-483.03c-.695-5.48 3.184-10.49 8.66-11.18 5.481-.7 10.485 3.18 11.18 8.66l61.305 483.03c.695 5.48-3.184 10.49-8.66 11.18-5.481.7-10.485-3.18-11.18-8.66M-4.98 1008.69l584.132 282.8c4.973 2.4 7.051 8.39 4.645 13.36-2.406 4.97-8.391 7.05-13.359 4.64l-584.13-282.8c-4.972-2.41-7.05-8.39-4.644-13.36 2.406-4.97 8.387-7.05 13.356-4.64" transform="matrix(.13333 0 0 -.13333 0 666.667)"/><path style="fill:#c9dad1;fill-opacity:1;fill-rule:nonzero;stroke:none" d="M638.316 1610.54c.004.89.368 2.08 1.11 3.61 1.801 3.73 5.14 8.35 9.804 13.76.016.01.02.01.04.02-4.661-5.41-8.04-10.05-9.844-13.78-.742-1.53-1.106-2.72-1.11-3.61" transform="matrix(.13333 0 0 -.13333 0 666.667)"/><path style="fill:#3d7960;fill-opacity:1;fill-rule:nonzero;stroke:none" d="M35.402 821.141c-11.761 0-23.593.3-35.402.918V1011.1l579.152 280.39c4.973 2.4 7.051 8.39 4.645 13.36a10.013 10.013 0 0 1-9.012 5.64 9.949 9.949 0 0 1-4.347-1L20.5 1043.24l196.934 259.97a9.973 9.973 0 0 1 6.562 8.16l.078.6 122.481 161.68c100.691 38.11 202.875 89.68 302.675 154.26-4.664-5.41-8.003-10.03-9.804-13.76-.742-1.53-1.106-2.72-1.11-3.61-.003-1.34.797-1.98 2.34-1.98 17.598.01 130.957 82.81 226.942 146.89-22.965-106.98-46.157-213.5-66.633-304.77l-.879-3.9c-64.59-108.68-127.199-214.45-184.074-310.75-95.207-42.53-214.192-97.74-226.336-119.63-.531-.96-.789-1.79-.793-2.5-.012-2.27 2.609-3.3 7.39-3.3 22.879 0 95.2 23.52 165.329 47.03 3.386 1.14 6.777 2.28 10.152 3.41-20.754-35.19-40.508-68.708-59.035-100.181-126.34-70.109-298.278-139.73-477.317-139.718M0 1049.3v346.08c70.184 4.27 143.781 16.65 219.191 36.97l-14.285-112.56L0 1049.3m229.121 302.46 10.969 86.41a1348.93 1348.93 0 0 1 71.828 22.88l-82.797-109.29" transform="matrix(.13333 0 0 -.13333 0 666.667)"/><path style="fill:#9dbfb1;fill-opacity:1;fill-rule:nonzero;stroke:none" d="M0 1033.32v15.98l204.906 270.49-.75-5.9c-.695-5.48 3.184-10.49 8.66-11.18.43-.06.852-.08 1.274-.08 1.164 0 2.293.2 3.344.58L20.5 1043.24 0 1033.32m224.074 278.65 5.047 39.79 82.797 109.29c11.52 4.02 23.07 8.22 34.637 12.6l-122.481-161.68" transform="matrix(.13333 0 0 -.13333 0 666.667)"/><path style="fill:#9dbfb1;fill-opacity:1;fill-rule:nonzero;stroke:none" d="M214.09 1302.63c-.422 0-.844.02-1.274.08-5.476.69-9.355 5.7-8.66 11.18l.75 5.9 14.285 112.56c6.942 1.87 13.93 3.82 20.899 5.82l-10.969-86.41-5.047-39.79-.078-.6a9.973 9.973 0 0 0-6.562-8.16 9.825 9.825 0 0 0-3.344-.58M0 1011.1v22.22l20.5 9.92 549.938 266.25c1.406.68 2.886 1 4.347 1 3.715 0 7.285-2.08 9.012-5.64 2.406-4.97.328-10.96-4.645-13.36L0 1011.1" transform="matrix(.13333 0 0 -.13333 0 666.667)"/><path style="fill:#4d8c73;fill-opacity:1;fill-rule:nonzero;stroke:none" d="M2920.93 5147.63c-7.22-7.99 69.84 1.36 152.26 10.71 96.12 10.9 199.53 21.81 185.05 5.23-26.88-30.8-350.92-88.74-374.11-97.26-11.39-4.18-130.16-262.94-248.11-525.18 122.94 48.73 273.32 116.72 252.72 90.32-21.29-27.33-160.71-93.25-285.26-162.82-92.27-205.9-177.73-399.36-203.2-457.11l10.28-11.93c60.88 16.66 264.84 72.61 482.11 133.47 87.18 112.9 172.98 241.06 203.15 258.09 29.16 16.46-60.29-122.23-126.65-236.62 276.79 77.93 550.24 157.2 556.06 167.83 11.87 21.67 117.01 333.62 151.45 355.66 17.42 11.15-4.54-77.09-27.98-165.32-22.9-86.16-47.19-172.32-37.61-165.95 19.39 12.89 348.22 471.59 202.39 871.71l.23.2-.38.2-.13.38-.23-.2c-374.21 203.33-876.43-54.16-892.04-71.41" transform="matrix(.13333 0 0 -.13333 0 666.667)"/><path style="fill:#c7ddd4;fill-opacity:1;fill-rule:nonzero;stroke:none" d="m3922.98 5326.55-1357.66-1170c-4.19-3.6-4.65-9.92-1.05-14.1 3.61-4.19 9.92-4.66 14.1-1.05l1357.67 1169.99c4.18 3.61 4.65 9.92 1.05 14.11-3.61 4.18-9.92 4.65-14.11 1.05" transform="matrix(.13333 0 0 -.13333 0 666.667)"/><path style="fill:#c7ddd4;fill-opacity:1;fill-rule:nonzero;stroke:none" d="m3216.09 4374.34 161.2 459.46c1.83 5.21-.92 10.91-6.13 12.74-5.21 1.84-10.92-.91-12.75-6.12l-161.2-459.46c-1.83-5.21.92-10.92 6.13-12.75 5.21-1.82 10.92.92 12.75 6.13M3645.75 5088.37l-630.43-154.06c-5.36-1.31-8.65-6.72-7.34-12.09 1.31-5.36 6.72-8.65 12.09-7.34l630.43 154.06c5.36 1.31 8.65 6.73 7.34 12.09-1.31 5.36-6.72 8.65-12.09 7.34" transform="matrix(.13333 0 0 -.13333 0 666.667)"/><path style="fill:#c9dad1;fill-opacity:1;fill-rule:nonzero;stroke:none" d="M2876.23 4620.04c4.31 3.26 7.81 6.25 10.36 8.92-2.54-2.67-6.02-5.65-10.33-8.91-.02-.01-.01-.01-.03-.01" transform="matrix(.13333 0 0 -.13333 0 666.667)"/><path style="fill:#3d7960;fill-opacity:1;fill-rule:nonzero;stroke:none" d="M2636.02 4541.13c82.39 183.18 165.19 364.67 211.5 458.87h436.61l-268.81-65.69c-5.36-1.31-8.65-6.72-7.34-12.09 1.12-4.56 5.21-7.63 9.71-7.63.78 0 1.58.1 2.38.29l348.31 85.12h175.68l-177.51-152.98a9.996 9.996 0 0 1-8.14-6.6l-.2-.58-153.64-132.41c-106.45-16.16-217.19-45.16-328.31-87.38 4.31 3.26 7.79 6.24 10.33 8.91.82.86 1.53 1.69 2.15 2.49 1.29 1.65 1.91 2.93 1.91 3.87-.01 1.38-1.34 2.02-3.85 2.02-23.18 0-146.8-55-250.78-96.21M3777.72 4646.28c-104.39 50.63-233.5 76.51-376.27 76.51-20.95 0-42.2-.56-63.7-1.67l37.57 107.06L3574.7 5000h275.96c.16-126.09-32.05-249.07-72.94-353.72m-536.64 66.22 103.85 89.5-28.83-82.2c-24.7-1.7-49.74-4.14-75.02-7.3" transform="matrix(.13333 0 0 -.13333 0 666.667)"/><path style="fill:#9dbfb1;fill-opacity:1;fill-rule:nonzero;stroke:none" d="m3204.57 4707.43 153.64 132.41-13.28-37.84-103.85-89.5c-12.11-1.52-24.29-3.21-36.51-5.07m170.75 120.75 1.97 5.62c1.83 5.21-.92 10.91-6.13 12.74a9.812 9.812 0 0 1-4.61.48L3544.06 5000h30.64l-199.38-171.82" transform="matrix(.13333 0 0 -.13333 0 666.667)"/><path style="fill:#9dbfb1;fill-opacity:1;fill-rule:nonzero;stroke:none" d="m3316.1 4719.8 28.83 82.2 13.28 37.84.2.58a9.996 9.996 0 0 0 8.14 6.6 9.812 9.812 0 0 0 4.61-.48c5.21-1.83 7.96-7.53 6.13-12.74l-1.97-5.62-37.57-107.06c-7.2-.38-14.4-.82-21.65-1.32M3017.69 4914.59c-4.5 0-8.59 3.07-9.71 7.63-1.31 5.37 1.98 10.78 7.34 12.09l268.81 65.69h84.25l-348.31-85.12c-.8-.19-1.6-.29-2.38-.29" transform="matrix(.13333 0 0 -.13333 0 666.667)"/><path style="fill:#4d8c73;fill-opacity:1;fill-rule:nonzero;stroke:none" d="M4285.68-368.52c-6.56 8.79 72.55-8.628 155.57-26.05 93.22-19.571 191.39-39.129 178.77-21.571-23.87 33.18-341.02 121.352-363.3 132.02-10.95 5.242-104.84 274.031-197.57 546.211 117.78-60.07 261.1-141.93 243.1-113.699-18.64 29.199-151.23 107.968-268.69 188.929-72.48 213.692-139.35 414.321-159.26 474.211l11.34 10.918c59.05-22.32 256.84-97.219 467.41-178.258 76.17-120.609 149.53-256.281 177.96-276.07 27.49-19.141-48.52 127.379-103.81 247.481 268.22-103.622 533.01-208.282 537.78-219.422 9.8-22.688 85.1-343.14 117.32-368.328 16.31-12.75 2.68 77.418-12.37 167.597-14.67 87.813-30.69 175.633-21.76 168.391 18.09-14.68 302.3-502.27 119.45-886.899l.2-.211-.39-.179-.16-.371-.22.222c-391.68-167.203-867.44 136.418-881.37 155.078" transform="matrix(.13333 0 0 -.13333 0 666.667)"/><path style="fill:#c7ddd4;fill-opacity:1;fill-rule:nonzero;stroke:none" d="M5280.89-627.109 4039.38 665.469c-3.83 3.992-10.16 4.113-14.14.293-3.98-3.832-4.11-10.16-.28-14.141l1241.51-1292.59c3.82-3.98 10.15-4.109 14.14-.281 3.98 3.82 4.11 10.152.28 14.141" transform="matrix(.13333 0 0 -.13333 0 666.667)"/><path style="fill:#c7ddd4;fill-opacity:1;fill-rule:nonzero;stroke:none" d="m4632.93 368.73 117.23-472.589c1.33-5.36 6.75-8.629 12.11-7.301 5.36 1.332 8.63 6.75 7.3 12.11l-117.23 472.589c-1.33 5.363-6.75 8.633-12.11 7.301-5.36-1.328-8.63-6.75-7.3-12.11" transform="matrix(.13333 0 0 -.13333 0 666.667)"/><path style="fill:#c9dad1;fill-opacity:1;fill-rule:nonzero;stroke:none" d="M4301.43 149.59c-.01.019-.02.039-.04.058.02-.019.03-.039.04-.058m-.04.058c-2.3 3.231-5.89 7.012-10.53 11.282 4.68-4.282 8.23-8.051 10.53-11.282" transform="matrix(.13333 0 0 -.13333 0 666.667)"/><path style="fill:#3d7960;fill-opacity:1;fill-rule:nonzero;stroke:none" d="M5000 0h-255l-4.18 16.86c57.37-8.45 113.25-12.669 166.97-12.669 31.54 0 62.31 1.45 92.21 4.36V0m-275.61 0h-45.83l-33.18 34.54c24.89-5.54 49.56-10.31 74-14.34l5.01-20.2m-73.56 0h-501.44c-28.12 80.512-59.24 171.102-90.24 262.09 101.3-51.66 221.49-119.449 241.69-119.449 1.93 0 2.94.621 2.95 1.918 0 .933-.5 2.191-1.54 3.832-.25.39-.53.789-.82 1.199-.01.019-.02.039-.04.058-2.3 3.231-5.85 7-10.5 11.262 106.64-52.48 214.15-91.781 318.62-117.89L4650.83 0" transform="matrix(.13333 0 0 -.13333 0 666.667)"/><path style="fill:#9dbfb1;fill-opacity:1;fill-rule:nonzero;stroke:none" d="M4678.56 0h-27.73l-41.32 43.02c12-3 23.96-5.829 35.87-8.48L4678.56 0M4745 0h-20.61l-5.01 20.2c7.16-1.169 14.33-2.29 21.44-3.34L4745 0" transform="matrix(.13333 0 0 -.13333 0 666.667)"/><path style="fill:#acc9bf;fill-opacity:1;fill-rule:nonzero;stroke:none" d="M1014.94 4753.52c-512.788 119.46-898.987 342.9-898.987 342.9s445.184 29.78 957.977-89.69c512.77-119.44 898.97-342.89 898.97-342.89s-445.19-29.78-957.96 89.68" transform="matrix(.13333 0 0 -.13333 0 666.667)"/><path style="fill:#e5ece8;fill-opacity:1;fill-rule:nonzero;stroke:none" d="M1744.8 4661.84c-6.98.18-14.11.4-21.35.64 7.24-.24 14.36-.45 21.34-.64h.01m-728.16 91.28c-.04.01-.08.02-.11.02.03 0 .08-.01.11-.02m-.85.2c-.28.06-.57.13-.85.2-206.631 48.14-392.686 113.15-541.221 173.63 148.535-60.48 334.59-125.49 541.221-173.63.28-.07.57-.14.85-.2m129.5 235.94h-.02c-14.23 3.65-28.57 7.24-43.02 10.74h.01c14.45-3.5 28.8-7.09 43.03-10.74" transform="matrix(.13333 0 0 -.13333 0 666.667)"/><path style="fill:#9bbcb1;fill-opacity:1;fill-rule:nonzero;stroke:none" d="M1744.79 4661.84c-6.98.19-14.1.4-21.34.64-177.52 5.83-432.39 26.87-706.81 90.64-.03.01-.08.02-.11.02-.24.06-.49.12-.74.18-.28.06-.57.13-.85.2-206.631 48.14-392.686 113.15-541.221 173.63a3456.582 3456.582 0 0 1-71.094 72.85h699.625c14.45-3.5 28.79-7.09 43.02-10.74-34.86.94-66.42 1.29-94.17 1.29-84.623 0-133.897-3.28-133.897-3.28s350.777-202.95 827.597-325.43" transform="matrix(.13333 0 0 -.13333 0 666.667)"/><path style="fill:#acc9bf;fill-opacity:1;fill-rule:nonzero;stroke:none" d="M4971.68 1140.6c245.43-465.811 329.39-904.03 329.39-904.03s-313.99 317.012-559.42 782.83c-245.42 465.8-329.38 904.01-329.38 904.01s313.97-317.01 559.41-782.81" transform="matrix(.13333 0 0 -.13333 0 666.667)"/><path style="fill:#e5ece8;fill-opacity:1;fill-rule:nonzero;stroke:none" d="M5000 603.5c-84.05 117.16-175.15 258-258.35 415.9a3354.28 3354.28 0 0 0-33.52 65.38c.01 0 .02-.01.02-.02 10.82-21.7 21.98-43.49 33.5-65.36 83.2-157.9 174.3-298.74 258.35-415.9" transform="matrix(.13333 0 0 -.13333 0 666.667)"/><path style="fill:#9bbcb1;fill-opacity:1;fill-rule:nonzero;stroke:none" d="M5000 603.5c-84.05 117.16-175.15 258-258.35 415.9a3296.794 3296.794 0 0 0-33.5 65.36c89.57-109.201 150.83-171.088 150.83-171.088s-76.27 398.028-295.87 838.628c113.19-138.04 271.55-351.68 408.57-611.7 9.69-18.4 19.13-36.74 28.32-55.02V603.5" transform="matrix(.13333 0 0 -.13333 0 666.667)"/><path style="fill:#acc9bf;fill-opacity:1;fill-rule:nonzero;stroke:none" d="M150.367 4882.09c-384.816 359.37-608.055 745.68-608.055 745.68s400.672-196.28 785.493-555.64c384.824-359.33 608.058-745.65 608.058-745.65s-400.683 196.29-785.496 555.61" transform="matrix(.13333 0 0 -.13333 0 666.667)"/><path style="fill:#9bbcb1;fill-opacity:1;fill-rule:nonzero;stroke:none" d="M737.188 4438.55c-152.247 93.2-371.997 242.97-586.821 443.54-41.926 39.16-81.953 78.65-119.965 117.91h237.516c90.895-133.39 251.52-348.73 469.27-561.45" transform="matrix(.13333 0 0 -.13333 0 666.667)"/><path style="fill:#30634d;fill-opacity:1;fill-rule:nonzero;stroke:none" d="M5527.7 5171.18c-.36-.14-234.15-85.52-534.35-256.36-300.19-170.86-666.88-427.1-932.91-769.67-3.39-4.36-2.6-10.64 1.77-14.03 4.36-3.39 10.64-2.6 14.03 1.77 263.47 339.38 628.17 594.52 927 764.55 149.41 85.02 282.33 148.8 377.86 191.3 47.76 21.24 86.17 37.18 112.62 47.78a2051.1 2051.1 0 0 0 30.37 11.93c3.46 1.32 6.09 2.31 7.85 2.97 1.76.65 2.62.97 2.62.97 5.19 1.9 7.86 7.63 5.97 12.82-1.9 5.19-7.64 7.86-12.83 5.97" transform="matrix(.13333 0 0 -.13333 0 666.667)"/><path style="fill:#30634d;fill-opacity:1;fill-rule:nonzero;stroke:none" d="M4135.6 4084.43c86.74 107.03 95.39 243.78 95.39 243.78s-131.99-36.82-218.72-143.85c-86.72-107.04-95.37-243.78-95.37-243.78s131.98 36.81 218.7 143.85M4215.64 4413.5c136.32 19.95 235.33 114.68 235.33 114.68s-122.02 62.35-258.32 42.37c-136.32-19.96-235.33-114.68-235.33-114.68s122.02-62.34 258.32-42.37M4496.86 4670.59c137.76-2.17 250.68 75.43 250.68 75.43s-110.43 81.13-248.18 83.29c-137.75 2.17-250.67-75.44-250.67-75.44s110.44-81.12 248.17-83.28M4908.24 4918.82c137.76-2.18 250.68 75.44 250.68 75.44s-110.42 81.11-248.18 83.28c-137.74 2.16-250.66-75.45-250.66-75.45s110.42-81.1 248.16-83.27M4547.21 4355.43c54.76 126.41 26.32 260.45 26.32 260.45s-117.22-70.94-171.98-197.36c-54.76-126.41-26.33-260.44-26.33-260.44s117.22 70.94 171.99 197.35M4897.39 4604.16c54.77 126.42 26.33 260.45 26.33 260.45s-117.24-70.93-171.98-197.35c-54.77-126.42-26.34-260.44-26.34-260.44s117.23 70.93 171.99 197.34M-370.363 2131.12c.234.31 152.285 197.35 314.851 502.11 162.543 304.78 335.707 717.26 377.66 1148.95.536 5.5-3.488 10.39-8.984 10.92-5.5.54-10.387-3.49-10.922-8.98-41.492-427.64-213.566-838.13-375.398-1141.47-80.907-151.68-159.227-276.59-217.289-363.54-29.032-43.47-53-77.45-69.696-100.55-8.347-11.54-14.875-20.37-19.308-26.3-2.219-2.96-3.914-5.2-5.051-6.7a335.13 335.13 0 0 0-1.699-2.22c-3.371-4.38-2.563-10.66 1.808-14.03 4.371-3.37 10.653-2.56 14.028 1.81" transform="matrix(.13333 0 0 -.13333 0 666.667)"/><path style="fill:#30634d;fill-opacity:1;fill-rule:nonzero;stroke:none" d="M226.172 3793.38C210 3656.57 275.73 3536.34 275.73 3536.34s91.926 101.6 108.083 238.42c16.16 136.82-49.559 257.05-49.559 257.05s-91.918-101.61-108.082-238.43M334.246 3472.42c-104.59-89.67-137.699-222.63-137.699-222.63s136.457 12.45 241.031 102.13c104.586 89.69 137.699 222.64 137.699 222.64s-136.449-12.46-241.031-102.14M233.805 3104.87c-117.629-71.73-171.649-197.65-171.649-197.65s136.688-9.61 254.297 62.13c117.617 71.74 171.645 197.66 171.645 197.66s-136.692 9.6-254.293-62.14M18.578 2675.31c-117.625-71.74-171.644-197.65-171.644-197.65s136.668-9.61 254.293 62.13c117.613 71.73 171.632 197.65 171.632 197.65s-136.671 9.6-254.28-62.13M22.918 3344.44c21.219-136.12 116.844-234.25 116.844-234.25s61.218 122.58 39.996 258.7c-21.211 136.12-116.832 234.25-116.832 234.25s-61.211-122.57-40.008-258.7M-140.297 2947.12c21.203-136.11 116.836-234.25 116.836-234.25s61.23 122.59 40.004 258.7c-21.215 136.13-116.824 234.26-116.824 234.26s-61.227-122.59-40.016-258.71M1102.85-318.539c.38.078 244.1 50.519 565.98 175.84 321.86 125.34 721.95 325.48 1035.01 625.668 3.98 3.82 4.11 10.152.29 14.14-3.82 3.981-10.15 4.121-14.14.289C2379.93 199.988 1981.97.648 1661.57-124.07c-160.2-62.371-300.99-106.11-401.68-134.25-50.34-14.071-90.67-24.239-118.38-30.891-13.85-3.32-24.56-5.758-31.78-7.367-7.23-1.61-10.93-2.371-10.94-2.383-5.4-1.117-8.88-6.41-7.76-11.82 1.12-5.399 6.41-8.879 11.82-7.758" transform="matrix(.13333 0 0 -.13333 0 666.667)"/><path style="fill:#30634d;fill-opacity:1;fill-rule:nonzero;stroke:none" d="M2638.3 554c-101.39-93.281-129.84-227.309-129.84-227.309s135.93 17.211 237.3 110.481c101.41 93.269 129.84 227.297 129.84 227.297S2739.69 647.27 2638.3 554M2511.21 240.082c-137.77.09-249.5-79.223-249.5-79.223s111.63-79.43 249.4-79.5c137.78-.109 249.52 79.2 249.52 79.2s-111.65 79.429-249.42 79.523M2195.56 26.648C2059.6 48.852 1936.59-11.48 1936.59-11.48S2034.03-107.82 2170-130c135.97-22.199 258.97 38.14 258.97 38.14S2331.53 4.47 2195.56 26.649M2191.64 345.789c-72.58-117.09-63.96-253.828-63.96-253.828S2254 145.07 2326.56 262.172c72.58 117.09 63.95 253.84 63.95 253.84s-126.29-53.121-198.87-170.223M1808.98 150.672c-72.58-117.102-63.97-253.82-63.97-253.82s126.32 53.097 198.9 170.207c72.57 117.082 63.95 253.832 63.95 253.832s-126.3-53.121-198.88-170.219" transform="matrix(.13333 0 0 -.13333 0 666.667)"/><path style="fill:#ed9398;fill-opacity:1;fill-rule:nonzero;stroke:none" d="M353.254 689.34s980.576 1676.07 1094.586 1807.2c114.02 131.12 815.24 678.42 900.76 678.42 85.52 0 1351.14 119.72 1351.14 119.72s136.81-319.25-148.24-399.06c-285.04-79.83-1185.81-399.08-1533.57-809.55-347.75-410.46-815.24-1373.941-815.24-1373.941L353.254 689.34" transform="matrix(.13333 0 0 -.13333 0 666.667)"/><path style="fill:#ed9398;fill-opacity:1;fill-rule:nonzero;stroke:none" d="m3322.49 2626.15 373.77 70.51s190.41-303.23-352.62-394.91c-373.77 49.37-21.15 324.4-21.15 324.4M3249.94 2164.91l474.74 32.1s160.36-327.2-372.1-359.27c-269.44 96.23-102.64 327.17-102.64 327.17M2959.84 1020.57l587.2-245.148S3586.95 535.98 3096.67 650c-490.29 114.02-718.34 142.531-838.05 85.52-119.72-57.008-399.07-456.09-587.2-507.399-353.47-68.41-718.33 5.711-718.33 5.711l-22.801 695.52L1563.1 1567.86l598.6 387.66 798.14-934.95" transform="matrix(.13333 0 0 -.13333 0 666.667)"/><path style="fill:#223143;fill-opacity:1;fill-rule:nonzero;stroke:none" d="M3551.5 1057.3c0-144.859-117.46-262.3-262.32-262.3H1767.81c-144.87 0-262.31 117.441-262.31 262.3v2885.4c0 144.86 117.44 262.3 262.31 262.3h1521.37c144.86 0 262.32-117.44 262.32-262.3V1057.3" transform="matrix(.13333 0 0 -.13333 0 666.667)"/><path style="fill:#374c60;fill-opacity:1;fill-rule:nonzero;stroke:none" d="M1767.81 4080c-75.71 0-137.31-61.6-137.31-137.3V1057.3c0-75.71 61.6-137.3 137.31-137.3h1521.37c75.72 0 137.32 61.59 137.32 137.3v2885.4c0 75.7-61.6 137.3-137.32 137.3H1767.81" transform="matrix(.13333 0 0 -.13333 0 666.667)"/><path style="fill:#223143;fill-opacity:1;fill-rule:nonzero;stroke:none" d="M2536 4150.94v.72l-7.5-.36-7.5.36v-.72l-610-29.28c170 0 120-190 325-190h585c205 0 155 190 325 190l-610 29.28" transform="matrix(.13333 0 0 -.13333 0 666.667)"/><path style="fill:#374c60;fill-opacity:1;fill-rule:nonzero;stroke:none" d="M2873.5 4049.96c0-9.21-7.47-16.67-16.66-16.67h-656.67c-9.21 0-16.67 7.46-16.67 16.67 0 9.2 7.46 16.67 16.67 16.67h656.67c9.19 0 16.66-7.47 16.66-16.67" transform="matrix(.13333 0 0 -.13333 0 666.667)"/><path style="fill:#223143;fill-opacity:1;fill-rule:nonzero;stroke:none" d="M1593.5 2957.5c0-40.04-32.46-72.5-72.5-72.5s-72.5 32.46-72.5 72.5v690c0 40.04 32.46 72.5 72.5 72.5s72.5-32.46 72.5-72.5v-690" transform="matrix(.13333 0 0 -.13333 0 666.667)"/><path style="fill:#fefcfb;fill-opacity:1;fill-rule:nonzero;stroke:none" d="M3152.66 2854.17c0-125.65-101.86-227.5-227.5-227.5h-793.32c-125.65 0-227.5 101.85-227.5 227.5 0 125.64 101.85 227.49 227.5 227.49h793.32c125.64 0 227.5-101.85 227.5-227.49" transform="matrix(.13333 0 0 -.13333 0 666.667)"/><path style="fill:#de6a31;fill-opacity:1;fill-rule:nonzero;stroke:none" d="M3128.49 2851.66c0-117.35-95.13-212.5-212.49-212.5-117.37 0-212.5 95.15-212.5 212.5 0 117.36 95.13 212.51 212.5 212.51 117.36 0 212.49-95.15 212.49-212.51" transform="matrix(.13333 0 0 -.13333 0 666.667)"/><path style="fill:#f4d0be;fill-opacity:1;fill-rule:nonzero;stroke:none" d="M2916.41 2639.17h.11-.11m.43 0h.11-.11m.94 0h.09-.09m.45.01h.06-.06m-214.73 212.86v.09-.09m0 .38v.11-.11m0 .37v.12-.12m0 .39v.1-.1m0 .4v.07-.07" transform="matrix(.13333 0 0 -.13333 0 666.667)"/><path style="fill:#d55725;fill-opacity:1;fill-rule:nonzero;stroke:none" d="M2916 2639.16c-51.19 0-98.14 18.1-134.82 48.24-7.73 34.47-23.6 60.56-45.16 75.45-4.89 3.37-10.4 5.9-16.47 7.64-10.34 25.01-16.05 52.43-16.05 81.17V2853.65c.62 66.41 31.79 125.45 80.02 164-18.95-31.79-30.02-68.8-30.02-108.49 0-117.35 95.13-212.5 212.5-212.5 50.13 0 96.15 17.48 132.48 46.52-36.71-61.59-103.48-103.19-180.19-104h-.06c-.12 0-.24-.01-.36-.01H2916.41c-.14-.01-.28-.01-.41-.01" transform="matrix(.13333 0 0 -.13333 0 666.667)"/><path style="fill:#c7ddd4;fill-opacity:1;fill-rule:nonzero;stroke:none" d="M2662.66 2851.66c0 65.61 24.94 125.39 65.85 170.38-2.25.09-4.46.34-6.72.34H2135.2c-92.9 0-168.21-75.32-168.21-168.21 0-92.91 75.31-168.22 168.21-168.22h586.59l2.56.13c-38.4 44.41-61.69 102.26-61.69 165.58" transform="matrix(.13333 0 0 -.13333 0 666.667)"/><g clip-path="url(#a)" transform="matrix(.13333 0 0 -.13333 0 666.667)"><path style="fill:#5f6f7f;fill-opacity:1;fill-rule:nonzero;stroke:none" d="M1709.71 932.91a135.094 135.094 0 0 0-16.33 9.059c54.38 79.261 102.43 170.151 140.86 275.741L3426.5 2809.97V2649.7L1709.71 932.91M1946.84 920h-70.29L3426.5 2469.95v-70.29L1946.84 920"/></g><path style="fill:#b5747b;fill-opacity:1;fill-rule:nonzero;stroke:none" d="M1505.56 1051.58v.04-.04m-.01.52v.02-.02m-.02 1.04v.03-.03m0 .48v.12-.12m-.01.49v.12-.12m0 .53c0 .02 0 .06-.01.09.01-.04.01-.06.01-.09m-.01.58v.04-.04m0 .47v.16-.16m0 .49c-.01.05-.01.11-.01.16 0-.06 0-.1.01-.16m-.01.5v.15-.15" transform="matrix(.13333 0 0 -.13333 0 666.667)"/><path style="fill:#1a2736;fill-opacity:1;fill-rule:nonzero;stroke:none" d="M1617.18 842.621c-66.06 46.438-109.76 122.527-111.62 208.959v.04c0 .16 0 .31-.01.48v.02c0 .34-.01.68-.02 1.02v.6c-.01.12-.01.25-.01.37v.53c0 .03 0 .05-.01.09v1.45c-.01.06-.01.1-.01.16V2072.39c37.17 22.73 79.58 48.68 125 76.5V1057.3c0-13.17 1.87-25.91 5.35-37.98 9.27-32.179 30.04-59.55 57.53-77.351a1186.337 1186.337 0 0 0-76.2-99.348" transform="matrix(.13333 0 0 -.13333 0 666.667)"/><path style="fill:#2a3c4e;fill-opacity:1;fill-rule:nonzero;stroke:none" d="M1635.85 1019.32a136.891 136.891 0 0 0-5.35 37.98v1091.59c258.44 158.28 614.02 376.96 651.63 404.8 17.3 12.8 55.08 40.95 102.23 72.98h401.93c-3.88-112.83-74.03-274.49-255.92-432.7-260.58-226.66-586.47-387.85-613.86-619.14-16-135.2-44.48-253.26-82.27-357.12l-198.39-198.39" transform="matrix(.13333 0 0 -.13333 0 666.667)"/><path style="fill:#c2c7cc;fill-opacity:1;fill-rule:nonzero;stroke:none" d="M2786.29 2626.67h-401.93c28.26 19.19 59.89 39.78 92.48 59.28h244.95l2.56.13c-21.53 24.91-38.32 54.04-48.91 85.98 7 .99 13.71 1.51 20.05 1.51 8.73 0 16.79-.98 24.06-3.08 13.47-32.56 34.8-61.05 61.63-83.09 4.06-18.08 5.88-38.44 5.11-60.73" transform="matrix(.13333 0 0 -.13333 0 666.667)"/><path style="fill:#a3451e;fill-opacity:1;fill-rule:nonzero;stroke:none" d="M2781.18 2687.4c-26.83 22.04-48.16 50.53-61.63 83.09 6.07-1.74 11.58-4.27 16.47-7.64 21.56-14.89 37.43-40.98 45.16-75.45" transform="matrix(.13333 0 0 -.13333 0 666.667)"/><path style="fill:#98aeac;fill-opacity:1;fill-rule:nonzero;stroke:none" d="M2721.79 2685.95h-244.95c69.58 41.65 143.54 78.36 198.6 86.11 10.59-31.94 27.38-61.07 48.91-85.98l-2.56-.13" transform="matrix(.13333 0 0 -.13333 0 666.667)"/><path style="fill:#485767;fill-opacity:1;fill-rule:nonzero;stroke:none" d="M1693.38 941.969c-27.49 17.801-48.26 45.172-57.53 77.351l198.39 198.39c-38.43-105.59-86.48-196.48-140.86-275.741" transform="matrix(.13333 0 0 -.13333 0 666.667)"/><path style="fill:#de6a31;fill-opacity:1;fill-rule:nonzero;stroke:none" d="M476.664 1183.33 0 613.582V0h1813.7C1453.17 557.801 476.664 1183.33 476.664 1183.33" transform="matrix(.13333 0 0 -.13333 0 666.667)"/><path style="fill:#ed9398;fill-opacity:1;fill-rule:nonzero;stroke:none" d="M1336.67 2129.99s897.48 464.15 960.21 504.06c62.68 39.9 381.95 245.14 467.47 176.73 85.51-68.41 58.03-324.69-245.13-553.01-275.89-207.77-612.31-345.65-655.89-574.44-106.67-560.01-410.22-805.189-695.26-964.81l168.6 1411.47" transform="matrix(.13333 0 0 -.13333 0 666.667)"/><path style="fill:#f8cfe1;fill-opacity:1;fill-rule:nonzero;stroke:none" d="M2701.52 2823.86c-109.54-9.42-296.59-121.82-376.86-172.21-30.39-109.43 80.71-306.21 275.34-178.31 172.83 113.56 133.53 274.59 101.52 350.52" transform="matrix(.13333 0 0 -.13333 0 666.667)"/><path style="fill:#fefcfb;fill-opacity:1;fill-rule:nonzero;stroke:none" d="M2283.75 3484c46.81 82 134.99 137.26 236.14 137.25 101.31.01 189.59-55.41 236.35-137.61l26.08 14.83c-51.84 91.22-149.98 152.77-262.43 152.78-112.28-.01-210.3-61.37-262.2-152.38l26.06-14.87" transform="matrix(.13333 0 0 -.13333 0 666.667)"/><path style="fill:#fefcfb;fill-opacity:1;fill-rule:nonzero;stroke:none" d="M2367.59 3435.85c30.12 53 87.01 88.74 152.3 88.73 65.06.01 121.75-35.45 151.96-88.12l-.06.1 1.47-2.62 26.15 14.71-1.47 2.62-.04.07-.02.03c-35.3 61.65-101.83 103.2-177.99 103.21-76.44-.01-143.18-41.88-178.38-103.91l26.08-14.82" transform="matrix(.13333 0 0 -.13333 0 666.667)"/><path style="fill:#fefcfb;fill-opacity:1;fill-rule:nonzero;stroke:none" d="M2437.61 3397.09c16.47 28.41 47.11 47.5 82.28 47.49 34.31 0 64.29-18.14 81.04-45.39l-.02.04c.52-.86 1.04-1.74 1.56-2.64l26 14.96c-.63 1.11-1.29 2.21-1.95 3.3l-.02.03-.01.01c-21.94 35.78-61.51 59.69-106.6 59.69-46.23-.01-86.67-25.14-108.24-62.46l25.96-15.03" transform="matrix(.13333 0 0 -.13333 0 666.667)"/><path style="fill:#de6a31;fill-opacity:1;fill-rule:nonzero;stroke:none" d="m2740.64 3735.61-462.5-462.5 21.22-21.22 462.5 462.5" transform="matrix(.13333 0 0 -.13333 0 666.667)"/><path style="fill:#fbe9ef;fill-opacity:1;fill-rule:nonzero;stroke:none" d="M4188.67 707.219c-142.38 54.429-259.83 98.902-303.03 115.23l-11.34-10.918a70059.37 70059.37 0 0 1 20.7-62.16c-74.06 37.961-136.43 95.551-180.23 165.879 231.53 177.75 423.03 405.12 558.53 666.18 168.44-67.47 287.43-232.22 287.43-424.77 0-223.441-160.24-409.449-372.06-449.441" transform="matrix(.13333 0 0 -.13333 0 666.667)"/><path style="fill:#f5bfd7;fill-opacity:1;fill-rule:nonzero;stroke:none" d="M3714.77 915.25c-43.63 70.07-68.82 152.79-68.82 241.41 0 252.62 204.78 457.39 457.38 457.39 60.07 0 117.42-11.57 169.97-32.62-135.5-261.06-327-488.43-558.53-666.18" transform="matrix(.13333 0 0 -.13333 0 666.667)"/><path style="fill:#4c826d;fill-opacity:1;fill-rule:nonzero;stroke:none" d="M4103.33 699.281c-75.04 0-145.84 18.059-208.33 50.09a70059.37 70059.37 0 0 0-20.7 62.16l11.34 10.918c43.2-16.328 160.65-60.801 303.03-115.23-27.65-5.207-56.17-7.938-85.34-7.938" transform="matrix(.13333 0 0 -.13333 0 666.667)"/><path style="fill:#fefcfb;fill-opacity:1;fill-rule:nonzero;stroke:none" d="M4620.73 1216.67c0-252.611-204.78-457.381-457.4-457.381-252.6 0-457.38 204.77-457.38 457.381 0 252.62 204.78 457.39 457.38 457.39 252.62 0 457.4-204.77 457.4-457.39" transform="matrix(.13333 0 0 -.13333 0 666.667)"/><path style="fill:#374c60;fill-opacity:1;fill-rule:nonzero;stroke:none" d="M4461.13 1209.18c0-172.59-139.91-312.5-312.5-312.5s-312.5 139.91-312.5 312.5 139.91 312.5 312.5 312.5 312.5-139.91 312.5-312.5" transform="matrix(.13333 0 0 -.13333 0 666.667)"/><path style="fill:#fefcfb;fill-opacity:1;fill-rule:nonzero;stroke:none" d="M4388.03 1209.18c0-132.21-107.18-239.399-239.4-239.399-132.21 0-239.39 107.189-239.39 239.399s107.18 239.39 239.39 239.39c132.22 0 239.4-107.18 239.4-239.39" transform="matrix(.13333 0 0 -.13333 0 666.667)"/><path style="fill:#374c60;fill-opacity:1;fill-rule:nonzero;stroke:none" d="M4184.47 1209.18c0-19.78-16.03-35.84-35.84-35.84-19.8 0-35.84 16.06-35.84 35.84 0 19.79 16.04 35.84 35.84 35.84 19.81 0 35.84-16.05 35.84-35.84" transform="matrix(.13333 0 0 -.13333 0 666.667)"/><path style="fill:#374c60;fill-opacity:1;fill-rule:nonzero;stroke:none" d="M4160.95 1210.12c0-7.52-6.09-13.62-13.62-13.62-7.53 0-13.62 6.1-13.62 13.62v179.19c0 7.53 6.09 13.61 13.62 13.61 7.53 0 13.62-6.08 13.62-13.61v-179.19" transform="matrix(.13333 0 0 -.13333 0 666.667)"/><path style="fill:#374c60;fill-opacity:1;fill-rule:nonzero;stroke:none" d="M4152.35 1196.5c-7.53 0-13.62 6.1-13.62 13.62 0 7.53 6.09 13.62 13.62 13.62h83.14c7.53 0 13.62-6.09 13.62-13.62 0-7.52-6.09-13.62-13.62-13.62h-83.14" transform="matrix(.13333 0 0 -.13333 0 666.667)"/><path style="fill:#fbe9ef;fill-opacity:1;fill-rule:nonzero;stroke:none" d="M4491.36 2353.17c3.53 48.5 5.32 97.43 5.32 146.83 0 242.63-43.26 475.11-122.52 690.23 197-50.97 342.51-229.92 342.51-442.85 0-167.88-90.47-314.65-225.31-394.21" transform="matrix(.13333 0 0 -.13333 0 666.667)"/><path style="fill:#f5bfd7;fill-opacity:1;fill-rule:nonzero;stroke:none" d="M4259.27 2290c-252.6 0-457.39 204.77-457.39 457.38 0 252.61 204.79 457.4 457.39 457.4 39.68 0 78.17-5.05 114.89-14.55 79.26-215.12 122.52-447.6 122.52-690.23 0-49.4-1.79-98.33-5.32-146.83-68.04-40.14-147.37-63.17-232.09-63.17" transform="matrix(.13333 0 0 -.13333 0 666.667)"/><path style="fill:#fefcfb;fill-opacity:1;fill-rule:nonzero;stroke:none" d="M4783.34 2820.72c0-252.61-204.79-457.39-457.4-457.39-252.6 0-457.39 204.78-457.39 457.39 0 252.61 204.79 457.39 457.39 457.39 252.61 0 457.4-204.78 457.4-457.39" transform="matrix(.13333 0 0 -.13333 0 666.667)"/><path style="fill:#de6a31;fill-opacity:1;fill-rule:nonzero;stroke:none" d="M4260.98 3077.5c119.62-32.13 118.16-168.35 118.16-168.35s120.27 63.92 203.79-27.63c83.55-91.53-42.64-284.64-385.5-270.87-169.75 298.3-56.13 498.98 63.55 466.85" transform="matrix(.13333 0 0 -.13333 0 666.667)"/><path style="fill:#fbe9ef;fill-opacity:1;fill-rule:nonzero;stroke:none" d="M506.398 2611.59c-24.347 55.9-37.843 117.6-37.843 182.46 0 124.89 50.039 238.07 131.175 320.61-51.652-159.82-83.722-328.46-93.332-503.07" transform="matrix(.13333 0 0 -.13333 0 666.667)"/><path style="fill:#f5bfd7;fill-opacity:1;fill-rule:nonzero;stroke:none" d="M925.941 2336.66c-187.742 0-349.074 113.13-419.543 274.93 9.61 174.61 41.68 343.25 93.332 503.07 82.981 84.42 198.489 136.78 326.211 136.78 252.609 0 457.399-204.77 457.399-457.39 0-252.6-204.79-457.39-457.399-457.39" transform="matrix(.13333 0 0 -.13333 0 666.667)"/><path style="fill:#fefcfb;fill-opacity:1;fill-rule:nonzero;stroke:none" d="M1323.33 2860.72c0-252.61-204.78-457.39-457.389-457.39-252.605 0-457.386 204.78-457.386 457.39 0 252.61 204.781 457.39 457.386 457.39 252.609 0 457.389-204.78 457.389-457.39" transform="matrix(.13333 0 0 -.13333 0 666.667)"/><path style="fill:#ed9398;fill-opacity:1;fill-rule:nonzero;stroke:none" d="m741.605 2563.44 101.571 56.63-127.336 228.37-101.57-56.64 127.335-228.36M1033.87 2986.32c6.51 11.92 7.06 26.77-.01 39.45-11.01 19.74-35.915 26.79-55.583 15.82l-109.332-60.96c-11.433 23.46-30.785 60.4-54.34 93.41-38.187 53.54-84.335-5.38-84.335-5.38 70.621-52.13 41.261-230.69 41.261-230.69l103.047-184.79 203.492 113.47c19.74 11 26.83 35.84 15.85 55.53-5.51 9.9-14.4 16.5-24.34 19.36 15.96 12.13 21.09 34.35 11.07 52.33-5.46 9.8-14.33 16.48-24.37 19.4 16.02 12.05 21.19 34.29 11.17 52.26-7.1 12.73-20.02 20.08-33.58 20.79" transform="matrix(.13333 0 0 -.13333 0 666.667)"/><text style="font-variant:normal;font-weight:700;font-size:14.12769985px;font-family:Poppins;-inkscape-font-specification:Poppins-Bold;writing-mode:lr-tb;fill:#fefcfb;fill-opacity:1;fill-rule:nonzero;stroke:none" transform="matrix(1.33333 0 0 1.33333 371.053 293.795)"><tspan y="0" x="0 11.104372 18.832224">OFF</tspan></text></svg>